<svg width="53" height="53" viewBox="0 0 53 53" fill="none" xmlns="http://www.w3.org/2000/svg">
<path d="M24.5727 4.89453H28.8838V9.2056H29.9616C30.8191 9.2056 31.6415 9.54625 32.2479 10.1526C32.8542 10.759 33.1949 11.5814 33.1949 12.4389V19.9833L32.2464 20.9317L35.7815 27.0534C38.1742 24.7039 39.6615 21.449 39.6615 17.8277H43.9725C43.9725 23.0441 41.6661 27.7216 38.0017 30.8903L44.7701 42.6164L45.0503 47.4016L41.0195 44.7719L34.402 33.2829C32.1171 34.4253 29.4874 35.072 26.7283 35.072C23.9692 35.072 21.3394 34.4253 19.0546 33.2829L12.4371 44.7719L8.40625 47.4016L8.68647 42.6164L21.2101 20.9317L20.2617 19.9833V12.4389C20.2617 11.5814 20.6023 10.759 21.2087 10.1526C21.8151 9.54625 22.6375 9.2056 23.495 9.2056H24.5727V4.89453ZM21.2101 29.5323C22.8914 30.3298 24.7667 30.7609 26.7283 30.7609C28.6898 30.7609 30.5651 30.3298 32.2464 29.5323L29.0994 24.0788H29.0778C27.7414 25.3721 25.7152 25.3721 24.3787 24.0788H24.3572L21.2101 29.5323ZM26.7283 13.5167C26.1566 13.5167 25.6083 13.7438 25.2041 14.148C24.7998 14.5522 24.5727 15.1005 24.5727 15.6722C24.5727 16.2439 24.7998 16.7921 25.2041 17.1964C25.6083 17.6006 26.1566 17.8277 26.7283 17.8277C27.3 17.8277 27.8482 17.6006 28.2525 17.1964C28.6567 16.7921 28.8838 16.2439 28.8838 15.6722C28.8838 15.1005 28.6567 14.5522 28.2525 14.148C27.8482 13.7438 27.3 13.5167 26.7283 13.5167Z" fill="white"/>
</svg>
