<svg width="107" height="107" viewBox="0 0 107 107" fill="none" xmlns="http://www.w3.org/2000/svg">
<path d="M94.5402 71.8577C89.1919 71.8577 84.7344 75.5348 83.3974 80.5491H78.8287C77.0457 80.5491 75.4857 79.1003 75.4857 77.2061V61.1603H80.7228C93.4255 61.1603 103.677 50.909 103.677 38.2063C103.677 24.6122 91.7537 13.5808 77.8257 15.4751C72.3661 6.22664 62.5611 0.655273 51.8631 0.655273C38.7151 0.655273 27.3491 9.01232 23.2263 21.2693C12.4186 21.0463 3.28079 30.1829 3.28079 41.2148C3.28079 52.2467 12.1952 61.1603 23.2263 61.1603H31.4721V77.2061C31.4721 78.9891 30.0233 80.5491 28.1291 80.5491H23.5604C22.2235 75.535 17.7659 71.8577 12.4176 71.8577C6.06588 71.8577 0.82959 76.9838 0.82959 83.4458C0.82959 89.7975 6.06668 95.0338 12.4176 95.0338C17.7659 95.0338 22.2234 91.3567 23.5604 86.3425H28.1291C33.1431 86.3425 37.2665 82.2199 37.2665 77.2051V61.1601H50.6376V83.8913C45.6236 85.2282 41.9463 89.6857 41.9463 95.034C41.9463 101.386 47.0723 106.622 53.5343 106.622C59.8861 106.622 65.1224 101.496 65.1224 95.034C65.1224 89.6857 61.4453 85.2282 56.431 83.8913L56.4318 61.1601H69.8029V77.2058C69.8029 82.2199 73.9255 86.3433 78.9403 86.3433H83.509C84.8459 91.3573 89.3035 95.0346 94.6518 95.0346C101.004 95.0346 106.24 89.9086 106.24 83.4466C106.017 77.0948 100.891 71.8577 94.5397 71.8577H94.5402ZM12.3068 89.2402C9.18684 89.2402 6.62421 86.5663 6.62421 83.4458C6.62421 80.3258 9.18684 77.6514 12.4186 77.6514C15.6496 77.6514 18.213 80.214 18.213 83.4458C18.2123 86.6776 15.5386 89.2402 12.3066 89.2402H12.3068ZM59.2177 94.9234C59.2177 98.1544 56.6551 100.718 53.4233 100.718C50.1923 100.718 47.6289 98.1552 47.6289 94.9234C47.6289 91.6916 50.1923 89.2402 53.4233 89.2402C56.6543 89.2402 59.2177 91.8028 59.2177 94.9234ZM8.96398 41.2154C8.96398 33.4157 15.3157 27.0639 23.1155 27.0639C23.5608 27.0639 24.007 27.1751 24.8985 27.287C26.3473 27.3982 27.6842 26.5067 28.0184 25.0587C30.6929 14.139 40.4981 6.45031 51.7525 6.45031C61.0009 6.45031 69.358 11.5764 73.5922 19.9334C74.1495 21.1592 75.4864 21.7164 76.8232 21.4934C78.1601 21.1591 79.3858 21.048 80.6115 21.048C90.0833 21.048 97.771 28.7367 97.771 38.2074C97.771 47.6791 90.0823 55.3668 80.6115 55.3668H23.115C15.3153 55.3668 8.96357 49.0151 8.96357 41.2153L8.96398 41.2154ZM94.5402 89.2406C91.3092 89.2406 88.7458 86.678 88.7458 83.4462C88.7458 80.2152 91.3084 77.6518 94.5402 77.6518C97.7712 77.6518 100.335 80.2144 100.335 83.4462C100.335 86.678 97.6601 89.2406 94.5402 89.2406Z" fill="#FF2145"/>
<path d="M53.4236 20.2669C46.9608 20.2669 40.944 22.7183 36.3753 27.287C35.2607 28.4016 35.2607 30.2958 36.3753 31.4097C37.4898 32.5243 39.384 32.5243 40.4979 31.4097C47.4062 24.5014 59.5523 24.6126 66.349 31.4097C66.9063 31.967 67.6859 32.3012 68.3543 32.3012C69.1347 32.3012 69.8031 32.0781 70.3596 31.5208C71.4742 30.4062 71.4742 28.6239 70.3596 27.3982C66.0147 22.8303 59.775 20.2668 53.4232 20.2668L53.4236 20.2669Z" fill="#FF2145"/>
<path d="M43.395 34.3068C42.2804 35.4213 42.2804 37.3155 43.395 38.4294C44.5096 39.544 46.4038 39.544 47.5176 38.4294C50.7486 35.1984 56.209 35.1984 59.4408 38.4294C59.9981 38.9867 60.7776 39.3209 61.4461 39.3209C62.1145 39.3209 62.8948 38.9867 63.4513 38.4294C64.5659 37.3148 64.5659 35.4206 63.4513 34.3068C58.103 28.9576 48.7433 28.9576 43.3944 34.3068H43.395Z" fill="#FF2145"/>
<path d="M57.7692 44.3352C57.7692 46.7352 55.8238 48.6808 53.4235 48.6808C51.0233 48.6808 49.0779 46.7354 49.0779 44.3352C49.0779 41.935 51.0233 39.9895 53.4235 39.9895C55.8238 39.9895 57.7692 41.935 57.7692 44.3352Z" fill="#FF2145"/>
</svg>
