<svg width="116" height="115" viewBox="0 0 116 115" fill="none" xmlns="http://www.w3.org/2000/svg">
<path d="M57.9492 59.7526C60.3753 59.7526 62.3521 61.4881 62.3521 63.621C62.3521 65.7532 60.3755 67.4886 57.9492 67.4886C56.2392 67.4886 54.6688 66.6045 53.9482 65.2364C53.3344 64.0679 51.8858 63.6218 50.7216 64.233C49.5549 64.8478 49.1045 66.2919 49.7209 67.4596C50.9151 69.7313 53.049 71.3344 55.5608 71.965V74.3276C55.5608 75.6471 56.6295 76.7166 57.9499 76.7166C59.2702 76.7166 60.3389 75.647 60.3389 74.3276V71.9331C64.2393 70.9359 67.13 67.6052 67.13 63.621C67.1292 58.8533 63.0115 54.9742 57.949 54.9742C55.5201 54.9742 53.5444 53.2386 53.5444 51.1057C53.5444 48.9736 55.5202 47.2372 57.949 47.2372C59.4187 47.2372 60.7859 47.8802 61.6074 48.9569C62.4049 50.0071 63.9055 50.2085 64.9558 49.4074C66.006 48.6071 66.2064 47.1083 65.4063 46.0589C64.1627 44.4311 62.3538 43.2979 60.3383 42.7831V40.4002C60.3383 39.0806 59.2696 38.0111 57.9492 38.0111C56.6289 38.0111 55.5602 39.0807 55.5602 40.4002V42.7946C51.6598 43.7918 48.7664 47.1225 48.7664 51.1068C48.7664 55.8736 52.8867 59.7527 57.9492 59.7527L57.9492 59.7526Z" fill="#FF2145"/>
<path d="M15.3778 75.0691C14.3665 72.0537 11.5464 69.8607 8.1944 69.8607C3.99989 69.8607 0.586355 73.2745 0.586355 77.4687C0.586355 81.6651 4.00012 85.0777 8.1944 85.0777C11.5541 85.0777 14.3789 82.874 15.3839 79.8472H30.156C30.7362 82.4836 32.8082 84.5601 35.4421 85.1482V99.9327C32.4276 100.945 30.2346 103.764 30.2346 107.115C30.2346 111.31 33.6484 114.723 37.8427 114.723C42.037 114.723 45.4507 111.31 45.4507 107.115C45.4507 103.755 43.2471 100.93 40.2202 99.9248V85.3251H55.5487V99.932C52.5342 100.944 50.3412 103.763 50.3412 107.115C50.3412 111.309 53.755 114.723 57.9492 114.723C62.1435 114.723 65.5573 111.309 65.5573 107.115C65.5573 103.755 63.3536 100.929 60.3268 99.9241V85.3244H75.6552V99.9314C72.6408 100.944 70.4478 103.763 70.4478 107.114C70.4478 111.308 73.8615 114.722 78.0558 114.722C82.2501 114.722 85.6639 111.308 85.6639 107.114C85.6639 103.754 83.4602 100.929 80.4333 99.9234V85.1532C83.0786 84.5721 85.1612 82.4894 85.7432 79.8442H100.513C101.518 82.8711 104.343 85.0748 107.702 85.0748C111.899 85.0748 115.313 81.661 115.313 77.4658C115.313 73.2713 111.899 69.8578 107.702 69.8578C104.35 69.8578 101.53 72.0508 100.519 75.0661H85.9135V59.7368H100.511C101.517 62.7636 104.342 64.9673 107.702 64.9673C111.899 64.9673 115.313 61.5535 115.313 57.3592C115.313 53.1649 111.899 49.7512 107.702 49.7512C104.351 49.7512 101.531 51.9442 100.519 54.9587H85.9133V39.6302H100.512C101.517 42.6571 104.343 44.8607 107.702 44.8607C111.899 44.8607 115.312 41.447 115.312 37.2518C115.312 33.0573 111.899 29.6437 107.702 29.6437C104.35 29.6437 101.53 31.8368 100.518 34.8521H85.7355C85.1464 32.2184 83.0709 30.1454 80.4327 29.565V14.7948C83.4595 13.7897 85.6632 10.9643 85.6632 7.60439C85.6632 3.40988 82.2494 -0.00366211 78.0551 -0.00366211C73.8609 -0.00366211 70.4471 3.4101 70.4471 7.60439C70.4471 10.9553 72.6401 13.7755 75.6546 14.7869V29.3939H60.3261V14.7993C63.353 13.7942 65.5566 10.9689 65.5566 7.60891C65.5566 3.4144 62.1429 0.000859703 57.9486 0.000859703C53.7543 0.000859703 50.3405 3.41462 50.3405 7.60891C50.3405 10.9598 52.5336 13.78 55.548 14.7914V29.3984H40.2195V14.7996C43.2464 13.7945 45.4501 10.9691 45.4501 7.60913C45.4501 3.41462 42.0363 0.00108612 37.842 0.00108612C33.6477 0.00108612 30.234 3.41485 30.234 7.60913C30.234 10.96 32.427 13.7803 35.4414 14.7916V29.5761C32.8147 30.1635 30.7488 32.2292 30.1623 34.8553L15.3769 34.8561C14.3656 31.8408 11.5455 29.6478 8.1935 29.6478C3.99899 29.6478 0.585449 33.0615 0.585449 37.2558C0.585449 41.4521 3.99921 44.8648 8.1935 44.8648C11.5532 44.8648 14.378 42.6611 15.383 39.6342H29.9837V54.9627H15.376C14.3638 51.9482 11.5446 49.7552 8.1935 49.7552C3.99899 49.7552 0.585449 53.169 0.585449 57.3633C0.585449 61.5576 3.99921 64.9713 8.1935 64.9713C11.5532 64.9713 14.3787 62.7677 15.3839 59.7408H29.9846V75.0702L15.3778 75.0691ZM8.1944 80.2996C6.63374 80.2996 5.36445 79.0295 5.36445 77.4687C5.36445 75.9081 6.63365 74.6388 8.1944 74.6388C9.71445 74.6388 10.9378 75.8497 11.0013 77.3539C10.9995 77.3901 10.9801 77.421 10.9801 77.4581C10.9801 77.4987 11.0013 77.5332 11.0031 77.5729C10.9457 79.0824 9.71796 80.2995 8.19436 80.2995L8.1944 80.2996ZM104.896 77.3478C104.963 75.8463 106.184 74.639 107.701 74.639C109.262 74.639 110.533 75.9082 110.533 77.469C110.533 79.0296 109.262 80.2998 107.701 80.2998C106.179 80.2998 104.955 79.0863 104.893 77.5786C104.895 77.5362 104.918 77.5009 104.918 77.4576C104.918 77.4188 104.898 77.387 104.896 77.3481L104.896 77.3478ZM104.896 57.241C104.963 55.7395 106.184 54.5322 107.701 54.5322C109.262 54.5322 110.533 55.8014 110.533 57.3622C110.533 58.9229 109.262 60.1921 107.701 60.1921C106.179 60.1921 104.954 58.9786 104.893 57.4718C104.895 57.4294 104.918 57.3932 104.918 57.3508C104.918 57.312 104.898 57.2793 104.896 57.2413L104.896 57.241ZM104.896 37.1333C104.963 35.6318 106.184 34.4245 107.701 34.4245C109.262 34.4245 110.533 35.6937 110.533 37.2545C110.533 38.8151 109.262 40.0853 107.701 40.0853C106.179 40.0853 104.955 38.8718 104.893 37.3641C104.895 37.3217 104.918 37.2864 104.918 37.2431C104.918 37.2052 104.898 37.1725 104.896 37.1336L104.896 37.1333ZM40.6724 107.116C40.6724 108.676 39.4032 109.946 37.8425 109.946C36.2817 109.946 35.0125 108.676 35.0125 107.116C35.0125 105.596 36.2225 104.373 37.7267 104.309C37.7629 104.311 37.7938 104.33 37.8309 104.33C37.8715 104.33 37.906 104.309 37.9466 104.307C39.4561 104.364 40.6723 105.591 40.6723 107.116L40.6724 107.116ZM60.7783 107.116C60.7783 108.676 59.5091 109.946 57.9483 109.946C56.3876 109.946 55.1184 108.676 55.1184 107.116C55.1184 105.596 56.3284 104.373 57.8326 104.309C57.8688 104.311 57.8997 104.33 57.9368 104.33C57.9774 104.33 58.0119 104.309 58.0525 104.307C59.562 104.364 60.7782 105.591 60.7782 107.116L60.7783 107.116ZM80.8851 107.116C80.8851 108.676 79.6159 109.946 78.0551 109.946C76.4945 109.946 75.2252 108.676 75.2252 107.116C75.2252 105.596 76.4352 104.373 77.9394 104.309C77.9756 104.311 78.0065 104.33 78.0436 104.33C78.0842 104.33 78.1187 104.309 78.1593 104.307C79.6687 104.364 80.885 105.591 80.885 107.116L80.8851 107.116ZM75.2245 7.60823C75.2245 6.04757 76.4937 4.77828 78.0545 4.77828C79.6152 4.77828 80.8844 6.04748 80.8844 7.60823C80.8844 9.13093 79.67 10.3568 78.1614 10.4169C78.1199 10.4152 78.0846 10.3931 78.0431 10.3931C78.0051 10.3931 77.9742 10.4125 77.9362 10.4143C76.4338 10.3489 75.2247 9.12742 75.2247 7.60829L75.2245 7.60823ZM55.1186 7.60823C55.1186 6.04757 56.3878 4.77828 57.9486 4.77828C59.5093 4.77828 60.7785 6.04748 60.7785 7.60823C60.7785 9.13093 59.5641 10.3568 58.0555 10.4169C58.014 10.4152 57.9787 10.3931 57.9372 10.3931C57.8992 10.3931 57.8683 10.4125 57.8303 10.4143C56.327 10.3489 55.1188 9.12742 55.1188 7.60829L55.1186 7.60823ZM35.0118 7.60823C35.0118 6.04757 36.281 4.77828 37.8418 4.77828C39.4024 4.77828 40.6717 6.04748 40.6717 7.60823C40.6717 9.13093 39.4573 10.3568 37.9487 10.4169C37.9072 10.4152 37.8719 10.3931 37.8304 10.3931C37.7924 10.3931 37.7615 10.4125 37.7235 10.4143C36.2211 10.3489 35.012 9.12742 35.012 7.60829L35.0118 7.60823ZM34.7627 36.3736C34.7627 35.1618 35.7493 34.1761 36.9602 34.1761H78.937C80.1479 34.1761 81.1345 35.1618 81.1345 36.3736V78.3503C81.1345 79.5621 80.1479 80.5478 78.937 80.5478H36.9602C35.7493 80.5478 34.7627 79.5621 34.7627 78.3503V36.3736ZM8.19291 40.0858C6.63225 40.0858 5.36296 38.8157 5.36296 37.2549C5.36296 35.6943 6.63216 34.425 8.19291 34.425C9.71296 34.425 10.9363 35.6359 10.9998 37.1401C10.998 37.1763 10.9786 37.2072 10.9786 37.2443C10.9786 37.2849 10.9998 37.3194 11.0016 37.3591C10.9442 38.8686 9.71647 40.0857 8.19287 40.0857L8.19291 40.0858ZM8.19291 60.1917C6.63225 60.1917 5.36296 58.9225 5.36296 57.3617C5.36296 55.801 6.63216 54.5318 8.19291 54.5318C9.71296 54.5318 10.9354 55.7418 10.9998 57.246C10.998 57.2822 10.9786 57.3131 10.9786 57.3502C10.9786 57.3908 10.9998 57.4253 11.0016 57.4659C10.9442 58.9753 9.71735 60.1916 8.19287 60.1916L8.19291 60.1917Z" fill="#FF2145"/>
</svg>
