<svg width="65" height="65" viewBox="0 0 65 65" fill="none" xmlns="http://www.w3.org/2000/svg">
<path d="M19.8504 46.8457C19.1871 44.969 18.8262 42.9495 18.8262 40.8457V38.8457C18.8262 29.8774 25.385 22.4409 33.9676 21.0714C31.7666 18.4858 28.4879 16.8457 24.8262 16.8457H16.8262C10.1988 16.8457 4.82617 22.2183 4.82617 28.8457V46.8457H19.8504Z" fill="#FF2145"/>
<path d="M44.8262 8.8457C39.3033 8.8457 34.8262 13.3229 34.8262 18.8457V20.9556C35.4828 20.883 36.1502 20.8457 36.8262 20.8457H40.8262C48.6635 20.8457 55.3309 25.8545 57.8019 32.8457H60.8262V18.8457C60.8262 13.3229 56.349 8.8457 50.8262 8.8457H44.8262Z" fill="white"/>
<path d="M20.8262 38.8457C20.8262 30.0091 27.9896 22.8457 36.8262 22.8457H40.8262C49.6627 22.8457 56.8262 30.0091 56.8262 38.8457V56.8457H36.8262C27.9896 56.8457 20.8262 49.6823 20.8262 40.8457V38.8457Z" fill="white"/>
</svg>
