<svg width="113" height="135" viewBox="0 0 113 135" fill="none" xmlns="http://www.w3.org/2000/svg">
<path d="M41.7213 78.8194C41.7213 74.154 39.8679 69.6803 36.5701 66.3817C33.2713 63.0838 28.7975 61.2305 24.1324 61.2305C19.4673 61.2305 14.9933 63.0839 11.6947 66.3817C8.39578 69.6805 6.54248 74.1543 6.54248 78.8194C6.54248 83.4845 8.39587 87.9585 11.6947 91.2571C14.9934 94.5558 19.4673 96.4093 24.1324 96.4093C28.7958 96.4055 33.2676 94.5511 36.5655 91.2532C39.8634 87.9553 41.7176 83.4836 41.7216 78.8192L41.7213 78.8194ZM14.8199 78.8194C14.8199 76.3502 15.8005 73.9808 17.547 72.2352C19.2935 70.4886 21.6618 69.5071 24.1319 69.5071C26.6011 69.5071 28.9705 70.4887 30.7161 72.2352C32.4627 73.9808 33.4442 76.35 33.4442 78.8194C33.4442 81.2896 32.4626 83.658 30.7161 85.4044C28.9705 87.15 26.6013 88.1314 24.1319 88.1314C21.6627 88.1276 19.2963 87.1451 17.5507 85.4004C15.806 83.6548 14.8236 81.2876 14.8196 78.8192L14.8199 78.8194Z" fill="#FF2145"/>
<path d="M100.089 0.52832H49.0453C45.7524 0.52832 42.5939 1.83706 40.2652 4.16495C37.9373 6.49372 36.6285 9.65191 36.6285 12.9451V45.7097C36.6285 49.0027 37.9373 52.1602 40.2652 54.4889C42.5939 56.8177 45.7521 58.1256 49.0453 58.1256H70.4288V68.6657H70.4278C68.5956 69.2642 66.9597 70.3516 65.6982 71.8096C64.4366 73.2685 63.5965 75.0429 63.2683 76.9426L60.4681 93.4838L43.9136 100.547H15.327C11.3027 100.547 7.44284 102.146 4.59725 104.992C1.75067 107.839 0.152344 111.698 0.152344 115.723V130.553C0.152344 132.032 0.941429 133.398 2.22129 134.138C3.50212 134.877 5.07945 134.877 6.36023 134.138C7.641 133.398 8.42918 132.032 8.42918 130.553V115.723C8.42918 113.893 9.15668 112.139 10.45 110.845C11.7434 109.551 13.4976 108.825 15.327 108.825H44.8226C45.3817 108.826 45.936 108.713 46.4498 108.494L63.6944 101.099C66.2744 99.9938 68.1171 97.6572 68.5926 94.8917L71.4207 78.3372V78.3362C71.5689 77.4258 72.2357 76.6858 73.1268 76.4424C74.017 76.1989 74.9678 76.4972 75.5586 77.2055C76.0118 77.729 76.2091 78.4257 76.0965 79.1089L72.4271 101.692C72.2212 102.97 71.4302 104.077 70.2889 104.686L42.8627 119.309C42.1997 119.662 41.6454 120.19 41.2595 120.833C40.8726 121.477 40.6686 122.214 40.6696 122.965V130.553C40.6696 132.032 41.4577 133.398 42.7385 134.137C44.0194 134.876 45.5967 134.876 46.8775 134.137C48.1583 133.398 48.9464 132.032 48.9464 130.553V125.449L74.1801 111.997C77.5933 110.166 79.9637 106.853 80.5948 103.031L84.2371 80.4609C84.5874 78.2755 84.2429 76.0352 83.2527 74.0548C82.2635 72.0753 80.6776 70.4558 78.7184 69.4241V58.1257H100.102C103.395 58.1257 106.553 56.818 108.882 54.4891C111.21 52.1603 112.519 49.0029 112.519 45.7099V12.9453C112.519 9.64937 111.208 6.48919 108.876 4.16044C106.546 1.83166 103.383 0.525781 100.089 0.528738L100.089 0.52832ZM104.228 45.709V45.71C104.228 46.807 103.791 47.8598 103.016 48.6364C102.239 49.412 101.186 49.8489 100.089 49.8489H78.7057V43.9855C78.7057 42.5064 77.9166 41.1399 76.6368 40.4008C75.3559 39.6618 73.7779 39.6618 72.4978 40.4008C71.217 41.1399 70.4279 42.5064 70.4279 43.9855V49.8489H49.0454C47.9475 49.8489 46.8947 49.412 46.1181 48.6364C45.3424 47.8598 44.9065 46.807 44.9065 45.71V12.9453C44.9065 11.8474 45.3424 10.7946 46.1181 10.019C46.8946 9.24238 47.9474 8.80644 49.0454 8.80644H100.089C101.186 8.80644 102.239 9.24236 103.016 10.019C103.791 10.7946 104.228 11.8473 104.228 12.9453L104.228 45.709Z" fill="#FF2145"/>
<path d="M56.9088 24.3265H70.36C71.8381 24.3265 73.2046 23.5374 73.9437 22.2576C74.6837 20.9767 74.6837 19.3987 73.9437 18.1186C73.2046 16.8378 71.8382 16.0487 70.36 16.0487H56.9088C55.4307 16.0487 54.0642 16.8378 53.3252 18.1186C52.5851 19.3985 52.5851 20.9768 53.3252 22.2576C54.0642 23.5374 55.4307 24.3265 56.9088 24.3265Z" fill="#FF2145"/>
<path d="M89.6734 29.845H56.9088C55.4307 29.845 54.0642 30.6341 53.3252 31.9149C52.5851 33.1947 52.5851 34.773 53.3252 36.0538C54.0642 37.3337 55.4307 38.1228 56.9088 38.1228H89.6734C91.1525 38.1228 92.518 37.3337 93.2581 36.0538C93.9971 34.773 93.9971 33.1949 93.2581 31.9149C92.5181 30.6341 91.1525 29.845 89.6734 29.845Z" fill="#FF2145"/>
</svg>
