<svg width="65" height="65" viewBox="0 0 65 65" fill="none" xmlns="http://www.w3.org/2000/svg">
<path d="M30.2285 41.8457C30.2285 45.7117 27.0945 48.8457 23.2285 48.8457C19.3625 48.8457 16.2285 45.7117 16.2285 41.8457C16.2285 37.9797 19.3625 34.8457 23.2285 34.8457C27.0945 34.8457 30.2285 37.9797 30.2285 41.8457Z" fill="#FF2145"/>
<path d="M48.2285 41.8457C48.2285 45.7117 45.0945 48.8457 41.2285 48.8457C37.3625 48.8457 34.2285 45.7117 34.2285 41.8457C34.2285 37.9797 37.3625 34.8457 41.2285 34.8457C45.0945 34.8457 48.2285 37.9797 48.2285 41.8457Z" fill="#FF2145"/>
<path d="M4.22852 27.8457C4.22852 26.1888 5.57166 24.8457 7.22852 24.8457H57.2285C58.8854 24.8457 60.2285 26.1888 60.2285 27.8457C60.2285 29.5026 58.8854 30.8457 57.2285 30.8457H7.22851C5.57166 30.8457 4.22852 29.5026 4.22852 27.8457Z" fill="white"/>
<path d="M20.2285 6.8457C19.1239 6.8457 18.2285 7.74113 18.2285 8.8457V22.8457H46.2285V8.8457C46.2285 7.74113 45.3331 6.8457 44.2285 6.8457H20.2285Z" fill="white"/>
<path d="M24.2285 56.8457C24.2285 55.7411 25.1239 54.8457 26.2285 54.8457H38.2285C39.3331 54.8457 40.2285 55.7411 40.2285 56.8457C40.2285 57.9503 39.3331 58.8457 38.2285 58.8457H26.2285C25.1239 58.8457 24.2285 57.9503 24.2285 56.8457Z" fill="white"/>
</svg>
