<svg width="65" height="65" viewBox="0 0 65 65" fill="none" xmlns="http://www.w3.org/2000/svg">
<path fill-rule="evenodd" clip-rule="evenodd" d="M32.3125 60.8457C46.6719 60.8457 58.3125 48.3097 58.3125 32.8457C58.3125 17.3817 46.6719 4.8457 32.3125 4.8457C17.9531 4.8457 6.3125 17.3817 6.3125 32.8457C6.3125 48.3097 17.9531 60.8457 32.3125 60.8457ZM30.3125 54.8457C41.3582 54.8457 50.3125 44.996 50.3125 32.8457C50.3125 20.6954 41.3582 10.8457 30.3125 10.8457C19.2668 10.8457 10.3125 20.6954 10.3125 32.8457C10.3125 44.996 19.2668 54.8457 30.3125 54.8457Z" fill="#FF2145"/>
<path fill-rule="evenodd" clip-rule="evenodd" d="M30.3125 52.8457C40.2536 52.8457 48.3125 43.8914 48.3125 32.8457C48.3125 21.8 40.2536 12.8457 30.3125 12.8457C20.3714 12.8457 12.3125 21.8 12.3125 32.8457C12.3125 43.8914 20.3714 52.8457 30.3125 52.8457ZM28.3125 44.8457C33.8353 44.8457 38.3125 39.4731 38.3125 32.8457C38.3125 26.2183 33.8353 20.8457 28.3125 20.8457C22.7897 20.8457 18.3125 26.2183 18.3125 32.8457C18.3125 39.4731 22.7897 44.8457 28.3125 44.8457Z" fill="white"/>
<path d="M36.3125 32.8457C36.3125 38.3686 32.7308 42.8457 28.3125 42.8457C23.8942 42.8457 20.3125 38.3686 20.3125 32.8457C20.3125 27.3229 23.8942 22.8457 28.3125 22.8457C32.7308 22.8457 36.3125 27.3229 36.3125 32.8457Z" fill="white"/>
</svg>
