<svg width="276" height="276" viewBox="0 0 276 276" fill="none" xmlns="http://www.w3.org/2000/svg">
<path d="M259.461 132.354C256.794 154.916 246.506 181.149 225.92 193.202C194.829 211.414 197.431 239.422 136.75 251.605C127.901 253.425 118.881 254.275 109.848 254.142C105.427 254.065 101.015 253.705 96.6399 253.062C58.0789 247.427 32.1215 220.622 22.6 188.29C10.0882 145.686 35.0956 117.845 51.6827 101.058C68.2697 84.2717 80.4091 31.9683 139.967 19.5536C149.053 17.6215 158.332 16.7413 167.619 16.9304C188.811 17.4701 211.923 24.4061 227.917 38.9313C229.122 40.0108 230.292 41.1389 231.425 42.3156C253.653 65.11 263.099 101.593 259.461 132.354Z" fill="#101010"/>
<path d="M238.795 92.8395C239.554 91.5809 240.012 90.1648 240.132 88.7013C240.252 87.2379 240.032 85.7665 239.489 84.4016C238.945 83.0367 238.093 81.8151 236.999 80.8317C235.905 79.8483 234.597 79.1296 233.179 78.7316C231.76 78.3335 230.269 78.2668 228.82 78.5366C227.372 78.8064 226.005 79.4055 224.827 80.2872C223.648 81.1689 222.69 82.3096 222.026 83.6205C221.362 84.9314 221.011 86.3772 220.999 87.8455V87.8895C220.999 88.61 221.164 89.2205 221.231 90.018L222.213 99.17C222.242 99.4354 222.333 99.6905 222.477 99.9152C222.622 100.14 222.817 100.328 223.047 100.465C223.277 100.602 223.536 100.684 223.803 100.705C224.07 100.725 224.338 100.684 224.587 100.583L233.005 97.1845C233.734 96.937 234.449 96.6488 235.147 96.321H235.18C236.676 95.5036 237.924 94.3013 238.795 92.8395ZM228.429 91.503C227.712 91.0755 227.139 90.4459 226.781 89.6936C226.424 88.9414 226.298 88.1005 226.42 87.2771C226.542 86.4538 226.907 85.6851 227.468 85.0682C228.029 84.4513 228.76 84.014 229.571 83.8116C230.381 83.6092 231.233 83.6508 232.02 83.9311C232.806 84.2114 233.492 84.7178 233.989 85.3863C234.487 86.0548 234.774 86.8554 234.815 87.6867C234.856 88.518 234.649 89.3427 234.219 90.0565C233.643 91.0119 232.709 91.7007 231.624 91.9718C230.539 92.2429 229.39 92.0744 228.429 91.503Z" fill="#EBEBEB"/>
<path d="M102.116 101.84L81.2759 106.466L95.9891 172.266L116.829 167.64L102.116 101.84Z" fill="#F5F5F5"/>
<path d="M102.116 101.845L91.696 104.158L106.37 169.781L116.79 167.468L102.116 101.845Z" fill="#EBEBEB"/>
<path d="M89.5725 97.8464L82.2126 99.4802L83.6567 105.938L91.0166 104.305L89.5725 97.8464Z" fill="#F5F5F5"/>
<path d="M89.5712 97.8494L87.8147 98.2393L89.2588 104.697L91.0152 104.307L89.5712 97.8494Z" fill="#EBEBEB"/>
<path d="M79.5433 106.843L79.4604 106.469L102.644 101.321L102.727 101.695" fill="#E0E0E0"/>
<path d="M87.778 107.982L86.0161 108.374L86.8444 112.078L88.6062 111.687L87.778 107.982Z" fill="#FAFAFA"/>
<path d="M93.4867 112.15C93.4867 112.189 91.1683 112.739 88.2924 113.377C85.4165 114.015 83.076 114.477 83.065 114.477C83.0539 114.477 85.3834 113.888 88.2593 113.25C91.1352 112.612 93.4757 112.084 93.4867 112.15Z" fill="#E0E0E0"/>
<path d="M98.3025 105.625L96.5408 106.016L97.3697 109.72L99.1315 109.329L98.3025 105.625Z" fill="#E0E0E0"/>
<path d="M103.997 109.791C103.997 109.829 101.678 110.379 98.8024 111.017C95.9265 111.655 93.586 112.145 93.575 112.117C93.564 112.09 95.8934 111.529 98.7693 110.891C101.645 110.253 103.986 109.752 103.997 109.791Z" fill="#E0E0E0"/>
<path d="M99.9478 112.984L98.186 113.376L99.015 117.08L100.777 116.688L99.9478 112.984Z" fill="#E0E0E0"/>
<path d="M105.642 117.15C105.642 117.188 103.323 117.738 100.447 118.376C97.5715 119.014 95.231 119.476 95.22 119.476C95.209 119.476 97.5384 118.888 100.414 118.25C103.29 117.612 105.631 117.1 105.642 117.15Z" fill="#E0E0E0"/>
<path d="M101.645 120.563L99.8833 120.954L100.712 124.658L102.474 124.267L101.645 120.563Z" fill="#E0E0E0"/>
<path d="M107.336 124.728C107.336 124.767 105.018 125.317 102.142 125.955C99.2661 126.593 96.9256 127.055 96.9146 127.055C96.9035 127.055 99.233 126.467 102.109 125.828C104.985 125.19 107.325 124.684 107.336 124.728Z" fill="#E0E0E0"/>
<path d="M103.343 128.143L101.581 128.534L102.41 132.238L104.172 131.847L103.343 128.143Z" fill="#E0E0E0"/>
<path d="M109.031 132.308C109.031 132.346 106.713 132.896 103.837 133.534C100.961 134.172 98.6202 134.634 98.6092 134.634C98.5981 134.634 100.928 134.045 103.803 133.407C106.679 132.769 109.02 132.269 109.031 132.308Z" fill="#E0E0E0"/>
<path d="M104.97 135.531L103.208 135.922L104.037 139.626L105.798 139.235L104.97 135.531Z" fill="#E0E0E0"/>
<path d="M110.676 139.65C110.676 139.689 108.363 140.239 105.482 140.877C102.6 141.515 100.265 142.004 100.26 141.977C100.254 141.949 102.573 141.388 105.454 140.75C108.336 140.112 110.67 139.65 110.676 139.65Z" fill="#E0E0E0"/>
<path d="M106.647 142.897L104.885 143.288L105.714 146.992L107.476 146.601L106.647 142.897Z" fill="#E0E0E0"/>
<path d="M108.299 150.409L106.537 150.8L107.365 154.504L109.127 154.113L108.299 150.409Z" fill="#E0E0E0"/>
<path d="M112.332 147.059C112.332 147.097 110.014 147.647 107.138 148.291C104.262 148.934 101.921 149.391 101.91 149.391C101.899 149.391 104.229 148.802 107.105 148.164C109.98 147.526 112.321 147.02 112.332 147.059Z" fill="#E0E0E0"/>
<path d="M89.4673 115.435L87.7056 115.826L88.5345 119.53L90.2963 119.139L89.4673 115.435Z" fill="#FAFAFA"/>
<path d="M95.1538 119.591C95.1538 119.63 92.8409 120.18 89.9595 120.818C87.078 121.456 84.7431 121.945 84.7376 121.918C84.732 121.89 87.0504 121.329 89.9319 120.691C92.8133 120.053 95.1483 119.553 95.1538 119.591Z" fill="#E0E0E0"/>
<path d="M91.1358 122.901L89.374 123.293L90.2029 126.997L91.9647 126.605L91.1358 122.901Z" fill="#FAFAFA"/>
<path d="M96.8263 127.061C96.8263 127.099 94.5079 127.649 91.632 128.293C88.7561 128.936 86.4156 129.393 86.4046 129.393C86.3935 129.393 88.723 128.804 91.5989 128.166C94.4748 127.528 96.8153 127 96.8263 127.061Z" fill="#E0E0E0"/>
<path d="M92.8045 130.374L91.0427 130.766L91.8716 134.47L93.6334 134.079L92.8045 130.374Z" fill="#FAFAFA"/>
<path d="M98.4989 134.535C98.4989 134.574 96.1805 135.124 93.3046 135.762C90.4287 136.4 88.0882 136.862 88.0772 136.862C88.0661 136.862 90.3956 136.273 93.2715 135.635C96.1474 134.997 98.4879 134.491 98.4989 134.535Z" fill="#E0E0E0"/>
<path d="M94.4642 137.856L92.7024 138.248L93.5307 141.952L95.2925 141.561L94.4642 137.856Z" fill="#FAFAFA"/>
<path d="M100.166 142.004C100.166 142.043 97.8531 142.593 94.9772 143.231C92.1013 143.869 89.7553 144.331 89.7498 144.331C89.7442 144.331 92.0626 143.742 94.9441 143.104C97.8255 142.466 100.16 141.966 100.166 142.004Z" fill="#E0E0E0"/>
<path d="M96.1529 145.307L94.3911 145.698L95.22 149.402L96.9818 149.011L96.1529 145.307Z" fill="#FAFAFA"/>
<path d="M101.838 149.473C101.838 149.512 99.52 150.062 96.6441 150.7C93.7681 151.338 91.4276 151.827 91.4221 151.8C91.4166 151.772 93.735 151.211 96.6109 150.573C99.4869 149.935 101.827 149.435 101.838 149.473Z" fill="#E0E0E0"/>
<path d="M97.8216 152.78L96.0598 153.171L96.8887 156.875L98.6505 156.484L97.8216 152.78Z" fill="#FAFAFA"/>
<path d="M135.797 131.922L104.773 134.882L108.692 175.654L139.716 172.694L135.797 131.922Z" fill="#EBEBEB"/>
<path d="M135.8 131.918L121.255 133.305L125.173 174.077L139.718 172.69L135.8 131.918Z" fill="#E0E0E0"/>
<path d="M114.604 139.512L111.812 139.779L112.461 146.529L115.252 146.263L114.604 139.512Z" fill="#F5F5F5"/>
<path d="M117.143 165.947L114.352 166.213L115 172.964L117.792 172.697L117.143 165.947Z" fill="#F5F5F5"/>
<path d="M122.687 148.23C122.687 148.307 119.011 148.72 114.463 149.154C109.914 149.589 106.221 149.88 106.183 149.803C106.144 149.726 109.859 149.314 114.407 148.879C118.956 148.445 122.682 148.153 122.687 148.23Z" fill="#F5F5F5"/>
<path d="M115.883 152.828L113.091 153.094L113.74 159.845L116.531 159.578L115.883 152.828Z" fill="#F5F5F5"/>
<path d="M123.968 161.546C123.968 161.623 120.292 162.035 115.743 162.47C111.195 162.904 107.496 163.196 107.463 163.119C107.43 163.042 111.14 162.629 115.688 162.195C120.237 161.76 123.963 161.469 123.968 161.546Z" fill="#F5F5F5"/>
<path d="M127.668 138.267L124.876 138.533L125.525 145.284L128.316 145.017L127.668 138.267Z" fill="#F5F5F5"/>
<path d="M133.712 137.695L130.921 137.961L131.569 144.712L134.361 144.445L133.712 137.695Z" fill="#F5F5F5"/>
<path d="M128.893 151.082L126.102 151.349L126.75 158.099L129.542 157.833L128.893 151.082Z" fill="#F5F5F5"/>
<path d="M134.948 150.499L132.157 150.766L132.806 157.516L135.597 157.25L134.948 150.499Z" fill="#F5F5F5"/>
<path d="M130.124 163.898L127.333 164.164L127.982 170.915L130.773 170.649L130.124 163.898Z" fill="#F5F5F5"/>
<path d="M136.18 163.314L133.388 163.581L134.037 170.331L136.829 170.065L136.18 163.314Z" fill="#F5F5F5"/>
<path d="M137.993 130.281L102.304 133.686L102.446 135.159L138.135 131.753L137.993 130.281Z" fill="#E0E0E0"/>
<path d="M136.035 132.088C136.035 132.165 129.118 132.885 120.579 133.699C112.039 134.513 105.084 135.118 105.079 135.041C105.073 134.964 112.001 134.244 120.535 133.43C129.069 132.616 136.029 132.011 136.035 132.088Z" fill="#EBEBEB"/>
<path d="M108.589 176.841L79.8523 189.496L59.6602 144.303L88.3918 131.647L108.589 176.841Z" fill="#EBEBEB"/>
<path d="M88.3871 131.652L74.0176 137.979L94.0863 183.23L108.456 176.904L88.3871 131.652Z" fill="#E0E0E0"/>
<path d="M69.1317 129.488L58.9832 133.957L62.9344 142.866L73.083 138.398L69.1317 129.488Z" fill="#EBEBEB"/>
<path d="M69.1331 129.487L66.7146 130.552L70.6659 139.461L73.0844 138.396L69.1331 129.487Z" fill="#E0E0E0"/>
<path d="M89.0014 130.766L57.031 144.842L57.2608 145.36L89.2312 131.284L89.0014 130.766Z" fill="#E0E0E0"/>
<path d="M69.4766 144.625L67.043 145.696L69.3098 150.808L71.7434 149.736L69.4766 144.625Z" fill="white"/>
<path d="M78.903 149C78.9306 149.055 75.7289 150.518 71.7656 152.262C67.8022 154.005 64.5896 155.386 64.5344 155.331C64.4792 155.276 67.7084 153.818 71.6773 152.069C75.6462 150.32 78.8809 148.923 78.903 149Z" fill="#E0E0E0"/>
<path d="M83.9732 138.245L81.5396 139.316L83.8063 144.427L86.24 143.356L83.9732 138.245Z" fill="#F5F5F5"/>
<path d="M93.3984 142.592C93.3984 142.647 90.2244 144.105 86.2555 145.854C82.2867 147.603 79.0795 148.972 79.0299 148.917C78.9802 148.862 82.2039 147.405 86.1727 145.656C90.1416 143.907 93.3708 142.537 93.3984 142.592Z" fill="#EBEBEB"/>
<path d="M88.4703 148.386L86.0366 149.457L88.3034 154.569L90.737 153.497L88.4703 148.386Z" fill="#F5F5F5"/>
<path d="M97.8972 152.74C97.8972 152.795 94.7232 154.253 90.7543 156.002C86.7854 157.751 83.5783 159.12 83.5286 159.065C83.479 159.01 86.7026 157.553 90.6715 155.804C94.6404 154.055 97.8751 152.685 97.8972 152.74Z" fill="#EBEBEB"/>
<path d="M93.1106 158.843L90.677 159.914L92.9438 165.025L95.3774 163.954L93.1106 158.843Z" fill="#F5F5F5"/>
<path d="M102.534 163.19C102.534 163.245 99.3599 164.703 95.3911 166.452C91.4222 168.201 88.1875 169.57 88.1654 169.515C88.1433 169.46 91.3394 168.003 95.3083 166.254C99.2771 164.505 102.506 163.135 102.534 163.19Z" fill="#EBEBEB"/>
<path d="M97.7386 169.297L95.3049 170.369L97.5717 175.48L100.005 174.408L97.7386 169.297Z" fill="#F5F5F5"/>
<path d="M107.171 173.64C107.171 173.695 103.997 175.158 100.028 176.902C96.0589 178.645 92.8242 180.02 92.8021 179.97C92.78 179.921 95.9761 178.452 99.945 176.709C103.914 174.966 107.143 173.585 107.171 173.64Z" fill="#EBEBEB"/>
<path d="M74.0493 154.924L71.6157 155.995L73.8825 161.106L76.3161 160.035L74.0493 154.924Z" fill="white"/>
<path d="M83.4734 159.274C83.4734 159.329 80.2994 160.787 76.3305 162.536C72.3616 164.285 69.1545 165.654 69.1048 165.605C69.0551 165.555 72.2788 164.087 76.2477 162.343C80.2166 160.6 83.4513 159.219 83.4734 159.274Z" fill="#E0E0E0"/>
<path d="M78.6114 165.23L76.1777 166.302L78.4445 171.413L80.8782 170.341L78.6114 165.23Z" fill="white"/>
<path d="M88.044 169.576C88.044 169.631 84.87 171.088 80.9011 172.837C76.9322 174.586 73.6975 175.956 73.6754 175.901C73.6533 175.846 76.8494 174.388 80.8128 172.639C84.7761 170.89 88.0164 169.521 88.044 169.576Z" fill="#E0E0E0"/>
<path d="M83.1841 175.535L80.7505 176.606L83.0173 181.717L85.4509 180.646L83.1841 175.535Z" fill="white"/>
<path d="M92.609 179.877C92.609 179.932 89.4405 181.39 85.4716 183.139C81.5028 184.888 78.268 186.257 78.246 186.202C78.2239 186.147 81.4144 184.69 85.3833 182.941C89.3522 181.192 92.5869 179.8 92.609 179.877Z" fill="#E0E0E0"/>
<path d="M212.332 166.21L200.558 179.96C200.497 180.03 200.451 180.112 200.422 180.2C200.393 180.288 200.382 180.381 200.389 180.473C200.396 180.566 200.422 180.656 200.464 180.739C200.506 180.821 200.565 180.895 200.635 180.955L229.632 205.568C229.703 205.629 229.786 205.675 229.875 205.704C229.964 205.733 230.058 205.744 230.152 205.736C230.245 205.729 230.336 205.702 230.42 205.659C230.503 205.616 230.577 205.557 230.637 205.485L234.882 200.387C234.975 200.27 235.031 200.128 235.042 199.98L235.621 190.921C235.629 190.813 235.611 190.704 235.568 190.604C235.526 190.504 235.461 190.414 235.378 190.344L230.62 186.241C230.479 186.119 230.393 185.946 230.379 185.76C230.366 185.575 230.427 185.392 230.548 185.251L232.326 183.166C232.386 183.096 232.433 183.015 232.461 182.927C232.49 182.84 232.502 182.747 232.494 182.655C232.487 182.563 232.462 182.473 232.42 182.391C232.377 182.309 232.319 182.236 232.249 182.176L213.359 166.133C213.288 166.068 213.204 166.018 213.113 165.987C213.022 165.955 212.925 165.943 212.829 165.95C212.733 165.957 212.639 165.984 212.554 166.029C212.468 166.073 212.393 166.135 212.332 166.21Z" fill="#F5F5F5"/>
<path d="M230.377 188.133L226.602 192.532C226.536 192.613 226.505 192.715 226.514 192.818C226.524 192.92 226.573 193.015 226.651 193.082L233.143 198.401C233.2 198.447 233.268 198.476 233.34 198.487C233.412 198.498 233.486 198.489 233.554 198.461C233.621 198.434 233.68 198.389 233.725 198.331C233.769 198.273 233.797 198.204 233.805 198.131L234.6 191.235C234.608 191.168 234.598 191.1 234.573 191.038C234.548 190.975 234.508 190.92 234.456 190.877L230.968 188.078C230.926 188.04 230.878 188.012 230.825 187.995C230.772 187.977 230.716 187.971 230.66 187.976C230.605 187.981 230.551 187.998 230.502 188.025C230.454 188.052 230.411 188.088 230.377 188.133Z" fill="#EBEBEB"/>
<path d="M230.375 206.93L199.169 180.43L198.349 181.389L229.555 207.889L230.375 206.93Z" fill="#F5F5F5"/>
<path d="M209.164 189.568C208.644 190.177 207.954 190.618 207.182 190.836C206.41 191.055 205.59 191.04 204.827 190.794C204.063 190.548 203.39 190.082 202.892 189.455C202.394 188.827 202.095 188.067 202.031 187.27C201.966 186.473 202.141 185.675 202.532 184.977C202.923 184.279 203.513 183.712 204.228 183.348C204.943 182.984 205.749 182.839 206.546 182.932C207.343 183.025 208.095 183.351 208.706 183.87C209.112 184.214 209.446 184.634 209.689 185.107C209.932 185.579 210.079 186.095 210.121 186.624C210.164 187.154 210.101 187.686 209.937 188.191C209.773 188.696 209.51 189.164 209.164 189.568Z" fill="#EBEBEB"/>
<path d="M207.894 188.49C207.588 188.849 207.182 189.109 206.727 189.238C206.272 189.367 205.789 189.358 205.339 189.214C204.889 189.069 204.492 188.795 204.199 188.425C203.905 188.056 203.729 187.608 203.691 187.138C203.653 186.668 203.756 186.198 203.986 185.787C204.217 185.375 204.564 185.041 204.985 184.827C205.406 184.612 205.882 184.527 206.352 184.582C206.821 184.637 207.264 184.829 207.624 185.135C208.106 185.544 208.405 186.128 208.456 186.757C208.506 187.386 208.305 188.009 207.894 188.49Z" fill="#FAFAFA"/>
<path d="M220.038 197.45C219.961 197.384 222.743 194.007 226.248 189.909C229.753 185.812 232.657 182.545 232.734 182.611C232.811 182.677 230.035 186.054 226.53 190.151C223.025 194.249 220.121 197.516 220.038 197.45Z" fill="#EBEBEB"/>
<path d="M225.978 203.851C225.457 204.46 224.767 204.901 223.995 205.118C223.222 205.336 222.403 205.32 221.639 205.073C220.876 204.827 220.203 204.36 219.706 203.732C219.209 203.105 218.91 202.344 218.846 201.547C218.783 200.75 218.958 199.952 219.35 199.254C219.742 198.556 220.333 197.99 221.048 197.627C221.763 197.264 222.57 197.12 223.367 197.213C224.164 197.307 224.915 197.634 225.525 198.153C225.932 198.497 226.266 198.918 226.509 199.39C226.751 199.863 226.898 200.379 226.94 200.909C226.982 201.438 226.919 201.971 226.754 202.476C226.589 202.981 226.325 203.448 225.978 203.851Z" fill="#EBEBEB"/>
<path d="M224.708 202.773C224.402 203.13 223.996 203.388 223.542 203.515C223.088 203.642 222.607 203.632 222.159 203.487C221.711 203.341 221.316 203.067 221.024 202.698C220.732 202.329 220.557 201.882 220.52 201.414C220.483 200.946 220.586 200.477 220.816 200.067C221.046 199.658 221.393 199.325 221.813 199.111C222.233 198.898 222.707 198.813 223.175 198.868C223.643 198.922 224.084 199.114 224.443 199.418C224.682 199.621 224.879 199.869 225.021 200.147C225.164 200.426 225.25 200.73 225.275 201.041C225.299 201.353 225.262 201.666 225.165 201.964C225.068 202.261 224.912 202.536 224.708 202.773Z" fill="#FAFAFA"/>
<path d="M227.755 195.563C227.689 195.64 227.203 195.327 226.651 194.865C226.099 194.403 225.713 193.963 225.779 193.886C225.845 193.809 226.331 194.122 226.883 194.584C227.435 195.046 227.822 195.486 227.755 195.563Z" fill="#EBEBEB"/>
<path d="M39.192 162.47C38.3042 161.297 37.1568 160.344 35.8391 159.685C34.5213 159.026 33.0688 158.679 31.5945 158.671C30.1203 158.663 28.664 158.994 27.339 159.638C26.014 160.282 24.8561 161.223 23.9553 162.386C23.0546 163.548 22.4352 164.903 22.1456 166.343C21.8559 167.783 21.9036 169.271 22.2851 170.69C22.6666 172.109 23.3716 173.421 24.3451 174.524C25.3186 175.627 26.5345 176.492 27.8981 177.05H27.9422C28.6101 177.325 29.2449 177.397 30.0067 177.639L38.8939 180.152C39.1509 180.225 39.4214 180.238 39.6841 180.189C39.9469 180.141 40.1948 180.033 40.4086 179.873C40.6224 179.713 40.7962 179.506 40.9165 179.268C41.0368 179.031 41.1002 178.768 41.1019 178.502V169.449C41.1448 168.682 41.1448 167.912 41.1019 167.145V167.112C40.8922 165.422 40.2328 163.82 39.192 162.47ZM34.086 171.55C33.4205 172.051 32.6208 172.344 31.7881 172.393C30.9554 172.441 30.127 172.242 29.4077 171.821C28.6884 171.4 28.1105 170.776 27.7472 170.028C27.3838 169.28 27.2513 168.441 27.3663 167.618C27.4814 166.795 27.8388 166.024 28.3935 165.404C28.9482 164.783 29.6751 164.34 30.4825 164.131C31.2898 163.922 32.1412 163.956 32.929 164.229C33.7169 164.502 34.4057 165.002 34.9085 165.665C35.5825 166.554 35.8745 167.674 35.7203 168.777C35.566 169.881 34.9782 170.878 34.086 171.55Z" fill="#F5F5F5"/>
<path d="M66.792 48.8615C66.2162 46.9482 65.205 45.1931 63.8373 43.7326C62.4696 42.2722 60.7822 41.1458 58.9064 40.4411C57.0305 39.7364 55.0168 39.4724 53.0218 39.6697C51.0268 39.8669 49.1044 40.52 47.4041 41.5783C45.7038 42.6365 44.2714 44.0713 43.2184 45.7711C42.1654 47.4708 41.5202 49.3897 41.3329 51.3785C41.1456 53.3673 41.4213 55.3723 42.1385 57.2376C42.8558 59.1028 43.9952 60.7781 45.4683 62.133L45.518 62.1715C46.2411 62.8315 47.0139 63.2275 47.875 63.8875L58.0208 71.2685C58.3158 71.482 58.6566 71.6242 59.0163 71.6839C59.3759 71.7436 59.7446 71.7191 60.0931 71.6124C60.4417 71.5057 60.7605 71.3197 61.0245 71.0692C61.2885 70.8186 61.4904 70.5102 61.6143 70.1685L65.8868 58.6185C66.3091 57.6607 66.6776 56.6802 66.9908 55.6815V55.6375C67.5326 53.4017 67.464 51.0621 66.792 48.8615ZM55.9342 58.03C54.8483 58.3571 53.6895 58.3559 52.6044 58.0267C51.5192 57.6975 50.5563 57.055 49.8376 56.1806C49.1189 55.3061 48.6765 54.239 48.5666 53.114C48.4566 51.9891 48.6839 50.8569 49.2197 49.8607C49.7555 48.8645 50.5758 48.0489 51.5768 47.5172C52.5778 46.9855 53.7146 46.7616 54.8434 46.8736C55.9722 46.9857 57.0423 47.4287 57.9183 48.1468C58.7944 48.8648 59.4371 49.8256 59.7651 50.9075C60.2049 52.3582 60.0484 53.9235 59.3299 55.2592C58.6115 56.5949 57.3901 57.5916 55.9342 58.03Z" fill="#EBEBEB"/>
<path d="M135.268 40.4301C135.527 38.5711 132.888 37.0366 130.907 36.8771C129.963 36.8056 128.98 36.9486 128.086 36.6351C126.149 35.9641 125.37 33.4671 123.477 32.6696C122.064 32.0756 120.435 32.6036 119.061 33.2911C117.686 33.9786 116.334 34.8476 114.799 34.9411C113.469 35.0236 112.039 34.5341 110.853 35.1776C109.986 35.6616 109.528 36.6626 108.727 37.2511C107.899 37.759 106.94 38.0187 105.967 37.9991C104.992 37.9778 104.021 38.1363 103.103 38.4666C102.219 38.8681 101.485 39.8031 101.667 40.7546L135.268 40.4301Z" fill="#EBEBEB"/>
<path d="M57.546 113.388C57.3639 112.183 55.4429 111.71 54.1788 111.969C53.5973 112.167 52.9924 112.289 52.3793 112.332C51.049 112.266 50.1106 110.852 48.7858 110.682C47.7977 110.566 46.8759 111.193 46.1528 111.87C45.4296 112.546 44.7396 113.333 43.8012 113.674C42.9898 113.971 41.9962 113.927 41.389 114.543C40.9364 114.999 40.837 115.703 40.4451 116.22C40.0209 116.69 39.4684 117.026 38.8553 117.188C38.2441 117.351 37.6691 117.627 37.1607 118.002C36.9096 118.194 36.7276 118.461 36.642 118.765C36.5564 119.068 36.5718 119.391 36.686 119.685L57.546 113.388Z" fill="#F5F5F5"/>
<path d="M214.176 133.33C214.634 131.779 212.586 130.14 210.919 129.755C210.124 129.568 209.263 129.568 208.551 129.205C206.989 128.386 206.647 126.164 205.14 125.251C204.036 124.564 202.562 124.806 201.303 125.218C200.045 125.63 198.786 126.192 197.472 126.082C196.33 125.983 195.16 125.383 194.083 125.784C193.283 126.087 192.769 126.884 192.013 127.275C191.238 127.607 190.382 127.707 189.551 127.561C188.725 127.418 187.879 127.429 187.056 127.594C186.647 127.688 186.279 127.91 186.007 128.228C185.735 128.546 185.572 128.942 185.544 129.359L214.176 133.33Z" fill="#F5F5F5"/>
<path d="M191.395 256.057C191.301 254.776 192.383 253.637 193.575 253.087C194.768 252.537 196.109 252.35 197.334 251.855C197.82 251.652 198.361 251.305 198.378 250.788C198.378 250.018 197.301 249.688 197.02 248.99C196.722 248.181 197.572 247.433 197.914 246.641C198.676 244.843 196.777 243.028 194.933 242.291C193.09 241.554 190.893 241.026 190.037 239.266C189.724 238.419 189.523 237.535 189.441 236.637C189.01 234.437 187.354 232.27 185.086 231.901C182.817 231.533 180.261 233.551 180.631 235.751C180.857 236.983 181.785 237.951 182.287 239.051C182.789 240.151 182.662 241.878 181.47 242.247C179.516 242.835 177.634 239.31 175.994 240.52C176.668 242.78 177.319 245.035 177.987 247.312C175.42 248.599 172.345 246.267 171.247 243.622C170.148 240.976 170.11 237.99 168.807 235.454C167.504 232.919 163.983 231.016 161.747 232.814C161.637 236.081 166.014 237.401 167.952 240.047C169.348 241.955 169.144 245.057 167.074 246.267C165.004 247.477 161.769 245.371 162.547 243.149C162.829 242.379 163.48 241.735 163.552 240.905C163.629 239.882 162.752 239.051 161.951 238.391C160.704 237.346 159.456 236.318 158.209 235.289C157.442 234.567 156.537 234.005 155.548 233.639C152.976 232.902 150.409 234.959 149.046 237.22C147.682 239.48 146.926 242.17 145.044 244.045C142.344 246.795 137.222 246.966 134.688 244.084C132.154 241.202 133.44 235.834 137.183 234.761C138.602 234.376 140.385 234.409 141.135 233.177C142.438 230.977 138.712 228.227 139.998 226.027C140.981 224.339 143.592 225.109 145.491 224.537C147.39 223.965 148.433 222.095 149.548 220.483C150.663 218.872 152.38 217.271 154.317 217.689C154.168 216.589 154.019 215.363 154.521 214.351C155.024 213.339 156.442 212.662 157.37 213.322C156.42 214.868 157.557 217.013 159.213 217.783C160.869 218.553 162.807 218.371 164.634 218.168C166.461 217.964 168.752 217.288 168.901 215.489C168.956 214.901 168.73 214.279 168.956 213.729C169.757 211.579 173.781 214.532 175.326 212.811C176.22 211.909 175.232 210.314 173.985 210.017C172.737 209.72 171.468 210.165 170.204 210.204C168.94 210.242 167.388 209.599 167.333 208.35C167.278 207.102 168.675 206.238 168.824 205.05C169.067 202.993 165.512 202.46 164.281 204.132C163.05 205.804 163.48 208.097 163.85 210.132C164.22 212.167 164.43 214.576 162.901 216.006C162.249 216.98 160.555 216.468 159.997 215.456C159.44 214.444 159.55 213.179 159.445 212.024C159.34 210.869 158.832 209.527 157.679 209.214C156.878 208.994 156.023 209.379 155.2 209.489C151.96 209.874 149.708 205.743 150.729 202.696C151.75 199.649 154.676 197.669 157.53 196.096C159.616 194.958 162.205 193.896 164.27 195.051C165.236 195.601 165.926 196.498 166.859 197.053C168.515 198.005 170.529 197.658 172.406 197.691C175.381 197.772 178.238 198.865 180.504 200.788C181.343 201.541 182.121 202.79 181.47 203.692C180.819 204.594 178.738 204.847 179.091 205.969C181.299 206.684 183.91 205.012 184.153 202.757C184.691 202.995 185.156 203.372 185.499 203.848C185.843 204.325 186.052 204.884 186.107 205.468C188.475 203.103 193.018 203.45 194.939 206.189C195.458 206.904 195.833 207.767 196.595 208.262C197.357 208.757 198.643 208.499 198.737 207.635C198.753 207.358 198.702 207.08 198.588 206.827C198.14 205.578 197.677 204.352 197.23 203.12C198.957 202.201 201.005 203.637 202.198 205.177C206.553 210.924 209.666 207.47 215.81 208.405C219.966 209.032 221.788 211.656 224.134 214.829C231.31 224.597 240.821 232.6 247.357 242.808C248.047 243.869 248.682 244.953 249.278 246.053C249.167 245.778 249.073 245.503 248.958 245.228C246.402 238.599 243.223 232.225 239.463 226.192C238.663 224.911 237.84 223.64 237.007 222.392C236.482 221.622 235.941 220.835 235.4 220.082C234.716 219.092 233.987 218.135 233.259 217.183C232.707 216.408 232.105 215.66 231.509 214.923C231.1 214.411 230.67 213.894 230.245 213.383C229.82 212.871 229.312 212.228 228.793 211.656L227.225 209.874C227.076 209.692 226.911 209.511 226.723 209.324C226.171 208.702 225.619 208.097 225.028 207.492C224.988 207.418 224.932 207.354 224.863 207.305C224.714 207.14 224.548 206.975 224.377 206.81C223.913 206.299 223.411 205.798 222.925 205.303C222.125 204.5 221.302 203.692 220.469 202.922C219.779 202.24 219.072 201.596 218.344 200.953C217.709 200.403 217.08 199.82 216.428 199.264C215.777 198.709 215.159 198.164 214.507 197.653C213.723 196.993 212.923 196.349 212.106 195.706C209.854 193.924 207.534 192.241 205.145 190.657C204.549 190.255 203.97 189.87 203.373 189.485C202.777 189.1 202.164 188.71 201.568 188.347C200.972 187.984 200.359 187.593 199.741 187.247C199.123 186.9 198.516 186.515 197.898 186.147C197.395 185.85 196.915 185.597 196.407 185.316C196.162 185.162 195.907 185.023 195.645 184.898C194.586 184.31 193.504 183.738 192.422 183.21C191.87 182.935 191.345 182.66 190.766 182.401C190.081 182.049 189.369 181.719 188.663 181.411C188.563 181.352 188.457 181.302 188.348 181.263C187.713 180.966 187.084 180.674 186.427 180.399C185.516 180.014 184.605 179.629 183.667 179.261C182.624 178.837 181.58 178.419 180.515 178.029C179.345 177.589 178.169 177.171 176.977 176.786C175.784 176.401 174.576 175.994 173.367 175.625C172.158 175.257 170.943 174.927 169.712 174.597C167.295 173.959 164.838 173.387 162.36 172.892C162.315 172.882 162.271 172.869 162.227 172.853C161.278 172.672 160.328 172.49 159.379 172.342C159.318 172.323 159.255 172.31 159.191 172.303C158.783 172.232 158.358 172.16 157.927 172.105C156.155 171.808 154.372 171.555 152.562 171.368C152.346 171.333 152.129 171.309 151.91 171.297C151.392 171.22 150.867 171.187 150.326 171.132C149.139 171.022 147.947 170.928 146.733 170.857C145.518 170.785 144.221 170.708 142.951 170.67C141.682 170.631 140.307 170.598 138.988 170.598C135.488 170.598 132.024 170.751 128.594 171.055C127.777 171.11 126.977 171.187 126.176 171.275C125.376 171.363 124.52 171.462 123.659 171.572C122.798 171.682 122.003 171.792 121.164 171.918C120.325 172.045 119.508 172.177 118.669 172.325C117.962 172.435 117.234 172.562 116.527 172.71C114.777 173.04 113.044 173.403 111.333 173.81C110.532 173.992 109.732 174.195 108.932 174.415C108.131 174.635 107.325 174.839 106.547 175.059C105.222 175.427 103.936 175.829 102.655 176.23C101.612 176.582 100.552 176.929 99.5311 177.281C99.5025 177.284 99.4755 177.295 99.4538 177.314C98.394 177.682 97.3673 178.067 96.324 178.474L96.1584 178.529C95.209 178.892 94.2595 179.277 93.3266 179.668C92.1509 180.141 90.9972 180.658 89.8601 181.169C88.8941 181.609 87.9446 182.049 87.0118 182.511C86.0789 182.973 85.0025 183.501 84.0144 184.013L83.904 184.073C82.9546 184.568 82.0051 185.08 81.0722 185.613C80.1394 186.147 79.1568 186.713 78.2074 187.263C77.3131 187.813 76.441 188.325 75.5633 188.875C75.2266 189.078 74.9119 189.298 74.5752 189.518C73.6478 190.107 72.7536 190.712 71.8152 191.333C70.7112 192.087 69.6072 192.879 68.5418 193.665C67.5869 194.364 66.6595 195.079 65.7432 195.794C60.4809 199.937 55.5851 204.523 51.1097 209.5C49.5254 211.221 48.035 212.987 46.5833 214.785C45.3523 216.325 44.16 217.887 43.0229 219.504C43.321 219.466 43.6246 219.427 43.9171 219.411C45.5731 219.284 47.3671 219.339 48.8851 218.619C50.2817 217.942 51.2698 216.71 52.5338 215.83C55.7741 213.553 61.0843 213.13 61.9565 209.313C62.2546 208.031 61.9013 206.634 62.387 205.402C63.2978 203.109 66.4111 202.779 68.9062 202.817C69.966 202.817 71.2135 202.966 71.6993 203.879C72.0526 204.522 71.8483 205.331 71.5834 206.013C70.0156 210.34 66.9975 213.996 63.0384 216.364C59.7982 218.311 55.5698 219.812 54.6756 223.448C55.1227 224.68 57.397 224.586 57.5791 225.873C57.7116 226.896 56.3702 227.43 55.8845 228.348C55.1779 229.69 56.8008 231.324 58.3464 231.247C59.892 231.17 61.1782 230.075 62.3098 229.047C65.699 225.945 69.2594 222.601 70.4849 218.201C71.0369 216.38 71.197 214.252 72.6929 213.042C74.4648 211.606 77.6333 212.602 78.2129 214.785C79.6812 213.977 81.972 213.372 82.7338 214.879C82.9987 215.429 82.9214 216.034 83.0539 216.6C83.5342 218.949 86.7965 220.016 87.1332 222.381C87.5196 225.131 83.9647 226.533 81.1882 226.957C78.6766 227.342 76.1594 227.727 73.6478 228.128C72.5406 228.207 71.468 228.546 70.518 229.118C69.6238 229.778 69.0662 231.027 69.5851 232C69.9652 232.494 70.4046 232.939 70.8934 233.326C72.9799 235.377 71.2632 239.618 68.321 239.711C67.3164 239.75 66.3283 239.381 65.3237 239.343C62.3429 239.216 59.9803 241.801 58.5617 244.392C57.143 246.982 56.0832 249.936 53.7041 251.696C49.8401 254.539 43.2547 253.896 41.3945 258.252C40.6493 260.012 41.0357 261.992 41.3338 263.884C41.3834 264.181 41.4221 264.489 41.4607 264.797H123.322C125.028 264.12 126.877 263.62 128.334 262.542C131.691 260.067 132.138 255.348 134.252 251.784C136.366 248.22 142.968 246.718 143.962 250.75C150.961 235.988 166.428 257.9 175.624 256.25C178.296 255.771 180.901 254.506 183.59 254.88C188.221 255.518 190.666 260.43 192.284 264.78H196.148C195.706 263.251 195.728 261.568 194.828 260.27C193.752 258.774 191.544 257.9 191.395 256.057ZM128.964 190.525C128.241 192.175 128.566 194.254 127.457 195.695C126.574 196.833 125.045 197.24 123.631 197.57L114.733 199.655C113.399 199.898 112.11 200.339 110.908 200.964C108.578 202.339 107.336 204.935 105.537 206.937C103.737 208.939 100.514 210.374 98.3885 208.708C97.9064 208.274 97.5168 207.748 97.2428 207.162C96.9687 206.575 96.8158 205.939 96.7932 205.292C96.6323 203.431 97.0775 201.568 98.0628 199.979C99.073 198.329 100.624 197.07 101.48 195.359C102.335 193.649 102.164 191.135 100.376 190.332C99.4262 189.898 98.2284 190.068 97.3838 189.458C95.8658 188.358 96.9533 185.751 98.7142 185.091C100.475 184.431 102.435 184.948 104.317 185.063C111.134 185.492 116.152 181.092 121.28 177.435C125.271 174.591 133.766 171.231 138.392 174.135C140.23 175.295 140.953 178.276 139.22 179.585C138.442 180.168 137.371 180.3 136.648 180.949C135.781 181.73 135.66 183.006 135.163 184.057C133.888 186.774 130.162 187.764 128.964 190.525Z" fill="#455A64"/>
<g opacity="0.3">
<path opacity="0.3" d="M127.457 195.695C128.561 194.254 128.241 192.191 128.964 190.525C130.161 187.775 133.887 186.774 135.179 184.057C135.676 183.006 135.797 181.73 136.664 180.949C137.387 180.3 138.458 180.168 139.236 179.585C140.97 178.276 140.247 175.296 138.408 174.135C133.794 171.231 125.298 174.592 121.296 177.435C116.168 181.093 111.151 185.493 104.333 185.064C102.451 184.948 100.497 184.436 98.7306 185.091C96.9642 185.745 95.8823 188.352 97.4003 189.458C98.2448 190.068 99.4427 189.898 100.392 190.332C102.153 191.135 102.33 193.633 101.496 195.36C100.663 197.087 99.0894 198.351 98.0792 199.979C97.094 201.569 96.6488 203.432 96.8096 205.293C96.8323 205.939 96.9852 206.575 97.2592 207.162C97.5333 207.748 97.9229 208.274 98.4049 208.708C100.53 210.358 103.759 208.944 105.553 206.937C107.347 204.929 108.595 202.339 110.924 200.964C112.126 200.339 113.416 199.898 114.75 199.655L123.648 197.57C125.044 197.24 126.573 196.85 127.457 195.695Z" fill="black"/>
<path opacity="0.3" d="M183.59 254.886C180.901 254.512 178.296 255.777 175.624 256.256C166.428 257.906 150.961 235.972 143.962 250.756C142.984 246.741 136.366 248.253 134.252 251.817C132.138 255.381 131.691 260.1 128.334 262.575C126.877 263.675 125.022 264.154 123.322 264.83H192.284C190.666 260.436 188.232 255.524 183.59 254.886Z" fill="black"/>
<path opacity="0.3" d="M87.1275 222.392C86.7908 220.027 83.5285 218.96 83.0483 216.612C82.9158 216.062 82.9931 215.418 82.7281 214.89C81.9663 213.383 79.6755 213.988 78.2072 214.797C77.6111 212.597 74.4426 211.618 72.6872 213.053C71.2023 214.263 71.0312 216.392 70.4792 218.212C69.2538 222.612 65.6934 225.956 62.3041 229.058C61.2001 230.087 59.8864 231.187 58.3408 231.258C56.7952 231.33 55.1723 229.702 55.8788 228.36C56.3646 227.441 57.706 226.908 57.5735 225.885C57.3913 224.598 55.1171 224.691 54.67 223.459C55.5642 219.824 59.7925 218.322 63.0328 216.375C66.9918 214.007 70.0099 210.351 71.5777 206.024C71.8427 205.342 72.0469 204.534 71.6936 203.89C71.2079 202.977 69.9604 202.829 68.9005 202.829C66.4055 202.79 63.2922 203.12 62.3814 205.414C61.8956 206.646 62.2489 208.043 61.9508 209.324C61.0787 213.141 55.7684 213.565 52.5282 215.842C51.2641 216.722 50.276 217.954 48.8795 218.63C47.3725 219.351 45.6006 219.296 43.9115 219.422C43.6189 219.422 43.3153 219.477 43.0172 219.516C42.0016 220.905 41.0172 222.333 40.064 223.8C39.1109 225.267 38.1909 226.743 37.304 228.228C33.1002 235.317 29.6799 242.839 27.1031 250.662C26.1904 253.408 25.3845 256.197 24.6853 259.028C24.2143 260.934 23.7948 262.861 23.4268 264.808H23.9788C24.3486 263.532 24.6246 262.256 24.8564 261.145C24.9172 260.865 24.9724 260.595 25.0276 260.337C25.6458 257.587 26.5566 254.666 28.737 252.807C30.9174 250.948 34.7372 250.75 36.4319 253.049C37.6408 254.699 37.3648 256.96 37.0501 258.978C36.7355 260.997 36.4319 262.85 36.1172 264.808H41.4551C41.4164 264.5 41.3778 264.192 41.3281 263.895C41.03 262.003 40.6436 260.045 41.3888 258.263C43.2491 253.863 49.862 254.551 53.6984 251.707C56.0776 249.947 57.1429 246.988 58.556 244.403C59.9692 241.818 62.3372 239.228 65.318 239.354C66.3227 239.393 67.3108 239.761 68.3154 239.723C71.2576 239.629 72.9743 235.389 70.8877 233.337C70.3989 232.95 69.9596 232.505 69.5795 232.012C69.0606 231.038 69.6181 229.812 70.5124 229.13C71.4623 228.557 72.535 228.218 73.6422 228.14C76.1538 227.738 78.6709 227.353 81.1825 226.968C83.9591 226.55 87.5139 225.131 87.1275 222.392Z" fill="black"/>
<path opacity="0.3" d="M252.264 255.013C251.822 253.5 251.358 251.999 250.862 250.508C250.365 249.018 249.84 247.544 249.283 246.075C248.687 244.975 248.052 243.875 247.362 242.83C240.826 232.622 231.354 224.62 224.139 214.852C221.793 211.678 219.972 209.055 215.815 208.428C209.671 207.493 206.558 210.947 202.203 205.199C201.027 203.659 198.979 202.224 197.235 203.142C197.682 204.374 198.146 205.601 198.593 206.849C198.707 207.103 198.758 207.38 198.742 207.658C198.648 208.521 197.345 208.758 196.6 208.285C195.855 207.812 195.496 206.926 194.944 206.211C193.007 203.461 188.464 203.126 186.112 205.491C186.058 204.906 185.848 204.347 185.505 203.87C185.161 203.394 184.696 203.017 184.158 202.779C183.915 205.034 181.293 206.706 179.096 205.991C178.743 204.891 180.752 204.666 181.475 203.714C182.198 202.763 181.348 201.564 180.509 200.81C178.243 198.884 175.383 197.789 172.406 197.708C170.529 197.675 168.498 198.022 166.858 197.07C165.909 196.52 165.235 195.602 164.269 195.068C162.205 193.913 159.616 194.975 157.53 196.113C154.676 197.675 151.734 199.639 150.729 202.713C149.724 205.788 151.96 209.863 155.2 209.506C156.017 209.396 156.856 209.011 157.679 209.231C158.832 209.544 159.335 210.881 159.445 212.041C159.555 213.202 159.406 214.445 159.997 215.473C160.588 216.502 162.249 217.013 162.9 216.023C164.43 214.593 164.242 212.173 163.85 210.149C163.458 208.125 163.05 205.815 164.28 204.149C165.511 202.482 169.066 203.01 168.823 205.067C168.674 206.277 167.278 207.157 167.333 208.367C167.388 209.577 168.934 210.276 170.203 210.221C171.473 210.166 172.754 209.726 173.985 210.034C175.216 210.342 176.22 211.926 175.326 212.828C173.78 214.549 169.756 211.596 168.956 213.746C168.73 214.296 168.956 214.918 168.901 215.506C168.752 217.305 166.461 217.965 164.634 218.185C162.807 218.405 160.875 218.57 159.213 217.8C157.552 217.03 156.42 214.885 157.369 213.339C156.442 212.679 155.023 213.339 154.521 214.368C154.019 215.396 154.168 216.568 154.317 217.706C152.379 217.288 150.646 218.9 149.548 220.5C148.449 222.101 147.373 223.987 145.49 224.554C143.608 225.12 140.981 224.356 139.998 226.044C138.712 228.244 142.438 231.033 141.135 233.194C140.384 234.426 138.601 234.393 137.183 234.778C133.44 235.823 132.138 241.219 134.688 244.101C137.238 246.983 142.344 246.818 145.043 244.062C146.926 242.17 147.687 239.514 149.045 237.237C150.403 234.96 152.976 232.919 155.548 233.656C156.537 234.022 157.442 234.583 158.208 235.306C159.456 236.335 160.704 237.363 161.951 238.408C162.751 239.068 163.607 239.899 163.552 240.922C163.48 241.752 162.829 242.396 162.547 243.166C161.769 245.366 165.026 247.494 167.074 246.284C169.122 245.074 169.348 241.972 167.951 240.064C166.014 237.418 161.636 236.098 161.747 232.831C163.982 231.033 167.504 232.919 168.807 235.471C170.11 238.023 170.148 241.015 171.247 243.639C172.345 246.262 175.42 248.616 177.987 247.329C177.319 245.052 176.667 242.797 175.994 240.537C177.65 239.327 179.516 242.852 181.47 242.264C182.662 241.895 182.811 240.207 182.287 239.068C181.762 237.93 180.857 236.978 180.631 235.768C180.261 233.53 182.795 231.528 185.085 231.918C187.376 232.309 189.01 234.437 189.441 236.654C189.523 237.552 189.724 238.436 190.037 239.283C190.892 241.043 193.111 241.576 194.933 242.308C196.755 243.039 198.676 244.86 197.914 246.658C197.561 247.45 196.722 248.198 197.02 249.007C197.301 249.722 198.378 250.035 198.378 250.805C198.378 251.322 197.826 251.669 197.334 251.872C196.109 252.367 194.767 252.532 193.575 253.104C192.383 253.676 191.301 254.793 191.395 256.074C191.544 257.911 193.763 258.791 194.806 260.315C195.706 261.613 195.684 263.296 196.125 264.825H209.76C209.268 263.846 208.783 262.872 208.286 261.893C209.39 260.975 211.134 261.343 212.271 262.262C213.1 263.017 213.823 263.879 214.424 264.825H254.588C253.955 261.499 253.18 258.228 252.264 255.013Z" fill="black"/>
</g>
<path d="M135.179 184.057C135.676 183.006 135.797 181.73 136.664 180.949C137.387 180.3 138.458 180.168 139.236 179.585C140.97 178.276 140.247 175.296 138.408 174.135C133.794 171.231 125.298 174.592 121.296 177.435C116.168 181.093 111.151 185.493 104.333 185.064C102.451 184.948 100.497 184.436 98.7306 185.091C96.9642 185.745 95.8823 188.352 97.4003 189.458C98.2448 190.068 99.4427 189.898 100.392 190.332C102.153 191.135 102.33 193.633 101.496 195.36C100.663 197.087 99.0894 198.351 98.0792 199.979C97.094 201.569 96.6488 203.432 96.8096 205.293C96.8323 205.939 96.9852 206.575 97.2592 207.162C97.5333 207.748 97.9229 208.274 98.4049 208.708C100.53 210.358 103.759 208.944 105.553 206.937C107.347 204.929 108.595 202.339 110.924 200.964C112.126 200.339 113.416 199.898 114.75 199.655L123.648 197.57C125.061 197.24 126.59 196.833 127.473 195.695C128.577 194.254 128.257 192.191 128.98 190.525C130.161 187.764 133.887 186.774 135.179 184.057Z" fill="#263238"/>
<path d="M183.59 254.886C180.901 254.512 178.296 255.777 175.624 256.255C166.428 257.905 150.961 235.971 143.962 250.755C142.984 246.74 136.366 248.253 134.252 251.817C132.138 255.381 131.691 260.1 128.334 262.575C126.877 263.675 125.022 264.153 123.322 264.83H192.284C190.666 260.435 188.232 255.524 183.59 254.886Z" fill="#263238"/>
<path d="M250.856 250.508C250.36 249.017 249.835 247.543 249.278 246.075C248.681 244.975 248.047 243.875 247.357 242.83C240.821 232.622 231.349 224.619 224.134 214.851C221.788 211.678 219.966 209.054 215.81 208.427C209.666 207.492 206.553 210.946 202.197 205.199C201.022 203.659 198.974 202.223 197.229 203.142C197.677 204.374 198.14 205.6 198.587 206.849C198.702 207.102 198.753 207.38 198.736 207.657C198.643 208.521 197.34 208.757 196.595 208.284C195.849 207.811 195.491 206.926 194.939 206.211C193.001 203.461 188.458 203.125 186.107 205.49C186.052 204.906 185.843 204.347 185.499 203.87C185.156 203.394 184.691 203.017 184.153 202.779C183.91 205.034 181.288 206.706 179.091 205.991C178.738 204.891 180.747 204.665 181.47 203.714C182.193 202.762 181.343 201.563 180.504 200.81C178.238 198.884 175.378 197.789 172.401 197.708C170.524 197.675 168.492 198.021 166.853 197.07C165.904 196.52 165.23 195.601 164.264 195.068C162.2 193.913 159.611 194.974 157.524 196.113C154.67 197.675 151.728 199.638 150.724 202.713C149.719 205.787 151.954 209.863 155.195 209.505C156.012 209.395 156.851 209.01 157.673 209.23C158.827 209.544 159.329 210.88 159.44 212.041C159.55 213.201 159.401 214.444 159.992 215.473C160.582 216.501 162.244 217.013 162.895 216.023C164.424 214.593 164.236 212.173 163.845 210.149C163.453 208.125 163.044 205.815 164.275 204.148C165.506 202.482 169.061 203.01 168.818 205.067C168.669 206.277 167.272 207.157 167.328 208.367C167.383 209.577 168.928 210.275 170.198 210.22C171.468 210.165 172.748 209.725 173.979 210.033C175.21 210.341 176.215 211.925 175.321 212.827C173.775 214.549 169.751 211.595 168.951 213.746C168.724 214.296 168.951 214.917 168.895 215.506C168.746 217.304 166.456 217.964 164.628 218.184C162.801 218.404 160.869 218.569 159.208 217.799C157.546 217.029 156.415 214.884 157.364 213.339C156.437 212.679 155.018 213.339 154.516 214.367C154.013 215.396 154.162 216.567 154.312 217.706C152.374 217.288 150.641 218.899 149.542 220.5C148.444 222.1 147.367 223.987 145.485 224.553C143.603 225.12 140.975 224.355 139.993 226.044C138.706 228.244 142.432 231.032 141.13 233.194C140.379 234.426 138.596 234.393 137.177 234.778C133.435 235.823 132.132 241.218 134.682 244.1C137.233 246.982 142.339 246.817 145.038 244.062C146.92 242.17 147.682 239.513 149.04 237.236C150.398 234.959 152.97 232.919 155.542 233.656C156.532 234.022 157.437 234.583 158.203 235.306C159.451 236.334 160.698 237.363 161.946 238.408C162.746 239.068 163.602 239.898 163.546 240.921C163.475 241.752 162.823 242.395 162.542 243.165C161.764 245.365 165.02 247.494 167.068 246.284C169.116 245.074 169.342 241.972 167.946 240.063C166.008 237.418 161.631 236.098 161.741 232.831C163.977 231.032 167.499 232.919 168.801 235.471C170.104 238.023 170.143 241.015 171.241 243.638C172.34 246.262 175.414 248.616 177.981 247.329C177.313 245.052 176.662 242.797 175.989 240.536C177.645 239.326 179.51 242.852 181.464 242.263C182.657 241.895 182.806 240.206 182.281 239.068C181.757 237.929 180.852 236.978 180.625 235.768C180.256 233.529 182.789 231.527 185.08 231.918C187.371 232.308 189.005 234.437 189.435 236.653C189.518 237.552 189.718 238.436 190.031 239.282C190.887 241.042 193.106 241.576 194.928 242.307C196.749 243.039 198.67 244.859 197.908 246.658C197.555 247.45 196.716 248.198 197.014 249.006C197.296 249.721 198.372 250.035 198.372 250.805C198.372 251.322 197.82 251.668 197.329 251.872C196.103 252.367 194.762 252.532 193.57 253.104C192.377 253.676 191.296 254.792 191.389 256.074C191.538 257.911 193.757 258.791 194.801 260.314C195.7 261.612 195.678 263.295 196.12 264.824H209.76C209.269 263.845 208.783 262.872 208.286 261.893C209.39 260.974 211.134 261.343 212.271 262.261C213.1 263.017 213.824 263.879 214.424 264.824H254.588C253.955 261.524 253.178 258.259 252.258 255.029C251.817 253.5 251.353 251.998 250.856 250.508Z" fill="#263238"/>
<path d="M212.272 262.245C211.134 261.343 209.385 260.958 208.286 261.876C208.783 262.855 209.269 263.829 209.76 264.808H214.424C213.824 263.863 213.1 263.001 212.272 262.245Z" fill="#455A64"/>
<path d="M41.3999 258.263C43.2601 253.863 49.8731 254.551 53.7095 251.707C56.0886 249.947 57.154 246.988 58.5671 244.403C59.9802 241.818 62.3483 239.228 65.3291 239.354C66.3337 239.393 67.3218 239.761 68.3264 239.723C71.2686 239.629 72.9853 235.389 70.8988 233.337C70.41 232.95 69.9706 232.505 69.5905 232.012C69.0716 231.038 69.6292 229.812 70.5234 229.13C71.4734 228.557 72.546 228.218 73.6532 228.14C76.1648 227.738 78.682 227.353 81.1936 226.968C83.9536 226.545 87.525 225.131 87.1386 222.392C86.8019 220.027 83.5396 218.96 83.0593 216.612C82.9268 216.062 83.0041 215.418 82.7392 214.89C81.9774 213.383 79.6866 213.988 78.2183 214.797C77.6221 212.597 74.4536 211.618 72.6983 213.053C71.2134 214.263 71.0423 216.392 70.4903 218.212C69.2648 222.612 65.7044 225.956 62.3152 229.058C61.2112 230.087 59.8974 231.187 58.3518 231.258C56.8062 231.33 55.1833 229.702 55.8899 228.36C56.3756 227.441 57.717 226.908 57.5845 225.885C57.4024 224.598 55.1281 224.691 54.681 223.459C55.5752 219.824 59.8036 218.322 63.0438 216.375C67.0029 214.007 70.021 210.351 71.5888 206.024C71.8537 205.342 72.058 204.534 71.7047 203.89C71.2189 202.977 69.9714 202.829 68.9116 202.829C66.4165 202.79 63.3032 203.12 62.3924 205.414C61.9067 206.646 62.26 208.043 61.9619 209.324C61.0897 213.141 55.7795 213.565 52.5392 215.842C51.2752 216.722 50.2871 217.954 48.8905 218.63C47.3836 219.351 45.6116 219.296 43.9225 219.422C43.63 219.422 43.3264 219.477 43.0283 219.516C42.0052 220.905 41.0172 222.333 40.064 223.8C39.1109 225.267 38.1909 226.743 37.304 228.228C33.1002 235.317 29.6799 242.839 27.1031 250.662C26.1904 253.408 25.3845 256.197 24.6853 259.028C24.2143 260.934 23.7948 262.861 23.4268 264.808H23.9788C24.3486 263.532 24.6246 262.256 24.8564 261.145C24.9172 260.865 24.9724 260.595 25.0276 260.337C25.6458 257.587 26.5566 254.666 28.737 252.807C30.9174 250.948 34.7372 250.75 36.4319 253.049C37.6408 254.699 37.3648 256.96 37.0501 258.978C36.7355 260.997 36.4319 262.85 36.1172 264.808H41.4551C41.4164 264.5 41.3778 264.192 41.3281 263.895C41.03 262.003 40.6436 260.023 41.3999 258.263Z" fill="#263238"/>
<path d="M36.432 253.049C34.7373 250.733 30.912 250.953 28.7426 252.807C26.5733 254.66 25.6514 257.564 25.0332 260.336C24.978 260.589 24.9228 260.886 24.8621 261.145C24.6302 262.245 24.3542 263.532 23.9844 264.808H36.1284C36.4375 262.861 36.7484 260.918 37.0612 258.978C37.3648 256.959 37.6408 254.699 36.432 253.049Z" fill="#455A64"/>
<path d="M111.625 244.606C111.885 242.753 109.263 241.235 107.292 241.075C106.354 240.998 105.382 241.141 104.494 240.833C102.567 240.162 101.794 237.687 99.9175 236.895C98.5099 236.307 96.8925 236.829 95.5291 237.511C94.1656 238.193 92.8188 239.057 91.3008 239.161C89.976 239.244 88.5408 238.754 87.376 239.398C86.5149 239.876 86.0623 240.872 85.2674 241.455C84.4387 241.963 83.4804 242.223 82.5074 242.203C81.5391 242.177 80.5745 242.334 79.6646 242.665C78.7814 243.066 78.0528 243.99 78.2349 244.936L111.625 244.606Z" fill="#FAFAFA"/>
<path d="M120.214 231.412C120.385 230.147 118.591 229.107 117.245 228.997C116.6 229.02 115.955 228.965 115.324 228.832C114.004 228.37 113.48 226.676 112.194 226.132C111.228 225.73 110.124 226.088 109.191 226.555C108.258 227.023 107.331 227.611 106.293 227.683C105.382 227.738 104.4 227.402 103.605 227.842C103.014 228.172 102.705 228.854 102.158 229.25C101.594 229.603 100.937 229.781 100.271 229.762C99.6069 229.747 98.9462 229.856 98.322 230.081C98.0131 230.202 97.7512 230.418 97.5753 230.698C97.3993 230.979 97.3186 231.308 97.345 231.637L120.214 231.412Z" fill="#FAFAFA"/>
<path d="M75.8834 171.94C75.8834 171.94 75.8393 171.979 75.7399 172.039L75.3094 172.303L73.6534 173.299L72.4445 174.008L71.0258 174.894C70.0157 175.543 68.8178 176.241 67.6034 177.094L65.6438 178.425C64.9649 178.892 64.2859 179.415 63.5628 179.932C62.1166 180.96 60.6427 182.132 59.0695 183.386C55.9838 185.91 52.6939 188.82 49.4371 192.076C46.3949 195.17 43.5116 198.416 40.7983 201.8C39.5784 203.378 38.3971 204.858 37.3814 206.315C36.8681 207.036 36.3547 207.723 35.891 208.405L34.5773 210.374C33.7162 211.612 33.0262 212.789 32.3693 213.806L31.4916 215.225L30.7906 216.441L29.8135 218.118C29.7086 218.3 29.6203 218.443 29.5541 218.553C29.4878 218.663 29.4602 218.701 29.4547 218.696C29.4492 218.69 29.4547 218.641 29.5265 218.542L29.7638 218.091L30.6912 216.386C30.901 216.012 31.1273 215.605 31.3702 215.154C31.613 214.703 31.9222 214.235 32.2313 213.718C32.855 212.695 33.534 211.518 34.3841 210.259L35.6868 208.279C36.145 207.591 36.6583 206.904 37.1662 206.178C38.1763 204.715 39.3742 203.224 40.5665 201.635C45.9454 194.824 52.0823 188.643 58.8598 183.21C60.4385 181.983 61.9234 180.795 63.3806 179.778C64.1038 179.261 64.7882 178.738 65.4727 178.276L67.4489 176.962C68.6964 176.098 69.8777 175.411 70.8989 174.762C71.4122 174.448 71.8814 174.151 72.3286 173.887L73.554 173.2L75.2597 172.254L75.7068 172.017L75.8834 171.94Z" fill="#263238"/>
<path d="M89.4736 160.379C89.3714 160.435 89.2618 160.476 89.1479 160.5L88.193 160.797C87.779 160.918 87.2711 161.067 86.686 161.265C86.1009 161.463 85.4275 161.655 84.6988 161.919C83.236 162.42 81.5138 163.08 79.6259 163.872C77.7381 164.664 75.7067 165.626 73.6147 166.726C71.5226 167.826 69.6016 168.998 67.8794 170.098C66.1571 171.198 64.6557 172.298 63.4192 173.205C62.7955 173.662 62.249 174.102 61.7632 174.481C61.2775 174.861 60.869 175.185 60.5323 175.466L59.7539 176.087C59.6701 176.168 59.5753 176.236 59.4724 176.291C59.5477 176.201 59.6308 176.118 59.7208 176.043L60.4605 175.378C60.7862 175.092 61.1836 174.74 61.6639 174.355C62.1441 173.97 62.6795 173.513 63.3199 173.046C64.5398 172.089 66.0467 171.011 67.7359 169.878C69.425 168.745 71.3901 167.59 73.4822 166.473C75.5742 165.357 77.6277 164.422 79.5211 163.624C81.4144 162.827 83.1587 162.205 84.6381 161.732C85.3723 161.474 86.0457 161.287 86.6363 161.111C87.227 160.935 87.7403 160.792 88.1599 160.687L89.1314 160.445C89.2439 160.416 89.3582 160.394 89.4736 160.379Z" fill="#263238"/>
<path d="M21.5943 219.444C20.5813 218.935 19.4642 218.666 18.3298 218.658C17.1955 218.649 16.0744 218.902 15.0539 219.395C14.0335 219.889 13.141 220.61 12.446 221.504C11.751 222.397 11.2722 223.438 11.0469 224.546C10.8215 225.654 10.8557 226.798 11.1467 227.891C11.4378 228.983 11.9778 229.994 12.7248 230.844C13.4719 231.695 14.4058 232.362 15.4539 232.795C16.5021 233.227 17.6362 233.413 18.768 233.337C19.32 233.299 19.7837 233.139 20.3909 233.04L27.3847 231.77C27.5928 231.737 27.79 231.655 27.9601 231.531C28.1302 231.407 28.2684 231.245 28.3633 231.057C28.4581 230.87 28.507 230.663 28.5057 230.453C28.5045 230.243 28.4533 230.036 28.3563 229.85L25.2651 223.608C25.0327 223.064 24.7711 222.533 24.4812 222.018C23.7696 220.916 22.7721 220.027 21.5943 219.444ZM21.1527 227.447C20.8645 228.018 20.4127 228.492 19.8542 228.808C19.2958 229.124 18.6559 229.267 18.0155 229.221C17.3751 229.174 16.7629 228.939 16.2565 228.546C15.7501 228.153 15.3721 227.619 15.1705 227.011C14.9688 226.404 14.9525 225.75 15.1236 225.134C15.2947 224.517 15.6455 223.965 16.1317 223.547C16.6179 223.129 17.2176 222.864 17.8549 222.786C18.4922 222.707 19.1384 222.819 19.7119 223.107C20.4791 223.494 21.0614 224.167 21.3314 224.98C21.6014 225.794 21.5371 226.68 21.1527 227.447Z" fill="#FF2145"/>
<path d="M201.198 170.686C201.762 169.706 202.092 168.61 202.161 167.482C202.231 166.355 202.038 165.226 201.599 164.185C201.159 163.144 200.485 162.217 199.628 161.478C198.771 160.738 197.754 160.205 196.657 159.921C195.56 159.637 194.411 159.608 193.301 159.838C192.191 160.067 191.149 160.549 190.256 161.245C189.363 161.941 188.643 162.833 188.152 163.852C187.661 164.87 187.413 165.987 187.426 167.117V167.15C187.426 167.7 187.57 168.173 187.636 168.8L188.536 175.823C188.562 176.027 188.635 176.222 188.749 176.392C188.863 176.563 189.016 176.704 189.195 176.806C189.373 176.908 189.573 176.967 189.779 176.979C189.985 176.991 190.19 176.955 190.379 176.874L196.805 174.124C197.369 173.922 197.922 173.689 198.461 173.425C199.601 172.771 200.546 171.825 201.198 170.686ZM193.2 169.817C192.641 169.501 192.189 169.027 191.901 168.454C191.613 167.882 191.502 167.237 191.582 166.601C191.663 165.966 191.931 165.369 192.352 164.885C192.773 164.401 193.329 164.053 193.949 163.885C194.57 163.717 195.226 163.736 195.835 163.939C196.445 164.143 196.98 164.522 197.372 165.029C197.765 165.536 197.998 166.148 198.041 166.787C198.085 167.426 197.937 168.063 197.616 168.618C197.189 169.36 196.485 169.903 195.657 170.128C194.829 170.352 193.945 170.241 193.2 169.817Z" fill="#FF2145"/>
<path d="M91.2511 167.089C90.8635 166.524 90.35 166.054 89.7507 165.719C89.1514 165.383 88.4824 165.189 87.7958 165.153C87.1091 165.116 86.4233 165.238 85.7916 165.509C85.1599 165.78 84.5994 166.192 84.1537 166.713C83.708 167.235 83.389 167.852 83.2216 168.517C83.0543 169.181 83.043 169.875 83.1886 170.545C83.3343 171.215 83.633 171.842 84.0615 172.378C84.4901 172.913 85.0369 173.344 85.6594 173.634C85.963 173.777 86.2555 173.827 86.6088 173.953L90.6936 175.317C90.8122 175.357 90.9383 175.368 91.0619 175.351C91.1856 175.333 91.3036 175.288 91.4067 175.217C91.5098 175.147 91.5952 175.054 91.6563 174.945C91.7174 174.837 91.7526 174.716 91.759 174.591L91.9522 170.373C91.9886 170.017 92.0052 169.659 92.0019 169.3C91.9536 168.51 91.6944 167.747 91.2511 167.089ZM88.6623 171.203C88.3418 171.423 87.9634 171.542 87.5748 171.547C87.1861 171.552 86.8048 171.442 86.4789 171.231C86.1531 171.02 85.8974 170.717 85.7442 170.361C85.5909 170.005 85.547 169.612 85.618 169.231C85.6891 168.851 85.8718 168.5 86.1431 168.222C86.4145 167.945 86.7622 167.754 87.1424 167.674C87.5226 167.594 87.9182 167.627 88.2791 167.771C88.6401 167.915 88.9501 168.162 89.1701 168.481C89.3162 168.693 89.4189 168.932 89.4725 169.183C89.526 169.435 89.5293 169.694 89.4821 169.947C89.435 170.2 89.3383 170.441 89.1976 170.657C89.0569 170.872 88.875 171.058 88.6623 171.203Z" fill="#FF2145"/>
<path d="M147.881 233.975C147.881 233.29 147.723 232.615 147.419 232.001C147.115 231.387 146.673 230.852 146.127 230.436C145.581 230.02 144.947 229.735 144.273 229.602C143.599 229.47 142.903 229.495 142.24 229.674C141.577 229.853 140.964 230.182 140.449 230.635C139.934 231.088 139.531 231.654 139.271 232.287C139.011 232.921 138.901 233.606 138.95 234.288C138.998 234.971 139.204 235.634 139.551 236.225C139.722 236.516 139.938 236.72 140.158 237.022L142.753 240.449C142.827 240.549 142.924 240.63 143.036 240.686C143.148 240.742 143.271 240.771 143.396 240.771C143.521 240.771 143.644 240.742 143.756 240.686C143.868 240.63 143.965 240.549 144.039 240.449L146.595 237.077C146.827 236.803 147.044 236.516 147.246 236.219C147.654 235.541 147.873 234.766 147.881 233.975ZM143.41 235.9C143.02 235.901 142.638 235.787 142.313 235.572C141.989 235.357 141.735 235.05 141.585 234.692C141.435 234.333 141.395 233.938 141.471 233.557C141.546 233.176 141.733 232.825 142.009 232.55C142.284 232.275 142.635 232.087 143.018 232.011C143.4 231.935 143.797 231.974 144.157 232.122C144.517 232.27 144.826 232.522 145.042 232.845C145.259 233.168 145.375 233.548 145.375 233.937C145.375 234.456 145.168 234.955 144.8 235.323C144.431 235.691 143.931 235.899 143.41 235.9Z" fill="#FF2145"/>
<path d="M249.78 219.691C250.308 219.254 250.728 218.701 251.007 218.076C251.286 217.451 251.416 216.77 251.389 216.087C251.361 215.403 251.176 214.735 250.847 214.134C250.519 213.534 250.056 213.016 249.494 212.623C248.933 212.229 248.288 211.969 247.609 211.864C246.931 211.759 246.237 211.811 245.582 212.016C244.927 212.22 244.328 212.573 243.832 213.046C243.335 213.518 242.955 214.099 242.72 214.741C242.604 215.06 242.582 215.357 242.488 215.715L241.506 219.895C241.476 220.016 241.476 220.143 241.504 220.264C241.532 220.385 241.588 220.499 241.668 220.595C241.748 220.691 241.849 220.767 241.964 220.817C242.078 220.868 242.203 220.891 242.328 220.885L246.562 220.687C246.921 220.688 247.281 220.672 247.638 220.637C248.424 220.519 249.164 220.192 249.78 219.691ZM245.425 217.491C245.175 217.194 245.02 216.829 244.978 216.444C244.937 216.058 245.011 215.669 245.192 215.326C245.373 214.983 245.652 214.7 245.994 214.515C246.336 214.33 246.725 214.25 247.112 214.286C247.5 214.321 247.868 214.471 248.17 214.715C248.472 214.959 248.695 215.287 248.81 215.658C248.925 216.028 248.927 216.424 248.815 216.796C248.704 217.167 248.485 217.497 248.185 217.744C247.786 218.075 247.272 218.236 246.755 218.19C246.238 218.145 245.759 217.898 245.425 217.502V217.491Z" fill="#FF2145"/>
<path d="M130.857 71.2025L156.028 63.8655L159.434 72.396L130.211 77.181L130.857 71.2025Z" fill="#FFBE9D"/>
<path d="M130.857 71.2024C130.857 71.2024 125.999 71.5269 125.514 71.8349C125.028 72.1429 119.994 72.3849 119.994 73.1109C119.994 73.8369 120.231 73.4519 121.031 73.5014C121.832 73.5509 123.742 73.2594 123.764 73.6004C123.786 73.9414 117.88 74.8764 117.692 75.1294C117.504 75.3824 116.991 75.6299 117.725 75.8389C117.725 75.8389 116.814 76.2789 117.007 76.8179C117.067 77.0783 117.214 77.3109 117.423 77.4777C117.633 77.6445 117.893 77.7357 118.161 77.7364C118.713 77.6869 123.079 77.5274 123.079 77.5274C123.079 77.5274 118.249 77.7694 118.271 78.2479C118.294 78.7264 118.122 78.6714 118.719 79.0179C119.315 79.3644 122.494 79.3644 122.494 79.3644L126.193 78.6219C126.193 78.6219 123.598 79.8869 123.278 80.3929C122.958 80.8989 122.781 81.8284 123.278 82.1474C123.775 82.4664 123.99 82.0099 124.382 81.5974C124.774 81.1849 127.954 79.6504 128.528 79.2269C129.102 78.8034 131.939 76.0919 131.939 76.0919L130.857 71.2024Z" fill="#FFBE9D"/>
<path d="M179.267 30.64C179.436 30.4421 179.653 30.2906 179.897 30.2C180.693 29.8511 181.593 29.8177 182.414 30.1065C181.952 29.4644 181.619 28.7399 181.431 27.9725C181.341 27.5861 181.352 27.1829 181.464 26.8022C181.577 26.4215 181.786 26.0762 182.072 25.8C182.389 25.5789 182.75 25.427 183.13 25.354C183.511 25.2811 183.902 25.2887 184.28 25.3765C185.36 25.5139 186.362 26.0076 187.128 26.779C187.503 27.1696 187.778 27.6444 187.93 28.1633C188.081 28.6822 188.106 29.2298 188 29.76L185.792 31.4815C185.153 32.298 184.307 32.9302 183.341 33.313C183.134 33.4262 182.9 33.4814 182.664 33.4727C182.427 33.464 182.198 33.3917 182 33.2635C181.866 33.1163 181.782 32.9318 181.757 32.7351C181.732 32.5384 181.769 32.3388 181.862 32.1635C182.058 31.8125 182.328 31.507 182.651 31.267C181.825 31.642 180.919 31.8083 180.013 31.751C179.856 31.7586 179.7 31.7303 179.557 31.6683C179.413 31.6063 179.286 31.5123 179.185 31.3935C179.125 31.2729 179.102 31.1381 179.117 31.0048C179.131 30.8714 179.183 30.7449 179.267 30.64Z" fill="#263238"/>
<path d="M181.646 25.844C181.646 25.8715 182.044 25.8825 182.651 26.0475C183.44 26.2681 184.166 26.6693 184.771 27.219C185.372 27.7737 185.836 28.4587 186.129 29.221C186.35 29.8095 186.394 30.2 186.421 30.2C186.436 30.1071 186.436 30.0125 186.421 29.9195C186.385 29.6708 186.326 29.4259 186.245 29.188C185.975 28.3921 185.51 27.6757 184.892 27.1035C184.267 26.5377 183.507 26.1402 182.684 25.9485C182.439 25.8902 182.19 25.8516 181.939 25.833C181.842 25.82 181.743 25.8238 181.646 25.844Z" fill="#455A64"/>
<path d="M185.709 31.113C185.79 30.9207 185.906 30.7453 186.051 30.596C186.54 29.916 187.22 29.3955 188.006 29.1C188.075 29.0736 188.15 29.0629 188.224 29.0686C188.299 29.0743 188.371 29.0963 188.436 29.133C188.624 29.276 188.558 29.5785 188.403 29.76C188.227 29.9242 188.071 30.1088 187.939 30.31L186.752 31.542C186.645 31.6953 186.49 31.8092 186.311 31.8665C186.223 31.8952 186.129 31.8996 186.038 31.8793C185.948 31.8589 185.865 31.8146 185.798 31.751C185.721 31.6654 185.672 31.559 185.656 31.4454C185.64 31.3318 185.659 31.2161 185.709 31.113Z" fill="#455A64"/>
<path d="M181.056 41.9645C181.368 40.0477 181.846 38.1615 182.486 36.327C183.128 34.4847 184.221 32.8308 185.665 31.5145C185.886 31.322 187.553 30.123 187.796 30.288C188.039 30.453 186.659 31.663 186.664 31.872C186.647 33.8938 186.012 35.8624 184.843 37.515C183.75 39.1336 182.48 40.626 181.056 41.9645Z" fill="#263238"/>
<path d="M176.491 50.2859L184.478 35.3809C186.686 31.0414 191.069 28.7094 195.364 31.0304L195.816 31.3109C197.663 32.4532 199.011 34.2464 199.59 36.3336C200.17 38.4208 199.94 40.649 198.946 42.5749C196.998 46.3424 194.79 50.5004 193.564 52.4144C191.042 56.3524 186.675 54.5044 186.675 54.5044C186.675 54.5044 185.102 57.2544 184.429 58.4204C184.429 58.4204 183.816 58.7614 180.013 56.6659C176.209 54.5704 176.491 50.2859 176.491 50.2859Z" fill="#FFBE9D"/>
<path d="M186.675 54.5045C184.838 53.3622 183.369 51.7186 182.442 49.769C182.442 49.769 181.89 53.4375 186.101 55.5385L186.675 54.5045Z" fill="#EB996E"/>
<path d="M196.175 44.9675C196.086 45.1169 195.942 45.2254 195.774 45.2697C195.606 45.314 195.426 45.2904 195.275 45.204C195.199 45.1652 195.131 45.1116 195.076 45.0463C195.021 44.9809 194.98 44.9053 194.955 44.8237C194.929 44.7422 194.921 44.6564 194.93 44.5716C194.938 44.4867 194.964 44.4044 195.005 44.3295C195.095 44.1798 195.24 44.0711 195.409 44.0269C195.578 43.9827 195.758 44.0064 195.91 44.093C195.986 44.1323 196.053 44.1863 196.108 44.2519C196.162 44.3174 196.203 44.3931 196.228 44.4746C196.252 44.5561 196.26 44.6417 196.251 44.7264C196.242 44.811 196.216 44.893 196.175 44.9675Z" fill="#263238"/>
<path d="M197.158 43.5484C197.042 43.5484 196.81 42.9984 196.197 42.6134C195.585 42.2284 194.944 42.2669 194.922 42.1514C194.9 42.0359 195.066 42.0084 195.353 41.9864C195.741 41.9618 196.127 42.0599 196.457 42.2669C196.775 42.4638 197.023 42.7566 197.163 43.1029C197.235 43.3614 197.213 43.5319 197.158 43.5484Z" fill="#263238"/>
<path d="M190.396 41.7939C190.352 41.868 190.294 41.9327 190.225 41.9844C190.156 42.0361 190.077 42.0737 189.994 42.0952C189.91 42.1166 189.823 42.1215 189.738 42.1094C189.653 42.0974 189.57 42.0687 189.496 42.0249C189.42 41.9867 189.352 41.9336 189.297 41.8687C189.242 41.8039 189.201 41.7287 189.176 41.6476C189.15 41.5665 189.142 41.4812 189.15 41.3967C189.159 41.3123 189.185 41.2304 189.226 41.1559C189.315 41.0062 189.46 40.8975 189.63 40.8533C189.799 40.8091 189.979 40.8328 190.131 40.9194C190.207 40.9587 190.274 41.0127 190.328 41.0783C190.383 41.1438 190.424 41.2196 190.448 41.301C190.473 41.3825 190.481 41.4681 190.472 41.5528C190.463 41.6374 190.437 41.7194 190.396 41.7939Z" fill="#263238"/>
<path d="M190.948 40.1934C190.826 40.1934 190.594 39.6434 189.982 39.2639C189.369 38.8844 188.729 38.9119 188.712 38.7964C188.696 38.6809 188.856 38.6534 189.137 38.6314C189.516 38.6126 189.892 38.7105 190.214 38.9119C190.532 39.1085 190.78 39.4014 190.92 39.7479C191.019 40.0064 190.992 40.1824 190.948 40.1934Z" fill="#263238"/>
<path d="M190.158 46.3424C190.544 46.4391 190.915 46.5851 191.262 46.7769C191.428 46.8594 191.599 46.9199 191.687 46.8319C191.808 46.6739 191.872 46.4803 191.87 46.2819C191.958 45.8162 192.052 45.3267 192.151 44.8134C192.348 43.5429 192.647 42.2903 193.045 41.0679C192.949 42.35 192.752 43.6226 192.455 44.8739C192.35 45.3854 192.251 45.8749 192.151 46.3424C192.132 46.5904 192.027 46.824 191.853 47.0024C191.796 47.0432 191.731 47.0704 191.662 47.0819C191.593 47.0933 191.523 47.0887 191.456 47.0684C191.354 47.0416 191.257 46.9989 191.169 46.9419C190.807 46.7873 190.467 46.5857 190.158 46.3424Z" fill="#263238"/>
<path d="M192.14 38.8184C191.963 38.9229 191.461 38.4059 190.738 37.9549C190.015 37.5039 189.336 37.2619 189.336 37.0584C189.336 36.9594 189.557 36.8879 189.888 36.9154C190.322 36.9584 190.738 37.1056 191.102 37.3444C191.473 37.5721 191.784 37.8852 192.008 38.2574C192.195 38.5489 192.223 38.7634 192.14 38.8184Z" fill="#263238"/>
<path d="M198.013 42.3C197.804 42.3605 197.406 41.9095 196.821 41.5355C196.236 41.1615 195.678 40.9525 195.651 40.738C195.651 40.6335 195.811 40.5455 196.115 40.551C196.511 40.5781 196.892 40.7111 197.219 40.936C197.556 41.15 197.827 41.4526 198.002 41.8105C198.135 42.069 198.113 42.2505 198.013 42.3Z" fill="#263238"/>
<path d="M182.977 38.5215C182.927 38.45 180.741 36.0245 179.113 38.791C177.484 41.5575 180.631 42.5915 180.68 42.5145C180.73 42.4375 182.977 38.5215 182.977 38.5215Z" fill="#FFBE9D"/>
<path d="M180.46 40.9799C180.46 40.9799 180.393 40.9799 180.289 40.9799C180.145 40.9622 180.014 40.8891 179.924 40.7764C179.81 40.5604 179.757 40.3181 179.768 40.0744C179.78 39.8307 179.857 39.5946 179.99 39.3904C180.124 39.1465 180.313 38.9373 180.542 38.7799C180.616 38.7127 180.704 38.663 180.8 38.6344C180.895 38.6059 180.996 38.5992 181.094 38.6149C181.158 38.6334 181.213 38.6729 181.251 38.7269C181.29 38.7808 181.308 38.846 181.304 38.9119C181.304 39.0109 181.244 39.0549 181.26 39.0714C181.277 39.0879 181.343 39.0714 181.387 38.9339C181.414 38.8574 181.414 38.7739 181.387 38.6974C181.342 38.5973 181.261 38.5171 181.161 38.4719C181.033 38.4287 180.897 38.4186 180.765 38.4427C180.632 38.4668 180.508 38.5241 180.404 38.6094C180.146 38.7798 179.936 39.0125 179.792 39.2859C179.632 39.5225 179.547 39.8011 179.547 40.0861C179.547 40.3712 179.632 40.6497 179.792 40.8864C179.854 40.9502 179.93 40.9995 180.014 41.0309C180.098 41.0622 180.188 41.0749 180.278 41.0679C180.421 41.0404 180.471 40.9854 180.46 40.9799Z" fill="#EB996E"/>
<path d="M199.719 37.0199C200.31 37.0199 199.785 34.8199 198.957 33.6759C197.715 31.9709 195.419 30.0569 193.62 29.6224C191.461 29.0724 189.391 29.1494 187.498 30.3099C185.616 31.5194 184.091 33.2072 183.082 35.1994C182.729 35.7805 182.538 36.4451 182.53 37.1244C182.574 37.9549 183.082 38.7744 182.585 39.5939C182.389 39.8924 182.319 40.2564 182.392 40.6059C182.596 41.4364 183.496 41.2824 184.087 40.9304C185.317 40.1879 186.123 38.9284 186.885 37.7074C187.477 36.8695 187.926 35.9405 188.215 34.9574C188.342 34.4074 188.37 33.8574 188.525 33.3074C188.588 33.0366 188.709 32.7825 188.879 32.5624C189.05 32.3423 189.266 32.1612 189.513 32.0314C189.628 31.9897 189.746 31.9566 189.866 31.9324C190.45 31.8147 191.054 31.8546 191.617 32.048C192.18 32.2414 192.681 32.5813 193.068 33.0324C194.326 34.4734 196.54 36.8164 197.539 36.6789C198.226 36.6319 198.897 36.4447 199.509 36.1289L199.719 37.0199Z" fill="#263238"/>
<path d="M193.984 29.3311C194.9 29.4915 195.776 29.8318 196.56 30.3322C197.343 30.8326 198.02 31.4832 198.549 32.2461C198.84 32.6444 199.046 33.0976 199.155 33.5779C199.264 34.0583 199.274 34.5558 199.184 35.0401C199.078 35.5218 198.805 35.9511 198.414 36.2528C198.022 36.5544 197.536 36.7093 197.042 36.6901H196.97C195.551 36.4206 194.867 35.8266 193.912 34.7431C193.112 33.8356 192.571 32.7246 191.765 31.8171C190.896 30.853 189.758 30.1693 188.497 29.8536C190.247 29.1993 192.141 29.019 193.984 29.3311Z" fill="#263238"/>
<path d="M189.049 29.6169C189.049 29.6169 189.203 29.6169 189.479 29.6664C189.869 29.7325 190.243 29.8685 190.583 30.0679C191.087 30.3613 191.527 30.7499 191.881 31.2119C192.315 31.7821 192.697 32.3895 193.023 33.0269C193.355 33.6694 193.733 34.287 194.155 34.8749C194.507 35.3567 194.945 35.7704 195.447 36.0959C195.783 36.3127 196.158 36.4656 196.551 36.5469C196.656 36.5696 196.763 36.5825 196.871 36.5854C196.948 36.5854 196.987 36.5854 196.987 36.5854C196.456 36.5119 195.947 36.3242 195.496 36.0354C195.016 35.7058 194.597 35.2943 194.26 34.8199C193.85 34.2333 193.481 33.6195 193.156 32.9829C192.828 32.3361 192.438 31.7227 191.991 31.1514C191.622 30.6822 191.162 30.2913 190.639 30.0019C190.284 29.8052 189.894 29.6817 189.49 29.6389C189.382 29.6288 189.273 29.6288 189.165 29.6389L189.049 29.6169Z" fill="#455A64"/>
<path d="M190.744 29.375C191.23 29.4444 191.698 29.6109 192.118 29.8645C192.567 30.1481 192.963 30.5073 193.288 30.926C193.682 31.4381 194.019 31.9913 194.293 32.576C194.597 33.1975 194.845 33.8135 195.149 34.347C195.399 34.8277 195.698 35.2812 196.043 35.7C196.276 35.9825 196.545 36.2339 196.843 36.448C196.924 36.5057 197.009 36.5572 197.097 36.602C197.152 36.635 197.185 36.6515 197.191 36.646C196.794 36.3556 196.436 36.0155 196.126 35.634C195.799 35.2134 195.514 34.7621 195.276 34.2865C194.994 33.7365 194.724 33.137 194.425 32.51C194.152 31.9065 193.808 31.3378 193.399 30.816C193.058 30.39 192.643 30.0286 192.173 29.749C191.856 29.5627 191.509 29.4342 191.147 29.3695C191.048 29.3586 190.948 29.3586 190.849 29.3695C190.777 29.364 190.744 29.3695 190.744 29.375Z" fill="#455A64"/>
<path d="M185.825 31.3C185.786 31.3758 185.76 31.4576 185.748 31.542C185.69 31.7604 185.65 31.9829 185.627 32.2075C185.459 33.7045 185.793 35.2148 186.576 36.503C186.691 36.6968 186.822 36.8807 186.968 37.053C187.067 37.1795 187.128 37.2455 187.139 37.24C187.15 37.2345 186.946 36.943 186.67 36.4425C185.95 35.1441 185.626 33.6647 185.737 32.1855C185.776 31.6245 185.853 31.3 185.825 31.3Z" fill="#455A64"/>
<path d="M184.368 33.0381C184.318 33.0998 184.28 33.1708 184.258 33.2471C184.185 33.4474 184.138 33.6563 184.12 33.8686C184.072 34.5768 184.231 35.2836 184.578 35.9036C184.923 36.5103 185.353 37.0657 185.853 37.5536C186.043 37.7702 186.256 37.9657 186.488 38.1366C186.321 37.9045 186.136 37.6856 185.936 37.4821C185.468 36.9792 185.059 36.4258 184.716 35.8321C184.384 35.2352 184.217 34.5617 184.23 33.8796C184.256 33.5962 184.302 33.3149 184.368 33.0381Z" fill="#455A64"/>
<path d="M197.771 32.1799C197.796 32.4159 197.841 32.6494 197.903 32.8784C198.025 33.4307 198.071 33.9968 198.041 34.5614C198.002 35.1222 197.811 35.662 197.489 36.1234C197.339 36.3028 197.178 36.4736 197.009 36.6349C197.071 36.6158 197.128 36.586 197.18 36.5469C197.326 36.446 197.458 36.3257 197.572 36.1894C197.923 35.7296 198.131 35.1767 198.168 34.5999C198.205 34.0196 198.142 33.4373 197.98 32.8784C197.947 32.6362 197.876 32.4006 197.771 32.1799Z" fill="#455A64"/>
<path d="M198.952 34.5999C198.801 35.0763 198.56 35.519 198.24 35.9034C197.884 36.2577 197.465 36.5414 197.003 36.7394C197.157 36.7413 197.308 36.7054 197.445 36.6349C197.79 36.4969 198.1 36.2825 198.35 36.0079C198.602 35.733 198.791 35.4063 198.902 35.0509C198.956 34.907 198.973 34.752 198.952 34.5999Z" fill="#455A64"/>
<path d="M179.102 41.5355C179.135 41.5355 179.036 41.7445 178.975 42.0525C178.936 42.2244 178.955 42.4042 179.03 42.564C179.083 42.6509 179.157 42.7239 179.244 42.7765C179.332 42.8292 179.43 42.86 179.532 42.8665C179.636 42.8702 179.739 42.8515 179.834 42.8116C179.929 42.7717 180.015 42.7116 180.084 42.6355C180.212 42.511 180.297 42.3492 180.327 42.1735C180.388 41.8655 180.327 41.6565 180.355 41.6235C180.382 41.5905 180.509 41.805 180.487 42.1735C180.473 42.3908 180.388 42.5975 180.244 42.762C180.154 42.8657 180.04 42.9478 179.913 43.002C179.786 43.0563 179.648 43.0814 179.51 43.0755C179.369 43.0674 179.233 43.0225 179.115 42.9453C178.996 42.868 178.901 42.7612 178.837 42.6355C178.749 42.4335 178.739 42.2062 178.809 41.9975C178.925 41.6785 179.085 41.5245 179.102 41.5355Z" fill="#263238"/>
<path d="M178.611 40.2539C178.611 40.2869 178.484 40.3309 178.417 40.5124C178.379 40.6096 178.379 40.7177 178.417 40.8149C178.446 40.8693 178.487 40.9164 178.536 40.9527C178.586 40.9889 178.644 41.0133 178.704 41.0239C178.823 41.042 178.944 41.0213 179.05 40.9647C179.155 40.9081 179.239 40.8189 179.289 40.7104C179.378 40.5289 179.378 40.3914 179.411 40.3859C179.444 40.3804 179.51 40.5289 179.444 40.7709C179.401 40.9144 179.314 41.0411 179.196 41.1339C179.118 41.1935 179.029 41.2349 178.933 41.2549C178.837 41.2749 178.738 41.273 178.644 41.2494C178.556 41.2345 178.474 41.1988 178.403 41.1454C178.333 41.0919 178.276 41.0224 178.238 40.9425C178.2 40.8627 178.182 40.7749 178.185 40.6866C178.189 40.5984 178.213 40.5122 178.257 40.4354C178.417 40.2044 178.622 40.2209 178.611 40.2539Z" fill="#263238"/>
<path d="M179.499 38.3181C179.499 38.3511 179.361 38.3181 179.179 38.3731C179.069 38.4055 178.973 38.4742 178.907 38.568C178.841 38.6618 178.809 38.7751 178.816 38.8894C178.823 39.0037 178.869 39.1123 178.946 39.1973C179.023 39.2823 179.126 39.3388 179.24 39.3576C179.422 39.3961 179.549 39.3576 179.56 39.3576C179.571 39.3576 179.466 39.5006 179.223 39.5006C179.078 39.5 178.938 39.4494 178.826 39.3576C178.756 39.2993 178.698 39.2272 178.657 39.1458C178.617 39.0644 178.593 38.9754 178.588 38.8846C178.576 38.7215 178.625 38.5597 178.728 38.432C178.83 38.3043 178.978 38.2203 179.14 38.1971C179.4 38.1861 179.516 38.2961 179.499 38.3181Z" fill="#263238"/>
<path d="M188.618 46.1774C188.712 46.2324 188.337 46.8374 188.585 47.5909C188.834 48.3444 189.529 48.6909 189.479 48.7679C189.43 48.8449 189.259 48.7679 188.983 48.6359C188.629 48.4154 188.363 48.0789 188.232 47.6844C188.103 47.3036 188.126 46.8877 188.298 46.5239C188.42 46.2599 188.58 46.1499 188.618 46.1774Z" fill="#263238"/>
<path d="M156.133 150.1L152.744 159.252C152.744 159.252 162.47 164.103 162.376 165.984L142.786 163.85L147.384 148.692L156.133 150.1Z" fill="#455A64"/>
<path d="M146.782 157.75C146.587 157.789 146.413 157.896 146.292 158.053C146.172 158.21 146.112 158.406 146.125 158.603C146.155 158.797 146.259 158.973 146.415 159.094C146.571 159.215 146.768 159.271 146.964 159.252C147.171 159.213 147.356 159.1 147.483 158.933C147.611 158.766 147.672 158.559 147.654 158.35C147.602 158.15 147.474 157.977 147.297 157.868C147.12 157.76 146.908 157.723 146.705 157.767" fill="white"/>
<path d="M142.786 163.85L143.255 162.304L161.736 164.911C161.736 164.911 162.564 165.384 162.398 166.011L142.786 163.85Z" fill="white"/>
<path d="M152.76 159.378C152.76 159.472 152.264 159.466 151.756 159.719C151.248 159.972 150.961 160.346 150.873 160.302C150.784 160.258 150.994 159.719 151.612 159.417C152.23 159.114 152.788 159.29 152.76 159.378Z" fill="#263238"/>
<path d="M154.853 160.5C154.853 160.599 154.433 160.715 154.063 161.083C153.693 161.452 153.555 161.864 153.456 161.853C153.357 161.842 153.362 161.303 153.831 160.841C154.301 160.379 154.858 160.412 154.853 160.5Z" fill="#263238"/>
<path d="M155.763 163.085C155.675 163.085 155.592 162.607 155.896 162.112C156.199 161.617 156.668 161.457 156.702 161.562C156.735 161.666 156.426 161.897 156.183 162.304C155.94 162.711 155.857 163.085 155.763 163.085Z" fill="#263238"/>
<path d="M153.511 157.333C153.456 157.415 153.047 157.195 152.506 157.124C151.966 157.052 151.518 157.124 151.485 157.041C151.452 156.959 151.921 156.7 152.556 156.794C153.191 156.887 153.572 157.25 153.511 157.333Z" fill="#263238"/>
<path d="M94.5575 130.889L84.4559 132.803C84.4559 132.803 84.7154 143.638 83.0097 144.435L75.7178 126.192L91.2952 123.112L94.5575 130.889Z" fill="#455A64"/>
<path d="M82.9931 126.851C82.8698 126.696 82.6936 126.592 82.498 126.559C82.3024 126.525 82.1013 126.565 81.9332 126.67C81.7731 126.787 81.6647 126.961 81.6307 127.156C81.5967 127.351 81.6399 127.551 81.7511 127.715C81.8812 127.874 82.0652 127.98 82.2686 128.014C82.4719 128.047 82.6805 128.006 82.8551 127.896C83.0069 127.757 83.099 127.566 83.1124 127.361C83.1258 127.156 83.0593 126.954 82.9268 126.796" fill="white"/>
<path d="M75.7178 126.191L77.2799 125.9L83.6279 143.368C83.6279 143.368 83.5948 144.325 82.9876 144.468L75.7178 126.191Z" fill="white"/>
<path d="M84.3565 132.874C84.2626 132.907 84.0473 132.478 83.5837 132.153C83.12 131.829 82.6508 131.741 82.6563 131.647C82.6618 131.554 83.2083 131.477 83.7603 131.878C84.3123 132.28 84.4558 132.857 84.3565 132.874Z" fill="#263238"/>
<path d="M84.3401 135.25C84.2628 135.305 83.9537 134.975 83.4569 134.826C82.9601 134.678 82.524 134.744 82.4909 134.656C82.4577 134.568 82.9435 134.304 83.5617 134.507C84.18 134.711 84.4229 135.206 84.3401 135.25Z" fill="#263238"/>
<path d="M82.4797 137.257C82.4245 137.18 82.822 136.883 83.4071 136.916C83.9922 136.949 84.3455 137.29 84.2848 137.356C84.224 137.422 83.8652 137.268 83.385 137.246C82.9048 137.224 82.5239 137.34 82.4797 137.257Z" fill="#263238"/>
<path d="M86.5205 132.577C86.4212 132.577 86.4267 132.104 86.239 131.593C86.0513 131.081 85.7643 130.729 85.8305 130.658C85.8968 130.586 86.3384 130.878 86.5536 131.483C86.7689 132.088 86.6033 132.599 86.5205 132.577Z" fill="#263238"/>
<path d="M138.397 70.4985C138.397 70.4985 131.773 73.7655 128.539 78.8365C125.304 83.9075 116.108 108.795 116.108 108.795C116.108 108.795 112.321 111.171 111.736 112.937C111.151 114.702 85.8691 122.919 85.8691 122.919L88.3476 132.929C88.3476 132.929 118.928 126.329 120.965 124.47C123.002 122.611 141.218 101.227 141.218 101.227L154.676 124.327C154.676 124.327 150.001 134.277 148.869 137.896C147.737 141.515 143.548 153.769 143.548 153.769L154.56 154.544C154.56 154.544 164.634 132.874 167.179 128.694C169.723 124.514 169.387 121.819 168.465 119.372C167.543 116.924 154.974 86.6025 154.974 86.6025L159.644 82.395L143.989 67.05L138.397 70.4985Z" fill="#263238"/>
<path d="M117.863 119.251C117.685 118.874 117.553 118.477 117.471 118.068C117.23 117.097 117.073 116.107 117.002 115.109C116.891 113.787 116.95 112.456 117.179 111.149H117.261C117.217 111.325 117.19 111.408 117.173 111.408C117.157 111.408 117.173 111.314 117.173 111.133H117.261C117.175 112.442 117.175 113.756 117.261 115.065C117.333 116.051 117.466 117.032 117.659 118.002C117.759 118.412 117.827 118.83 117.863 119.251Z" fill="#455A64"/>
<path d="M117.449 118.893C116.775 118.111 116.218 117.237 115.793 116.297C115.283 115.392 114.911 114.417 114.689 113.404C114.761 113.376 115.241 114.669 116.008 116.182C116.776 117.694 117.515 118.849 117.449 118.893Z" fill="#455A64"/>
<path d="M161.857 124.019C160.957 123.783 160.029 123.665 159.097 123.667C158.18 123.755 157.278 123.962 156.415 124.283C156.619 124.092 156.862 123.946 157.127 123.854C157.75 123.596 158.412 123.445 159.086 123.409C159.761 123.377 160.435 123.464 161.079 123.667C161.361 123.727 161.626 123.847 161.857 124.019Z" fill="#455A64"/>
<path d="M160.119 124.943C160.086 125.014 159.175 124.618 157.982 124.497C156.79 124.376 155.813 124.563 155.774 124.497C156.485 124.259 157.24 124.176 157.986 124.255C158.731 124.334 159.452 124.572 160.097 124.954L160.119 124.943Z" fill="#455A64"/>
<path d="M146.446 94.77C146.219 95.19 145.952 95.5877 145.651 95.958C145.132 96.6675 144.381 97.608 143.514 98.6585C142.648 99.709 141.825 100.595 141.218 101.227C140.905 101.59 140.558 101.921 140.18 102.217C140.448 101.825 140.749 101.457 141.08 101.117L143.288 98.5045L145.496 95.8535C145.782 95.467 146.1 95.1046 146.446 94.77Z" fill="#455A64"/>
<path d="M117.615 111.627C117.657 111.505 117.709 111.385 117.769 111.27C117.868 111.039 118.045 110.72 118.238 110.258C118.647 109.378 119.199 108.091 119.817 106.474C120.435 104.857 121.109 102.91 121.815 100.732C122.522 98.5539 123.272 96.1504 124.15 93.6534C124.967 91.2991 125.929 88.9975 127.032 86.7619C127.934 84.9352 128.998 83.1922 130.211 81.5534C131.026 80.4479 131.933 79.4121 132.921 78.4569C133.264 78.1104 133.562 77.8794 133.755 77.7089C133.85 77.6197 133.952 77.537 134.059 77.4614C133.978 77.5651 133.887 77.6609 133.788 77.7474C133.611 77.9289 133.324 78.1764 132.993 78.5284C132.037 79.5068 131.155 80.5547 130.355 81.6634C129.173 83.3074 128.134 85.048 127.247 86.8664C126.16 89.0981 125.207 91.392 124.393 93.7359C123.515 96.2274 122.737 98.6309 122.042 100.803C121.346 102.976 120.634 104.928 119.988 106.54C119.342 108.151 118.768 109.433 118.332 110.302C118.122 110.742 117.935 111.066 117.813 111.292C117.76 111.411 117.693 111.524 117.615 111.627Z" fill="#455A64"/>
<path d="M116.472 112.321C116.472 112.398 115.997 112.535 115.484 112.871C114.97 113.206 114.645 113.602 114.584 113.558C114.523 113.514 114.777 113.008 115.34 112.656C115.497 112.529 115.678 112.434 115.872 112.376C116.067 112.318 116.27 112.3 116.472 112.321Z" fill="#455A64"/>
<path d="M114.198 114.35C114.123 114.411 114.039 114.461 113.949 114.499L113.21 114.867C112.569 115.186 111.625 115.626 110.45 116.149C108.109 117.205 104.836 118.563 101.148 119.878C97.461 121.192 94.0551 122.204 91.5766 122.87C90.3401 123.2 89.3355 123.458 88.6345 123.618L87.8285 123.794C87.7344 123.818 87.6384 123.835 87.5415 123.843C87.6287 123.798 87.7215 123.765 87.8175 123.744L88.6069 123.519L91.5325 122.694C93.9944 121.99 97.3781 120.945 101.06 119.636C104.742 118.327 108.021 116.99 110.372 115.984L113.132 114.774L113.894 114.449C113.991 114.405 114.093 114.371 114.198 114.35Z" fill="#455A64"/>
<path d="M138 82.7305C137.79 83.0166 137.523 83.2563 137.216 83.4345C136.495 83.9092 135.673 84.2087 134.815 84.309C133.956 84.414 133.085 84.318 132.27 84.0285C131.943 83.9313 131.638 83.7684 131.376 83.55C131.376 83.5115 131.751 83.704 132.364 83.88C133.158 84.1159 133.991 84.1888 134.814 84.0942C135.636 83.9997 136.431 83.7397 137.15 83.33C137.422 83.1153 137.706 82.9152 138 82.7305Z" fill="#455A64"/>
<path d="M146.236 153.878C146.25 153.772 146.272 153.668 146.302 153.565C146.357 153.334 146.435 153.042 146.528 152.679C146.733 151.915 147.047 150.809 147.456 149.451C148.273 146.734 149.498 143.01 151.038 138.968C152.578 134.925 154.163 131.328 155.366 128.76C155.968 127.473 156.47 126.439 156.829 125.735C157.005 125.399 157.143 125.135 157.248 124.921C157.293 124.824 157.349 124.731 157.414 124.646C157.385 124.75 157.346 124.851 157.298 124.948L156.923 125.779C156.58 126.527 156.111 127.566 155.532 128.831C154.372 131.416 152.827 135.019 151.281 139.056C149.736 143.093 148.488 146.805 147.627 149.506C147.213 150.831 146.871 151.92 146.628 152.707C146.512 153.064 146.424 153.35 146.352 153.576C146.325 153.681 146.286 153.782 146.236 153.878Z" fill="#455A64"/>
<path d="M183.264 54.1195L177.324 48.3995C177.324 48.3995 171.589 48.3115 168.492 49.2905C165.396 50.2695 133.457 72.9405 133.457 72.9405C137.73 74.64 141.483 78.4405 145.016 83.11C147.997 86.6355 149.001 91.8715 153.34 93.4665C154.262 93.802 157.552 92.834 157.552 92.834L158.308 89.424L184.291 64.718C184.291 64.718 185.472 57.6175 183.264 54.1195Z" fill="#FF2145"/>
<g opacity="0.3">
<path opacity="0.3" d="M164.336 72.6489C160.952 72.7673 157.632 71.7031 154.952 69.6404C158.965 67.5614 162.443 64.6134 165.887 61.6874C168.493 59.4874 172.804 55.8079 176.248 53.4814C169.221 54.3504 159.18 57.5899 153.064 61.1814C147.809 64.2834 142.99 68.3699 137.111 70.0364L136.234 69.9814C136.327 71.6974 137.702 73.1549 139.308 73.7874C140.954 74.3388 142.714 74.46 144.42 74.1394C146.115 73.8206 147.827 73.5966 149.548 73.4684C152.175 73.4079 154.731 74.1944 157.315 74.6454C159.898 75.0964 162.719 75.1624 164.971 73.8204C165.197 73.6829 165.434 73.5014 165.451 73.2374C165.501 72.7589 164.822 72.6269 164.336 72.6489Z" fill="black"/>
</g>
<path d="M177.744 69.0959C167.897 71.0512 157.728 70.6991 148.041 68.0674L148.3 71.5049C153.312 72.6709 158.369 73.8369 163.513 74.0404C168.658 74.2439 173.968 73.4079 178.417 70.8119C178.158 70.2399 177.937 69.6679 177.744 69.0959Z" fill="#455A64"/>
<g opacity="0.3">
<path opacity="0.3" d="M173.223 72.693C173.035 68.1062 173.164 63.512 173.609 58.943L173.714 58.481C172.699 59.581 172.395 61.11 172.202 62.5785C171.605 67.0517 171.623 71.5852 172.257 76.0535L173.361 75.3165C173.372 75.113 173.245 73.6115 173.223 72.693Z" fill="black"/>
</g>
<path d="M181.89 51.8811C179.268 49.6811 174.277 50.8196 171.087 52.1011L168.735 56.9631C171.876 55.9841 177.192 52.6071 180.211 53.9161C183.231 55.2251 184.296 57.9641 185.008 61.1761C185.366 59.4904 185.266 57.74 184.718 56.1059C184.169 54.4719 183.193 53.0133 181.89 51.8811Z" fill="#263238"/>
<path d="M171.175 44.2194C168.415 42.2779 164.893 42.5089 161.62 42.8609C155.278 43.5429 151.038 46.5899 144.508 48.8009C140.443 50.1256 137.046 52.9601 135.025 56.7154C132.574 61.4234 132.916 65.7739 136.09 70.0639L137.194 71.1199C138.323 72.2165 139.748 72.9617 141.295 73.2645C142.842 73.5673 144.443 73.4145 145.905 72.8249C154.323 69.3874 159.649 63.8489 168.261 58.5249C170.778 56.9684 173.345 55.2249 174.084 52.0734C174.432 50.6244 174.341 49.1053 173.823 47.7076C173.305 46.31 172.384 45.0962 171.175 44.2194Z" fill="#455A64"/>
<path d="M173.466 47.1565C173.464 47.3117 173.448 47.4664 173.416 47.6185C173.323 48.053 173.18 48.4756 172.991 48.878C172.225 50.3315 171.14 51.5947 169.817 52.574C165.6 55.9048 161.193 58.9899 156.619 61.814C153.947 63.464 151.336 64.96 148.935 66.2525C147.732 66.9015 146.583 67.4955 145.496 68.0455C144.497 68.5696 143.469 69.0361 142.416 69.4425C140.886 70.0693 139.209 70.2487 137.58 69.9595C137.144 69.866 136.719 69.722 136.316 69.5305C136.211 69.4808 136.11 69.4239 136.013 69.36C135.976 69.343 135.943 69.3207 135.913 69.294C136.453 69.5432 137.02 69.7278 137.602 69.844C139.208 70.0865 140.85 69.8789 142.344 69.2445C143.386 68.8288 144.403 68.3551 145.391 67.8255C146.468 67.2755 147.599 66.6705 148.808 66.016C151.198 64.7125 153.776 63.222 156.47 61.561C161.042 58.7405 165.464 55.6857 169.718 52.409C171.031 51.4591 172.123 50.2377 172.919 48.8285C173.169 48.2955 173.353 47.734 173.466 47.1565Z" fill="#263238"/>
<path d="M155.52 62.0616C155.454 62.1001 153.412 59.0256 150.966 55.1921C148.521 51.3586 146.584 48.2071 146.65 48.1631C146.716 48.1191 148.758 51.1991 151.209 55.0381C153.66 58.8771 155.587 62.0176 155.52 62.0616Z" fill="#263238"/>
<path d="M153.373 58.6845C153.17 58.7851 152.997 58.9367 152.871 59.1245C152.746 59.354 152.607 59.5762 152.457 59.79C152.345 59.9315 152.193 60.0367 152.021 60.0925C151.919 60.1197 151.812 60.122 151.709 60.099C151.606 60.076 151.51 60.0284 151.43 59.9605C151.34 59.8851 151.276 59.783 151.248 59.669C151.239 59.6091 151.242 59.5481 151.257 59.4895C151.272 59.4309 151.299 59.376 151.336 59.328C151.461 59.1942 151.625 59.1037 151.805 59.0695L152.556 58.866C152.987 58.756 153.257 58.7065 153.268 58.745C153.279 58.7835 153.031 58.899 152.617 59.0585L151.883 59.3225C151.596 59.3995 151.408 59.5755 151.612 59.7405C151.658 59.7779 151.711 59.8047 151.768 59.8189C151.826 59.8332 151.886 59.8346 151.943 59.823C152.066 59.787 152.174 59.714 152.253 59.614C152.435 59.4215 152.556 59.1795 152.711 59.0035C152.825 58.8521 152.983 58.7389 153.163 58.679C153.296 58.6405 153.373 58.668 153.373 58.6845Z" fill="#263238"/>
<path d="M165.004 170.257C165.004 171.014 164.778 171.754 164.356 172.383C163.934 173.012 163.334 173.502 162.632 173.79C161.93 174.079 161.158 174.154 160.413 174.005C159.668 173.856 158.985 173.491 158.449 172.954C157.913 172.418 157.549 171.736 157.403 170.993C157.257 170.25 157.335 169.481 157.628 168.783C157.921 168.085 158.415 167.489 159.048 167.071C159.681 166.653 160.425 166.432 161.184 166.435C162.199 166.439 163.17 166.844 163.886 167.56C164.602 168.277 165.004 169.246 165.004 170.257Z" fill="#263238"/>
<path d="M164.623 170.257C164.595 170.257 164.623 169.949 164.463 169.432C164.26 168.698 163.817 168.051 163.204 167.595C162.785 167.286 162.299 167.077 161.786 166.985C161.165 166.872 160.526 166.935 159.94 167.168C159.354 167.4 158.846 167.792 158.474 168.299C158.054 168.867 157.828 169.553 157.828 170.257C157.828 170.962 158.054 171.648 158.474 172.215C158.86 172.748 159.399 173.153 160.019 173.376C160.578 173.583 161.183 173.636 161.769 173.53C162.283 173.438 162.768 173.229 163.188 172.919C163.801 172.464 164.243 171.817 164.446 171.082C164.59 170.565 164.579 170.257 164.606 170.257C164.615 170.331 164.615 170.404 164.606 170.477C164.609 170.69 164.585 170.903 164.535 171.11C164.36 171.886 163.919 172.577 163.287 173.062C162.852 173.403 162.341 173.635 161.797 173.739C161.281 173.839 160.749 173.825 160.24 173.697C159.73 173.568 159.256 173.329 158.85 172.996C158.444 172.663 158.118 172.245 157.893 171.772C157.669 171.298 157.553 170.781 157.553 170.257C157.553 169.734 157.669 169.217 157.893 168.743C158.118 168.27 158.444 167.852 158.85 167.519C159.256 167.186 159.73 166.947 160.24 166.818C160.749 166.69 161.281 166.675 161.797 166.776C162.341 166.88 162.852 167.112 163.287 167.452C163.919 167.938 164.36 168.629 164.535 169.405C164.585 169.612 164.609 169.824 164.606 170.037C164.62 170.11 164.626 170.184 164.623 170.257Z" fill="#455A64"/>
<path d="M112.735 171.583C112.735 172.339 112.51 173.079 112.088 173.707C111.666 174.336 111.067 174.826 110.365 175.115C109.664 175.404 108.892 175.48 108.148 175.332C107.404 175.184 106.72 174.819 106.184 174.284C105.647 173.749 105.282 173.067 105.135 172.325C104.988 171.584 105.064 170.815 105.356 170.116C105.647 169.418 106.139 168.821 106.771 168.402C107.403 167.983 108.145 167.759 108.904 167.761C109.92 167.762 110.895 168.165 111.613 168.882C112.331 169.599 112.735 170.57 112.735 171.583Z" fill="#263238"/>
<path d="M112.354 171.583C112.354 171.583 112.354 171.275 112.2 170.752C111.991 170.02 111.547 169.377 110.935 168.921C110.487 168.588 109.963 168.372 109.409 168.292C108.856 168.212 108.291 168.272 107.767 168.464C107.148 168.688 106.611 169.092 106.227 169.625C105.807 170.192 105.581 170.878 105.581 171.583C105.581 172.288 105.807 172.974 106.227 173.541C106.489 173.899 106.82 174.201 107.2 174.43C107.58 174.66 108.002 174.812 108.442 174.877C108.881 174.943 109.33 174.92 109.761 174.812C110.191 174.703 110.596 174.511 110.952 174.245C111.564 173.787 112.008 173.142 112.216 172.408C112.354 171.891 112.343 171.583 112.371 171.583C112.398 171.583 112.371 171.66 112.371 171.803C112.368 172.016 112.342 172.228 112.293 172.435C112.119 173.211 111.678 173.902 111.046 174.388C110.612 174.728 110.103 174.96 109.561 175.064C108.857 175.202 108.128 175.124 107.469 174.841C106.81 174.558 106.252 174.083 105.87 173.479C105.487 172.874 105.297 172.168 105.324 171.454C105.351 170.74 105.595 170.05 106.023 169.476C106.437 168.907 107.014 168.475 107.679 168.239C108.28 168.026 108.929 167.978 109.555 168.101C110.222 168.226 110.838 168.54 111.328 169.007C111.818 169.474 112.161 170.073 112.315 170.73C112.364 170.938 112.39 171.15 112.393 171.363C112.371 171.506 112.365 171.583 112.354 171.583Z" fill="#455A64"/>
<path d="M173.256 169.405C173.229 169.499 172.185 169.273 170.336 168.8L168.802 168.393L166.958 167.97C165.639 167.673 164.148 167.277 162.465 166.98L159.843 166.468C158.932 166.287 157.971 166.166 156.983 166.001C155.013 165.654 152.882 165.451 150.652 165.17C145.797 164.696 140.918 164.494 136.04 164.565C131.155 164.687 126.28 165.087 121.44 165.764C119.232 166.122 117.101 166.424 115.142 166.864C114.165 167.068 113.21 167.227 112.304 167.442L109.704 168.063C108.048 168.426 106.564 168.883 105.255 169.229L103.434 169.73L101.916 170.197C100.089 170.747 99.0564 171.011 99.0233 170.918C98.9902 170.824 99.9507 170.368 101.734 169.669L103.218 169.081C103.77 168.877 104.372 168.685 105.018 168.465C106.315 168.041 107.778 167.513 109.434 167.084L112.034 166.364C112.939 166.122 113.9 165.929 114.888 165.698C116.853 165.22 118.989 164.868 121.23 164.472C130.998 162.898 140.939 162.696 150.762 163.872C153.02 164.175 155.178 164.422 157.149 164.846C158.143 165.033 159.108 165.187 160.025 165.396L162.652 166.006C164.308 166.369 165.821 166.842 167.135 167.211C167.786 167.403 168.399 167.574 168.956 167.761L170.463 168.311C172.307 168.91 173.289 169.312 173.256 169.405Z" fill="#FF2145"/>
<path d="M191.489 102.211C191.588 102.492 192.19 103.735 192.19 103.735L194.431 108.833L194.652 115.95C194.513 116.015 194.362 116.048 194.209 116.044C194.056 116.041 193.906 116.002 193.77 115.931C193.635 115.86 193.518 115.759 193.429 115.636C193.339 115.512 193.28 115.369 193.255 115.219C193.062 114.105 192.949 112.978 192.918 111.847L189.529 116.176C189.529 116.176 188.425 115.367 189.115 114.339L187.707 115.092C187.349 114.599 187.202 113.984 187.299 113.382C187.509 112.485 189.938 109.917 189.938 109.917L185.698 109.746C185.698 109.746 184.969 109.196 185.671 108.74C186.718 108.284 187.802 107.916 188.911 107.64C188.471 107.534 188.059 107.336 187.702 107.06C187.344 106.785 187.049 106.437 186.835 106.039C186.412 105.137 186.239 104.138 186.333 103.146L191.489 102.211Z" fill="#FFBE9D"/>
<path d="M175.293 66.2249C175.293 66.2249 178.081 85.2054 178.108 86.4484C178.219 87.814 178.403 89.1726 178.66 90.5184C178.66 90.5184 178.577 90.3864 179.615 92.1684C180.653 93.9504 187.238 105.55 187.238 105.55L192.206 103.724C192.206 103.724 187.073 88.6044 186.62 86.2999C186.167 83.9954 186.968 72.4729 185.753 67.6604C184.539 62.8479 175.293 66.2249 175.293 66.2249Z" fill="#FFBE9D"/>
<path d="M177.705 53.8005C177.485 53.857 177.274 53.9421 177.076 54.0535C176.11 54.6035 173.389 56.556 173.212 62.4685C172.969 69.899 173.361 75.3 173.361 75.3L187.161 74.2C187.095 74.112 186.311 51.7105 177.705 53.8005Z" fill="#FF2145"/>
<path d="M187.156 74.1999C187.07 74.2263 186.98 74.2411 186.891 74.2439L186.123 74.3319L183.253 74.6014L173.361 75.4429H173.223V75.2999C173.129 73.7654 173.057 72.1099 173.024 70.3994C172.964 67.8144 172.986 65.3504 173.091 63.1119C173.195 60.8734 173.444 58.8274 174.195 57.2599C174.727 56.0055 175.632 54.9439 176.789 54.2184C177.106 54.0298 177.443 53.8767 177.794 53.7619C177.914 53.7235 178.038 53.6959 178.163 53.6794C177.706 53.8463 177.265 54.0582 176.85 54.3119C175.743 55.0562 174.882 56.1108 174.377 57.3424C173.692 58.8824 173.455 60.8954 173.378 63.1229C173.3 65.3504 173.273 67.8144 173.333 70.3939C173.367 72.0989 173.433 73.7489 173.527 75.2834L173.372 75.1569L183.264 74.4199L186.145 74.2329L186.918 74.1944C186.997 74.1875 187.077 74.1893 187.156 74.1999Z" fill="#263238"/>
<path d="M265.998 264.808C265.998 264.885 208.689 264.951 138.005 264.951C67.3219 264.951 10.0022 264.885 10.0022 264.808C10.0022 264.731 67.2998 264.665 138.005 264.665C208.711 264.665 265.998 264.726 265.998 264.808Z" fill="#263238"/>
</svg>
