<svg width="127" height="128" viewBox="0 0 127 128" fill="none" xmlns="http://www.w3.org/2000/svg">
<path d="M125.43 100.492L115.342 94.6706V40.4059C115.342 39.3436 114.775 38.3634 113.856 37.8318L66.8515 10.6848V3.50831C66.8515 1.86565 65.522 0.536133 63.8793 0.536133C62.2367 0.536133 60.9071 1.86565 60.9071 3.50831V10.6875L13.9025 37.83C12.9834 38.3608 12.4164 39.3418 12.4164 40.4041V94.6688L2.32868 100.492C0.908062 101.312 0.420646 103.129 1.24065 104.552C1.79174 105.505 2.79044 106.038 3.81654 106.038C4.31988 106.038 4.83116 105.912 5.30087 105.64L15.3886 99.8171L62.3955 126.951C62.8546 127.215 63.3676 127.348 63.8807 127.348C64.3937 127.348 64.9068 127.215 65.3668 126.95L112.369 99.8162L122.457 105.639C122.925 105.911 123.436 106.037 123.941 106.037C124.967 106.037 125.966 105.504 126.517 104.551C127.335 103.129 126.85 101.312 125.429 100.492L125.43 100.492ZM109.398 42.1218V91.2369L99.1278 85.3084V49.7622C99.1278 49.7348 99.1181 49.7092 99.1163 49.6791C99.1128 49.4748 99.0845 49.2731 99.0367 49.0705C99.0252 49.0289 99.019 48.9856 99.0066 48.944C98.9412 48.7158 98.8562 48.4902 98.7315 48.2762C98.6068 48.0603 98.452 47.8737 98.2875 47.7012C98.2556 47.6693 98.2238 47.6419 98.1902 47.6118C98.0416 47.4712 97.8814 47.3464 97.709 47.2412C97.6833 47.2253 97.6656 47.2014 97.64 47.1881L66.8516 29.4046V17.5478L109.398 42.1218ZM34.5736 85.3084V54.9095L60.9032 70.111V100.508L34.5736 85.3084ZM63.8788 34.5537L90.2128 49.7631L63.8765 64.9628L37.5447 49.7613L63.8788 34.5537ZM66.8473 70.1112L93.1837 54.9133V85.31L66.8473 100.511V70.1112ZM18.3617 42.1195L60.9075 17.5517V29.4051L30.1146 47.1868C30.0809 47.2063 30.0571 47.2363 30.0234 47.2558C29.8669 47.3531 29.7245 47.4654 29.5873 47.5911C29.544 47.6326 29.498 47.668 29.4564 47.7122C29.2963 47.8803 29.1477 48.0625 29.0248 48.2731C28.9018 48.4854 28.8187 48.7074 28.7514 48.933C28.7373 48.9825 28.7293 49.0356 28.7161 49.0878C28.6727 49.278 28.6471 49.4682 28.6409 49.6601C28.6409 49.6937 28.6267 49.7256 28.6267 49.7592V85.3076L18.3585 91.2361V42.1209L18.3617 42.1195ZM63.8808 120.945L21.3328 96.3864L31.601 90.4579L62.3939 108.233C62.4213 108.249 62.4549 108.256 62.4833 108.271C62.654 108.363 62.83 108.436 63.0184 108.492C63.0715 108.508 63.121 108.53 63.175 108.54C63.4006 108.595 63.635 108.632 63.8765 108.632H63.8782H63.88C63.8836 108.632 63.888 108.631 63.8942 108.631C64.1277 108.629 64.3541 108.593 64.5735 108.541C64.639 108.525 64.7027 108.501 64.7681 108.482C64.9344 108.431 65.0928 108.363 65.2458 108.284C65.2856 108.262 65.329 108.256 65.3688 108.234L96.1572 90.4588L106.427 96.3873L63.8808 120.945Z" fill="#FF2145"/>
</svg>
