<svg width="57" height="58" viewBox="0 0 57 58" fill="none" xmlns="http://www.w3.org/2000/svg">
<path d="M12.4856 35.9998L17.1197 6.18222C17.1538 5.9614 17.2564 5.75687 17.413 5.59757C17.5697 5.43827 17.7725 5.33227 17.9927 5.29457C18.2129 5.25687 18.4394 5.28938 18.6401 5.38749C18.8409 5.48561 19.0057 5.64437 19.1112 5.8413L24.0957 15.1966L12.4856 35.9998ZM45.4043 43.2343L40.9912 15.7938C40.958 15.6018 40.8728 15.4225 40.7449 15.2754C40.617 15.1283 40.4513 15.019 40.2658 14.9595C40.0802 14.8999 39.8819 14.8922 39.6923 14.9373C39.5026 14.9825 39.329 15.0786 39.1902 15.2154L11.3594 43.2343L26.7595 51.9125C27.7259 52.4533 28.9038 52.4533 29.8701 51.9125L45.4043 43.2343ZM32.889 19.2876L29.3223 12.4622C29.2322 12.2909 29.0969 12.1474 28.9312 12.0473C28.7654 11.9472 28.5755 11.8944 28.3819 11.8944C28.1882 11.8944 27.9983 11.9472 27.8326 12.0473C27.6668 12.1474 27.5315 12.2909 27.4414 12.4622L11.7802 40.5281L32.889 19.2876Z" fill="white"/>
</svg>
