<svg width="116" height="115" viewBox="0 0 116 115" fill="none" xmlns="http://www.w3.org/2000/svg">
<path d="M45.3434 -0.00298009C41.6385 0.0825051 38.5801 0.958266 36.3393 2.72624C34.0985 4.49422 32.8572 7.07418 32.4279 9.775C32.0641 12.0613 32.1887 14.4975 32.6725 16.9858C32.5252 16.9767 32.3742 16.9449 32.2241 16.9449C29.9788 16.9449 27.9544 17.4051 26.3166 18.5745C24.6869 19.7386 23.5739 21.2637 22.2425 23.2598C22.2361 23.2707 22.2488 23.2907 22.2425 23.3008C22.2124 23.3435 16.9316 30.9143 11.6496 40.9824C6.35323 51.0795 0.935059 63.604 0.935059 74.309C0.935059 94.4442 8.0248 101.995 15.7238 113.542C16.2003 114.272 17.0106 114.716 17.8827 114.723H46.5648C48.0044 114.723 49.1721 113.557 49.1721 112.116C49.1721 103.768 48.851 95.8041 47.6642 88.9753C46.5666 82.6567 44.695 77.2748 41.3493 73.4116V49.537C41.3493 45.6928 38.9139 42.3991 35.5237 41.0632C36.0493 40.162 36.3731 39.7727 37.1943 38.0895C37.9527 36.5326 38.7557 34.853 39.3123 33.0779C41.6467 37.0857 44.3033 40.8541 46.9315 43.9563C48.8567 46.228 50.7747 48.1497 52.5943 49.5782C54.414 51.0078 56.0527 52.1454 58.2981 52.1454C60.5436 52.1454 62.1823 51.0077 64.002 49.5782C65.8217 48.1495 67.7397 46.2278 69.6648 43.9563C72.293 40.8544 74.9493 37.0857 77.284 33.0779C77.8405 34.853 78.6435 36.5327 79.402 38.0895C80.2232 39.7729 80.5469 40.1621 81.0726 41.0632C77.6824 42.3991 75.247 45.6931 75.247 49.537V73.4116C71.9013 77.2748 70.0297 82.6567 68.9321 88.9753C67.7453 95.8041 67.4242 103.768 67.4242 112.116C67.4242 113.557 68.5919 114.723 70.0315 114.723H98.7136C99.5857 114.716 100.396 114.272 100.872 113.542C108.571 101.994 115.661 94.4435 115.661 74.309C115.661 63.6035 110.243 51.0791 104.947 40.9824C99.6647 30.9143 94.3839 23.3434 94.3538 23.3008C94.3475 23.2907 94.3602 23.2698 94.3538 23.2598C93.0224 21.2637 91.9093 19.7386 90.2797 18.5745C88.6418 17.4051 86.6176 16.9449 84.3721 16.9449C84.2221 16.9449 84.0711 16.9767 83.9238 16.9858C84.4076 14.4975 84.5322 12.0614 84.1684 9.775C83.7392 7.07395 82.4978 4.49396 80.257 2.72624C78.0162 0.958522 74.9578 0.0826937 71.2529 -0.00298009C71.2392 -0.00388945 71.2265 -0.00388945 71.2129 -0.00298009C66.1937 0.0233925 62.0188 2.7288 58.2973 5.86358C54.5761 2.7288 50.4 0.0233273 45.3818 -0.00298009C45.3681 -0.00388945 45.3554 -0.00388945 45.3417 -0.00298009H45.3434ZM45.3834 5.21148H45.4653C49.0829 5.26513 52.8341 7.64503 56.5474 11.0371C57.5414 11.9392 59.0564 11.9392 60.0505 11.0371C63.7636 7.64503 67.5149 5.26503 71.1327 5.21148C71.1655 5.21239 71.1818 5.21057 71.2146 5.21148C74.0928 5.29242 75.8917 5.9672 76.9994 6.84114C78.1189 7.72419 78.7618 8.86095 79.0365 10.5898C79.5867 14.0475 78.1962 19.5912 75.5734 25.1749C72.9507 30.7586 69.1975 36.4161 65.6737 40.5747C63.9113 42.6545 62.1925 44.3579 60.7847 45.4637C59.376 46.5705 58.1984 46.9306 58.2992 46.9306C58.4 46.9306 57.2225 46.5705 55.8138 45.4637C54.406 44.3579 52.6871 42.6546 50.9248 40.5747C47.4007 36.4161 43.6476 30.7586 41.025 25.1749C38.4024 19.5912 37.0119 14.0473 37.562 10.5898C37.8366 8.86104 38.4796 7.72419 39.5991 6.84114C40.7067 5.9672 42.5055 5.29243 45.3839 5.21148H45.3834ZM32.2244 22.1602C32.8764 22.1602 33.0464 22.2812 33.3647 22.6086C33.6839 22.9359 34.0532 23.5525 34.3023 24.3601C34.7989 25.9761 34.8316 28.0268 34.8316 28.6789C34.8316 30.0503 33.7067 33.2688 32.4691 35.8087C31.2304 38.3477 30.0246 40.3313 30.0246 40.3313C29.9063 40.5086 29.8108 40.7005 29.739 40.9015C25.9477 42.01 23.0986 45.4068 23.0986 49.5382V87.3464C23.0886 88.0439 23.3587 88.7169 23.8489 89.2143C24.339 89.7109 25.0075 89.991 25.7059 89.991C26.4043 89.991 27.0727 89.7109 27.5629 89.2143C28.0531 88.7169 28.3232 88.0439 28.3132 87.3464V49.5382C28.3132 47.3265 30.0129 45.6277 32.2246 45.6277C34.4363 45.6277 36.136 47.3265 36.136 49.5382V74.3091C36.1415 74.9984 36.4198 75.6578 36.9099 76.1425C39.5363 78.7688 41.4369 83.567 42.5318 89.8719C43.5067 95.4847 43.8068 102.31 43.8768 109.51H19.2689C11.7445 98.4295 6.14963 92.614 6.14963 74.3091C6.14963 65.4577 11.1613 53.1717 16.2941 43.3874C21.4277 33.6022 26.5614 26.2349 26.5614 26.2349V26.194C27.8282 24.2942 28.6876 23.272 29.3314 22.8129C29.9752 22.3528 30.5582 22.1609 32.2243 22.1609L32.2244 22.1602ZM84.3736 22.1602C86.0396 22.1602 86.6226 22.3521 87.2665 22.8123C87.9103 23.2715 88.7697 24.2937 90.0365 26.1934V26.2343C90.0365 26.2343 95.1701 33.6015 100.304 43.3867C105.437 53.1719 110.448 65.4582 110.448 74.3084C110.448 92.6131 104.854 98.4298 97.329 109.509H72.721C72.7911 102.309 73.0912 95.4843 74.066 89.8713C75.161 83.5663 77.0616 78.7684 79.6879 76.1418C80.1781 75.6571 80.4564 74.9978 80.4618 74.3084V49.5375C80.4618 47.3259 82.1615 45.6271 84.3733 45.6271C86.585 45.6271 88.2847 47.3258 88.2847 49.5375V87.3458C88.2747 88.0433 88.5448 88.7162 89.035 89.2137C89.5251 89.7102 90.1936 89.9903 90.892 89.9903C91.5904 89.9903 92.2588 89.7102 92.749 89.2137C93.2392 88.7162 93.5093 88.0433 93.4993 87.3458V49.5375C93.4993 45.4196 90.6718 42.0213 86.8996 40.9008C86.815 40.6971 86.7059 40.5061 86.5731 40.3306C86.5731 40.3306 85.3673 38.3472 84.1286 35.808C82.8909 33.2681 81.7661 30.0497 81.7661 28.6783C81.7661 28.0262 81.7988 25.9756 82.2954 24.3594C82.5445 23.5519 82.9137 22.9353 83.2329 22.6079C83.5512 22.2805 83.7213 22.1596 84.3733 22.1596L84.3736 22.1602Z" fill="#FF2145"/>
</svg>
