<svg width="105" height="105" viewBox="0 0 105 105" fill="none" xmlns="http://www.w3.org/2000/svg">
<path d="M102.09 54.2292L103.243 50.9087C95.318 48.154 85.9369 50.3813 79.9129 56.1724C75.7291 54.5777 70.9369 54.0628 65.995 54.8029C59.5375 55.7683 53.9599 58.7286 50.1118 62.9918C47.5572 61.2675 45.9609 60.3634 43.4228 59.8887C42.3256 59.683 41.2921 59.5912 40.3392 59.5739C40.573 58.0357 40.7331 56.4692 40.7418 54.8571C40.759 52.1974 40.4765 49.5548 40.2018 47.0004C40.0362 45.4495 39.891 43.8673 39.7921 42.2946C43.3081 44.4984 47.4465 45.7941 51.891 45.7941C64.4921 45.7941 74.7449 35.5412 74.7449 22.9401C74.7449 10.339 64.4921 0.0861816 51.891 0.0861816C42.9903 0.0861816 35.281 5.2127 31.5083 12.6574L31.48 12.622L24.5274 17.9714L23.8768 18.4164C22.9365 18.8559 21.8676 19.4147 20.9478 20.2238C19.1247 21.8272 18.3478 24.1848 17.6641 26.2645C17.4726 26.8499 17.2827 27.4244 17.0755 27.9573L6.54479 54.9441C5.64616 57.2467 4.83232 61.9266 4.04663 66.4518C3.60164 69.011 3.18332 71.4284 2.84585 72.7509C2.71243 73.2728 2.58922 73.8002 2.46287 74.326C1.97079 76.4113 1.50461 78.378 0.534555 80.0536C0.0526838 80.8871 0.330508 81.9537 1.15693 82.4441L7.3507 86.1256C23.9512 95.9861 44.7106 102.79 62.8772 104.324C64.2852 104.442 66.0613 104.514 68.0845 104.514C78.1929 104.514 94.4966 102.747 102.23 96.3707L99.9955 93.6584C92.0091 100.242 72.0704 101.573 63.174 100.821C45.5117 99.3278 25.3158 92.7054 9.15028 83.1032L4.35668 80.255C5.07008 78.5834 5.48525 76.8371 5.8863 75.1341C6.00559 74.6263 6.12723 74.1201 6.25359 73.6171C6.62482 72.1636 7.03605 69.7951 7.51243 67.0528C8.19994 63.1059 9.05226 58.1945 9.82053 56.2199L20.3512 29.2332C20.5812 28.6446 20.7907 28.0097 21.005 27.3606C21.5747 25.6254 22.1649 23.8322 23.2693 22.862C23.8916 22.3134 24.7024 21.9053 25.4839 21.5435C25.575 21.5026 25.6613 21.454 25.7406 21.3975L29.4661 18.565C29.1922 19.9863 29.0376 21.4437 29.0376 22.9395C29.0376 29.4543 31.7923 35.3262 36.1803 39.493C36.1787 39.8815 36.1717 40.2684 36.1787 40.6584C36.2313 42.9282 36.4738 45.1884 36.7093 47.3758C36.9832 49.9461 37.2437 52.3735 37.228 54.8347C37.1809 62.1986 34.3272 69.0729 29.5965 73.2199L31.9132 75.864C35.5924 72.6383 38.2177 68.1758 39.6076 63.0776C40.376 63.0423 41.4551 63.0949 42.7775 63.3429C44.6218 63.6874 45.7464 64.2925 47.962 65.7814C47.0054 67.256 46.2237 68.8367 45.6594 70.5153L48.9925 71.6352C51.3322 64.6629 58.0461 59.5458 66.516 58.2777C75.0054 57.0016 82.9196 59.9164 87.174 65.8654L90.0338 63.8209C88.2687 61.3527 85.9801 59.3381 83.341 57.8083C88.4367 53.5695 95.8079 52.0431 102.091 54.2289L102.09 54.2292ZM32.5519 22.9409C32.5519 12.2784 41.2273 3.60294 51.8898 3.60294C62.5523 3.60294 71.2278 12.2784 71.2278 22.9409C71.2278 33.6034 62.5523 42.2788 51.8898 42.2788C41.2273 42.2788 32.5519 33.6034 32.5519 22.9409Z" fill="#FF2145"/>
<path d="M51.8898 38.7628C60.6147 38.7628 67.7118 31.6641 67.7118 22.9409C67.7118 14.2176 60.6147 7.1189 51.8898 7.1189C43.1649 7.1189 36.0679 14.2176 36.0679 22.9409C36.0679 31.6641 43.1649 38.7628 51.8898 38.7628ZM51.8898 10.6349C58.6739 10.6349 64.1958 16.1554 64.1958 22.9409C64.1958 29.7263 58.6739 35.2468 51.8898 35.2468C45.1058 35.2468 39.5839 29.7263 39.5839 22.9409C39.5839 16.1554 45.1058 10.6349 51.8898 10.6349Z" fill="#FF2145"/>
<path d="M46.9172 27.9136C47.1653 28.1616 47.5082 28.933 47.7837 29.5538C48.5246 31.2145 49.5354 33.4897 51.8892 33.4897C54.2429 33.4897 55.2537 31.2146 55.9938 29.5538C56.2701 28.9331 56.6146 28.1616 56.8603 27.9136C57.1098 27.6656 57.8797 27.3226 58.5005 27.0471C60.162 26.3086 62.4373 25.2938 62.4373 22.9416C62.4373 20.5895 60.1621 19.5747 58.5014 18.837C57.8806 18.5607 57.1106 18.2185 56.8611 17.9705C56.6131 17.7225 56.2701 16.9511 55.9946 16.3303C55.2538 14.6688 54.2429 12.3936 51.8892 12.3936C49.5354 12.3936 48.5247 14.6687 47.7845 16.3295C47.5082 16.9502 47.1637 17.7217 46.918 17.9697C46.6685 18.2177 45.8986 18.5607 45.2778 18.8362C43.6163 19.5747 41.3411 20.5895 41.3411 22.9416C41.3411 25.2938 43.6162 26.3086 45.277 27.0463C45.8977 27.3226 46.6677 27.6655 46.9172 27.9135V27.9136ZM46.7061 22.0501C47.6832 21.6137 48.6941 21.1656 49.4028 20.4553C50.1115 19.7451 50.5612 18.7358 50.9952 17.7587C51.2165 17.2627 51.5964 16.4104 51.8883 16.0305C52.1803 16.4103 52.5601 17.2627 52.7814 17.7587C53.2154 18.7358 53.6659 19.7451 54.3738 20.4553C55.0825 21.164 56.0949 21.6137 57.0705 22.0501C57.5641 22.2699 58.4188 22.6497 58.7971 22.9416C58.4173 23.2352 57.565 23.6135 57.0705 23.8332C56.0934 24.2696 55.0826 24.7177 54.3738 25.428C53.6652 26.1382 53.2154 27.1475 52.7814 28.1246C52.5601 28.6206 52.1803 29.4729 51.8883 29.8528C51.5964 29.473 51.2165 28.6206 50.9952 28.1246C50.5612 27.1475 50.1107 26.1382 49.4028 25.428C48.6941 24.7193 47.6817 24.2696 46.7061 23.8332C46.2125 23.6134 45.3578 23.2336 44.9795 22.9416C45.3578 22.6481 46.2125 22.2698 46.7061 22.0501Z" fill="#FF2145"/>
<path d="M104.63 38.7628V1.84491C104.63 0.874878 103.844 0.0869141 102.872 0.0869141H85.2918C84.5164 0.0869141 83.8313 0.597054 83.6076 1.34027L78.3336 18.9202C78.1735 19.4531 78.2755 20.0276 78.6059 20.4742C78.9403 20.9207 79.4622 21.1829 80.0178 21.1829H87.0498V35.2468C87.0498 38.1547 89.416 40.5208 92.3238 40.5208H102.872C103.844 40.5208 104.63 39.7328 104.63 38.7628ZM101.114 37.0048H92.3238C91.3538 37.0048 90.5658 36.2153 90.5658 35.2468V29.9728C94.4436 29.9728 97.5978 26.8187 97.5978 22.9409H94.0818C94.0818 24.8801 92.5051 26.4568 90.5658 26.4568V19.4249C90.5658 18.4548 89.7802 17.6669 88.8078 17.6669H82.381L86.6002 3.60291H101.114V37.0048Z" fill="#FF2145"/>
</svg>
