<svg width="65" height="38" viewBox="0 0 65 38" fill="none" xmlns="http://www.w3.org/2000/svg">
<path d="M13.3468 30.1086C20.6133 30.1086 25.7688 25.3996 25.7688 18.4172V0.961426H17.7716V18.2549C17.7716 21.0559 15.9854 22.8421 13.3468 22.8421C10.7487 22.8421 8.96253 21.0559 8.96253 18.2549V0.961426H0.965332V18.4172C0.965332 25.3996 6.12088 30.1086 13.3468 30.1086Z" fill="white"/>
<path d="M48.2416 7.45661L47.2673 9.24279C45.4811 7.65959 43.1672 6.7665 40.5692 6.7665C33.8304 6.7665 29.0808 11.6379 29.0808 18.4172C29.0808 25.2778 33.871 30.1492 40.5692 30.1492C42.5583 30.1492 44.3445 29.6214 45.8871 28.6878V37.2939H53.3565V7.45661H48.2416ZM41.584 23.451C38.7424 23.451 36.672 21.2995 36.672 18.4172C36.672 15.5756 38.7424 13.4241 41.584 13.4241C44.3851 13.4241 46.4554 15.5756 46.4554 18.4172C46.4554 21.2995 44.3851 23.451 41.584 23.451Z" fill="white"/>
<path d="M56.7128 37.2939H64.1739V30.2038H56.7128V37.2939Z" fill="#FB2249"/>
</svg>
