<svg width="64" height="38" viewBox="0 0 64 38" fill="none" xmlns="http://www.w3.org/2000/svg">
<path d="M12.6705 30.0304C19.937 30.0304 25.0925 25.3214 25.0925 18.3391V0.883301H17.0954V18.1767C17.0954 20.9778 15.3092 22.764 12.6705 22.764C10.0724 22.764 8.28626 20.9778 8.28626 18.1767V0.883301H0.289062V18.3391C0.289062 25.3214 5.44462 30.0304 12.6705 30.0304Z" fill="black"/>
<path d="M47.5653 7.37849L46.591 9.16466C44.8049 7.58146 42.491 6.68837 39.8929 6.68837C33.1541 6.68837 28.4045 11.5598 28.4045 18.3391C28.4045 25.1997 33.1947 30.071 39.8929 30.071C41.882 30.071 43.6682 29.5433 45.2108 28.6096V37.2158H52.6803V7.37849H47.5653ZM40.9078 23.3729C38.0661 23.3729 35.9958 21.2214 35.9958 18.3391C35.9958 15.4975 38.0661 13.3459 40.9078 13.3459C43.7088 13.3459 45.7791 15.4975 45.7791 18.3391C45.7791 21.2214 43.7088 23.3729 40.9078 23.3729Z" fill="black"/>
<path d="M56.0365 37.2158H63.4976V30.1256H56.0365V37.2158Z" fill="#FB2249"/>
</svg>
