<svg width="115" height="116" viewBox="0 0 115 116" fill="none" xmlns="http://www.w3.org/2000/svg">
<path d="M68.8545 43.5638C68.8545 49.8978 63.7177 55.0365 57.3818 55.0365C51.0458 55.0365 45.909 49.8978 45.909 43.5638C45.909 49.8978 40.7703 55.0365 34.4363 55.0365C28.1022 55.0365 22.9614 49.8978 22.9614 43.5638C22.9614 48.057 20.3557 52.1203 16.2689 53.9843V105.707H38.2605V81.8057C38.2605 76.5238 42.5393 72.2451 47.8211 72.2451H66.9424C72.2242 72.2451 76.503 76.5238 76.503 81.8057V105.707H98.4924V53.9843C94.4057 52.1202 91.8 48.057 91.8 43.5638C91.8 49.8978 86.6613 55.0365 80.3251 55.0365C73.9932 55.0365 68.8545 49.8978 68.8545 43.5638ZM0.0180664 36.3933H114.745V43.5638C114.745 48.057 112.14 52.1203 108.053 53.9843V115.268H6.7105V53.9843C2.62374 52.1202 0.0180664 48.057 0.0180664 43.5638V36.3933Z" fill="#FF2145"/>
<path d="M95.6242 0.541016L114.745 26.8327H0.0180664L19.1393 0.541016H95.6242Z" fill="#FF2145"/>
</svg>
