<svg width="323" height="260" viewBox="0 0 323 260" fill="none" xmlns="http://www.w3.org/2000/svg">
<path d="M319.695 163.138C320.037 163.019 320.401 162.977 320.761 163.013H321.119L321.003 163.129C321.003 162.717 321.066 162.422 321.119 162.422C321.173 162.422 321.218 162.717 321.236 163.129V163.246H320.752C320.396 163.292 320.035 163.255 319.695 163.138Z" fill="#E0E0E0"/>
<path d="M316.846 163.139C316.846 163.076 317.168 163.014 317.562 163.014C317.956 163.014 318.27 163.076 318.27 163.139C318.27 163.202 317.956 163.264 317.562 163.264C317.168 163.264 316.846 163.211 316.846 163.139Z" fill="#E0E0E0"/>
<path d="M313.998 163.139C313.998 163.076 314.32 163.014 314.715 163.014C315.109 163.014 315.422 163.076 315.422 163.139C315.422 163.202 315.109 163.264 314.715 163.264C314.32 163.264 313.998 163.211 313.998 163.139Z" fill="#E0E0E0"/>
<path d="M311.15 163.139C311.15 163.076 311.473 163.014 311.867 163.014C312.261 163.014 312.575 163.076 312.575 163.139C312.575 163.202 312.261 163.264 311.867 163.264C311.473 163.264 311.15 163.211 311.15 163.139Z" fill="#E0E0E0"/>
<path d="M308.301 163.139C308.301 163.076 308.623 163.014 309.017 163.014C309.411 163.014 309.725 163.076 309.725 163.139C309.725 163.202 309.411 163.264 309.017 163.264C308.623 163.264 308.301 163.211 308.301 163.139Z" fill="#E0E0E0"/>
<path d="M305.453 163.139C305.453 163.076 305.776 163.014 306.17 163.014C306.564 163.014 306.877 163.076 306.877 163.139C306.877 163.202 306.564 163.264 306.17 163.264C305.776 163.264 305.453 163.211 305.453 163.139Z" fill="#E0E0E0"/>
<path d="M302.605 163.139C302.605 163.076 302.928 163.014 303.322 163.014C303.716 163.014 304.03 163.076 304.03 163.139C304.03 163.202 303.716 163.264 303.322 163.264C302.928 163.264 302.605 163.211 302.605 163.139Z" fill="#E0E0E0"/>
<path d="M299.756 163.139C299.756 163.076 300.078 163.014 300.472 163.014C300.867 163.014 301.18 163.076 301.18 163.139C301.18 163.202 300.867 163.264 300.472 163.264C300.078 163.264 299.756 163.211 299.756 163.139Z" fill="#E0E0E0"/>
<path d="M296.908 163.139C296.908 163.076 297.231 163.014 297.625 163.014C298.019 163.014 298.332 163.076 298.332 163.139C298.332 163.202 298.019 163.264 297.625 163.264C297.231 163.264 296.908 163.211 296.908 163.139Z" fill="#E0E0E0"/>
<path d="M294.061 163.139C294.061 163.076 294.383 163.014 294.777 163.014C295.171 163.014 295.485 163.076 295.485 163.139C295.485 163.202 295.171 163.264 294.777 163.264C294.383 163.264 294.061 163.211 294.061 163.139Z" fill="#E0E0E0"/>
<path d="M291.211 163.139C291.211 163.076 291.533 163.014 291.927 163.014C292.322 163.014 292.635 163.076 292.635 163.139C292.635 163.202 292.322 163.264 291.927 163.264C291.533 163.264 291.211 163.211 291.211 163.139Z" fill="#E0E0E0"/>
<path d="M288.373 163.139C288.373 163.076 288.687 163.014 289.081 163.014C289.475 163.014 289.797 163.076 289.797 163.139C289.797 163.202 289.475 163.264 289.081 163.264C288.687 163.264 288.373 163.211 288.373 163.139Z" fill="#E0E0E0"/>
<path d="M285.523 163.139C285.523 163.076 285.837 163.014 286.231 163.014C286.625 163.014 286.948 163.076 286.948 163.139C286.948 163.202 286.625 163.264 286.231 163.264C285.837 163.264 285.523 163.211 285.523 163.139Z" fill="#E0E0E0"/>
<path d="M282.674 163.139C282.674 163.076 282.987 163.014 283.381 163.014C283.776 163.014 284.098 163.076 284.098 163.139C284.098 163.202 283.776 163.264 283.381 163.264C282.987 163.264 282.674 163.211 282.674 163.139Z" fill="#E0E0E0"/>
<path d="M279.826 163.139C279.826 163.076 280.14 163.014 280.534 163.014C280.928 163.014 281.25 163.076 281.25 163.139C281.25 163.202 280.928 163.264 280.534 163.264C280.14 163.264 279.826 163.211 279.826 163.139Z" fill="#E0E0E0"/>
<path d="M276.979 163.139C276.979 163.076 277.292 163.014 277.686 163.014C278.08 163.014 278.403 163.076 278.403 163.139C278.403 163.202 278.08 163.264 277.686 163.264C277.292 163.264 276.979 163.211 276.979 163.139Z" fill="#E0E0E0"/>
<path d="M274.104 163.139C274.104 163.076 274.417 163.014 274.811 163.014C275.205 163.014 275.528 163.076 275.528 163.139C275.528 163.202 275.205 163.264 274.811 163.264C274.417 163.264 274.104 163.211 274.104 163.139Z" fill="#E0E0E0"/>
<path d="M271.281 163.139C271.281 163.076 271.595 163.014 271.989 163.014C272.383 163.014 272.705 163.076 272.705 163.139C272.705 163.202 272.383 163.264 271.989 163.264C271.595 163.264 271.281 163.211 271.281 163.139Z" fill="#E0E0E0"/>
<path d="M270.386 161.178C270.458 161.178 270.511 161.5 270.511 161.894C270.511 162.288 270.458 162.602 270.386 162.602C270.314 162.602 270.27 162.288 270.27 161.894C270.27 161.5 270.323 161.178 270.386 161.178Z" fill="#E0E0E0"/>
<path d="M270.386 158.328C270.458 158.328 270.511 158.651 270.511 159.045C270.511 159.439 270.458 159.752 270.386 159.752C270.314 159.752 270.27 159.439 270.27 159.045C270.27 158.651 270.323 158.328 270.386 158.328Z" fill="#E0E0E0"/>
<path d="M270.386 155.48C270.458 155.48 270.511 155.803 270.511 156.197C270.511 156.591 270.458 156.905 270.386 156.905C270.314 156.905 270.27 156.591 270.27 156.197C270.27 155.803 270.323 155.48 270.386 155.48Z" fill="#E0E0E0"/>
<path d="M270.386 152.641C270.458 152.641 270.511 152.954 270.511 153.348C270.511 153.742 270.458 154.056 270.386 154.056C270.314 154.056 270.27 153.742 270.27 153.348C270.27 152.954 270.323 152.641 270.386 152.641Z" fill="#E0E0E0"/>
<path d="M270.386 149.791C270.458 149.791 270.511 150.105 270.511 150.499C270.511 150.893 270.458 151.215 270.386 151.215C270.314 151.215 270.27 150.893 270.27 150.499C270.27 150.105 270.323 149.791 270.386 149.791Z" fill="#E0E0E0"/>
<path d="M270.386 146.943C270.458 146.943 270.511 147.257 270.511 147.651C270.511 148.045 270.458 148.368 270.386 148.368C270.314 148.368 270.27 148.045 270.27 147.651C270.27 147.257 270.323 146.943 270.386 146.943Z" fill="#E0E0E0"/>
<path d="M270.386 144.096C270.458 144.096 270.511 144.409 270.511 144.803C270.511 145.197 270.458 145.52 270.386 145.52C270.314 145.52 270.27 145.197 270.27 144.803C270.27 144.409 270.323 144.096 270.386 144.096Z" fill="#E0E0E0"/>
<path d="M270.386 141.248C270.458 141.248 270.511 141.562 270.511 141.956C270.511 142.35 270.458 142.672 270.386 142.672C270.314 142.672 270.27 142.35 270.27 141.956C270.27 141.562 270.323 141.248 270.386 141.248Z" fill="#E0E0E0"/>
<path d="M270.386 138.398C270.458 138.398 270.511 138.712 270.511 139.106C270.511 139.5 270.458 139.823 270.386 139.823C270.314 139.823 270.27 139.5 270.27 139.106C270.27 138.712 270.323 138.398 270.386 138.398Z" fill="#E0E0E0"/>
<path d="M270.386 135.551C270.458 135.551 270.511 135.864 270.511 136.258C270.511 136.652 270.458 136.975 270.386 136.975C270.314 136.975 270.27 136.652 270.27 136.258C270.27 135.864 270.323 135.551 270.386 135.551Z" fill="#E0E0E0"/>
<path d="M270.386 132.701C270.458 132.701 270.511 133.015 270.511 133.409C270.511 133.803 270.458 134.125 270.386 134.125C270.314 134.125 270.27 133.803 270.27 133.409C270.27 133.015 270.323 132.701 270.386 132.701Z" fill="#E0E0E0"/>
<path d="M270.386 129.854C270.458 129.854 270.511 130.167 270.511 130.561C270.511 130.955 270.458 131.278 270.386 131.278C270.314 131.278 270.27 130.955 270.27 130.561C270.27 130.167 270.323 129.854 270.386 129.854Z" fill="#E0E0E0"/>
<path d="M270.386 127.006C270.458 127.006 270.511 127.319 270.511 127.713C270.511 128.108 270.458 128.43 270.386 128.43C270.314 128.43 270.27 128.108 270.27 127.713C270.27 127.319 270.323 127.006 270.386 127.006Z" fill="#E0E0E0"/>
<path d="M270.386 124.131C270.458 124.131 270.511 124.444 270.511 124.838C270.511 125.233 270.458 125.555 270.386 125.555C270.314 125.555 270.27 125.233 270.27 124.838C270.27 124.444 270.323 124.131 270.386 124.131Z" fill="#E0E0E0"/>
<path d="M270.386 121.309C270.458 121.309 270.511 121.622 270.511 122.016C270.511 122.41 270.458 122.733 270.386 122.733C270.314 122.733 270.27 122.41 270.27 122.016C270.27 121.622 270.323 121.309 270.386 121.309Z" fill="#E0E0E0"/>
<path d="M270.386 118.461C270.458 118.461 270.511 118.774 270.511 119.169C270.511 119.563 270.458 119.885 270.386 119.885C270.314 119.885 270.27 119.563 270.27 119.169C270.27 118.774 270.323 118.461 270.386 118.461Z" fill="#E0E0E0"/>
<path d="M270.386 115.611C270.458 115.611 270.511 115.925 270.511 116.319C270.511 116.713 270.458 117.036 270.386 117.036C270.314 117.036 270.27 116.713 270.27 116.319C270.27 115.925 270.323 115.611 270.386 115.611Z" fill="#E0E0E0"/>
<path d="M270.386 112.764C270.458 112.764 270.511 113.077 270.511 113.471C270.511 113.865 270.458 114.188 270.386 114.188C270.314 114.188 270.27 113.865 270.27 113.471C270.27 113.077 270.323 112.764 270.386 112.764Z" fill="#E0E0E0"/>
<path d="M272.885 112.406C272.885 112.477 272.563 112.531 272.169 112.531C271.774 112.531 271.461 112.477 271.461 112.406C271.461 112.334 271.783 112.289 272.169 112.289C272.554 112.289 272.885 112.343 272.885 112.406Z" fill="#E0E0E0"/>
<path d="M275.733 112.406C275.733 112.477 275.41 112.531 275.016 112.531C274.622 112.531 274.309 112.477 274.309 112.406C274.309 112.334 274.631 112.289 275.016 112.289C275.401 112.289 275.733 112.343 275.733 112.406Z" fill="#E0E0E0"/>
<path d="M278.582 112.406C278.582 112.477 278.26 112.531 277.866 112.531C277.472 112.531 277.158 112.477 277.158 112.406C277.158 112.334 277.481 112.289 277.866 112.289C278.251 112.289 278.582 112.343 278.582 112.406Z" fill="#E0E0E0"/>
<path d="M281.43 112.406C281.43 112.477 281.108 112.531 280.713 112.531C280.319 112.531 280.006 112.477 280.006 112.406C280.006 112.334 280.319 112.289 280.713 112.289C281.108 112.289 281.43 112.343 281.43 112.406Z" fill="#E0E0E0"/>
<path d="M284.278 112.406C284.278 112.477 283.955 112.531 283.561 112.531C283.167 112.531 282.854 112.477 282.854 112.406C282.854 112.334 283.167 112.289 283.561 112.289C283.955 112.289 284.278 112.343 284.278 112.406Z" fill="#E0E0E0"/>
<path d="M287.127 112.406C287.127 112.477 286.805 112.531 286.411 112.531C286.017 112.531 285.703 112.477 285.703 112.406C285.703 112.334 286.017 112.289 286.411 112.289C286.805 112.289 287.127 112.343 287.127 112.406Z" fill="#E0E0E0"/>
<path d="M289.975 112.406C289.975 112.477 289.653 112.531 289.258 112.531C288.864 112.531 288.551 112.477 288.551 112.406C288.551 112.334 288.864 112.289 289.258 112.289C289.653 112.289 289.975 112.343 289.975 112.406Z" fill="#E0E0E0"/>
<path d="M292.823 112.406C292.823 112.477 292.5 112.531 292.106 112.531C291.712 112.531 291.398 112.477 291.398 112.406C291.398 112.334 291.712 112.289 292.106 112.289C292.5 112.289 292.823 112.343 292.823 112.406Z" fill="#E0E0E0"/>
<path d="M295.672 112.406C295.672 112.477 295.35 112.531 294.956 112.531C294.562 112.531 294.248 112.477 294.248 112.406C294.248 112.334 294.562 112.289 294.956 112.289C295.35 112.289 295.672 112.343 295.672 112.406Z" fill="#E0E0E0"/>
<path d="M298.52 112.406C298.52 112.477 298.197 112.531 297.803 112.531C297.409 112.531 297.096 112.477 297.096 112.406C297.096 112.334 297.409 112.289 297.803 112.289C298.197 112.289 298.52 112.343 298.52 112.406Z" fill="#E0E0E0"/>
<path d="M301.368 112.406C301.368 112.477 301.045 112.531 300.651 112.531C300.257 112.531 299.943 112.477 299.943 112.406C299.943 112.334 300.257 112.289 300.651 112.289C301.045 112.289 301.368 112.343 301.368 112.406Z" fill="#E0E0E0"/>
<path d="M304.217 112.406C304.217 112.477 303.895 112.531 303.501 112.531C303.106 112.531 302.793 112.477 302.793 112.406C302.793 112.334 303.106 112.289 303.501 112.289C303.895 112.289 304.217 112.343 304.217 112.406Z" fill="#E0E0E0"/>
<path d="M307.065 112.406C307.065 112.477 306.742 112.531 306.348 112.531C305.954 112.531 305.641 112.477 305.641 112.406C305.641 112.334 305.954 112.289 306.348 112.289C306.742 112.289 307.065 112.343 307.065 112.406Z" fill="#E0E0E0"/>
<path d="M309.932 112.406C309.932 112.477 309.61 112.531 309.215 112.531C308.821 112.531 308.508 112.477 308.508 112.406C308.508 112.334 308.821 112.289 309.215 112.289C309.61 112.289 309.932 112.343 309.932 112.406Z" fill="#E0E0E0"/>
<path d="M312.762 112.406C312.762 112.477 312.44 112.531 312.045 112.531C311.651 112.531 311.338 112.477 311.338 112.406C311.338 112.334 311.651 112.289 312.045 112.289C312.44 112.289 312.762 112.343 312.762 112.406Z" fill="#E0E0E0"/>
<path d="M315.61 112.406C315.61 112.477 315.287 112.531 314.893 112.531C314.499 112.531 314.186 112.477 314.186 112.406C314.186 112.334 314.499 112.289 314.893 112.289C315.287 112.289 315.61 112.343 315.61 112.406Z" fill="#E0E0E0"/>
<path d="M318.457 112.406C318.457 112.477 318.135 112.531 317.741 112.531C317.347 112.531 317.033 112.477 317.033 112.406C317.033 112.334 317.347 112.289 317.741 112.289C318.135 112.289 318.457 112.343 318.457 112.406Z" fill="#E0E0E0"/>
<path d="M321.118 112.593C321.118 112.593 321.055 112.521 321.037 112.405L321.118 112.495C320.942 112.507 320.766 112.507 320.59 112.495C320.195 112.495 319.873 112.441 319.873 112.369C319.873 112.297 320.195 112.253 320.59 112.253C320.765 112.236 320.942 112.236 321.118 112.253H321.217V112.315C321.181 112.486 321.154 112.593 321.118 112.593Z" fill="#E0E0E0"/>
<path d="M321.118 115.433C321.187 115.433 321.243 115.116 321.243 114.725C321.243 114.334 321.187 114.018 321.118 114.018C321.048 114.018 320.992 114.334 320.992 114.725C320.992 115.116 321.048 115.433 321.118 115.433Z" fill="#E0E0E0"/>
<path d="M321.118 118.289C321.055 118.289 320.992 117.967 320.992 117.573C320.992 117.179 321.055 116.865 321.118 116.865C321.18 116.865 321.243 117.179 321.243 117.573C321.243 117.967 321.189 118.289 321.118 118.289Z" fill="#E0E0E0"/>
<path d="M321.118 121.139C321.055 121.139 320.992 120.817 320.992 120.422C320.992 120.028 321.055 119.715 321.118 119.715C321.18 119.715 321.243 120.028 321.243 120.422C321.243 120.817 321.189 121.139 321.118 121.139Z" fill="#E0E0E0"/>
<path d="M321.118 123.987C321.055 123.987 320.992 123.664 320.992 123.27C320.992 122.876 321.055 122.562 321.118 122.562C321.18 122.562 321.243 122.876 321.243 123.27C321.243 123.664 321.189 123.987 321.118 123.987Z" fill="#E0E0E0"/>
<path d="M321.118 126.817C321.055 126.817 320.992 126.494 320.992 126.1C320.992 125.706 321.055 125.393 321.118 125.393C321.18 125.393 321.243 125.706 321.243 126.1C321.243 126.494 321.189 126.817 321.118 126.817Z" fill="#E0E0E0"/>
<path d="M321.118 129.675C321.187 129.675 321.243 129.358 321.243 128.967C321.243 128.577 321.187 128.26 321.118 128.26C321.048 128.26 320.992 128.577 320.992 128.967C320.992 129.358 321.048 129.675 321.118 129.675Z" fill="#E0E0E0"/>
<path d="M321.118 132.523C321.187 132.523 321.243 132.206 321.243 131.815C321.243 131.424 321.187 131.107 321.118 131.107C321.048 131.107 320.992 131.424 320.992 131.815C320.992 132.206 321.048 132.523 321.118 132.523Z" fill="#E0E0E0"/>
<path d="M321.118 135.379C321.055 135.379 320.992 135.057 320.992 134.663C320.992 134.269 321.055 133.955 321.118 133.955C321.18 133.955 321.243 134.269 321.243 134.663C321.243 135.057 321.189 135.379 321.118 135.379Z" fill="#E0E0E0"/>
<path d="M321.118 138.219C321.055 138.219 320.992 137.906 320.992 137.511C320.992 137.117 321.055 136.795 321.118 136.795C321.18 136.795 321.243 137.117 321.243 137.511C321.243 137.906 321.189 138.219 321.118 138.219Z" fill="#E0E0E0"/>
<path d="M321.118 141.069C321.055 141.069 320.992 140.755 320.992 140.361C320.992 139.967 321.055 139.645 321.118 139.645C321.18 139.645 321.243 139.967 321.243 140.361C321.243 140.755 321.189 141.069 321.118 141.069Z" fill="#E0E0E0"/>
<path d="M321.118 143.916C321.055 143.916 320.992 143.603 320.992 143.209C320.992 142.815 321.055 142.492 321.118 142.492C321.18 142.492 321.243 142.815 321.243 143.209C321.243 143.603 321.189 143.916 321.118 143.916Z" fill="#E0E0E0"/>
<path d="M321.118 146.764C321.055 146.764 320.992 146.451 320.992 146.056C320.992 145.662 321.055 145.34 321.118 145.34C321.18 145.34 321.243 145.662 321.243 146.056C321.243 146.451 321.189 146.764 321.118 146.764Z" fill="#E0E0E0"/>
<path d="M321.118 149.612C321.187 149.612 321.243 149.296 321.243 148.905C321.243 148.514 321.187 148.197 321.118 148.197C321.048 148.197 320.992 148.514 320.992 148.905C320.992 149.296 321.048 149.612 321.118 149.612Z" fill="#E0E0E0"/>
<path d="M321.118 152.462C321.187 152.462 321.243 152.145 321.243 151.754C321.243 151.364 321.187 151.047 321.118 151.047C321.048 151.047 320.992 151.364 320.992 151.754C320.992 152.145 321.048 152.462 321.118 152.462Z" fill="#E0E0E0"/>
<path d="M321.118 155.309C321.055 155.309 320.992 154.995 320.992 154.601C320.992 154.207 321.055 153.885 321.118 153.885C321.18 153.885 321.243 154.207 321.243 154.601C321.243 154.995 321.189 155.309 321.118 155.309Z" fill="#E0E0E0"/>
<path d="M321.118 158.166C321.055 158.166 320.992 157.853 320.992 157.459C320.992 157.065 321.055 156.742 321.118 156.742C321.18 156.742 321.243 157.065 321.243 157.459C321.243 157.853 321.189 158.166 321.118 158.166Z" fill="#E0E0E0"/>
<path d="M321.118 161.006C321.055 161.006 320.992 160.693 320.992 160.299C320.992 159.904 321.055 159.582 321.118 159.582C321.18 159.582 321.243 159.904 321.243 160.299C321.243 160.693 321.189 161.006 321.118 161.006Z" fill="#E0E0E0"/>
<path d="M322.991 160.746H319.238V164.499H322.991V160.746Z" fill="#E0E0E0"/>
<path d="M272.267 161.258H268.514V165.011H272.267V161.258Z" fill="#E0E0E0"/>
<path d="M322.991 110.166H319.238V113.919H322.991V110.166Z" fill="#E0E0E0"/>
<path d="M272.267 110.533H268.514V114.286H272.267V110.533Z" fill="#E0E0E0"/>
<path d="M250.124 140.252C250.957 132.808 245.645 126.18 240.181 121.012C234.718 115.844 228.591 110.586 227.015 103.259C225.796 97.6519 227.543 91.8924 228.331 86.2405C229.119 80.5886 228.591 73.9604 224.148 70.3327C216.347 63.9374 202.893 70.4492 194.966 64.2061C186.537 57.5599 194.07 42.5568 184.603 37.5318C175.449 32.695 167.817 46.9368 162.291 34.988C154.874 18.9369 140.435 27.894 140.435 27.894C134.765 31.9964 131.792 42.5836 125.011 44.3124C114.97 46.8651 104.41 34.6297 95.2467 39.4755C85.7611 44.4915 90.5442 61.098 82.1156 67.7441C74.1975 74.0141 60.8604 66.5708 53.0588 72.9572C48.5802 76.5937 48.0876 83.1862 48.8758 88.865C49.664 94.5438 51.4107 100.303 50.1925 105.883C48.6161 113.21 42.4446 118.423 37.0256 123.645C31.6065 128.867 26.2771 135.433 27.0832 142.876C27.9789 151.063 36.0403 156.751 38.19 164.705C41.3877 176.546 30.675 189.301 35.0192 200.775C40.492 215.214 63.4221 213.628 72.2628 226.285C75.5948 231.05 76.3562 237.132 78.9089 242.354C84.5071 253.81 98.1757 259.48 110.922 259.301C121.67 259.157 132.007 255.619 142.048 251.606C149.921 254.419 157.973 256.56 166.285 256.676C179.031 256.855 192.7 251.176 198.298 239.729C200.851 234.507 201.612 228.425 204.944 223.66C213.785 210.995 236.715 212.589 242.188 198.15C246.532 186.676 235.819 173.966 239.017 162.071C241.158 154.144 249.201 148.457 250.124 140.252Z" fill="#101010"/>
<path d="M90.9444 116.238L100.708 104.692C100.869 104.513 100.992 104.304 101.07 104.077C101.148 103.849 101.18 103.608 101.163 103.369C101.147 103.129 101.082 102.895 100.973 102.68C100.864 102.466 100.713 102.276 100.528 102.121L56.3789 64.7791C56.1964 64.6231 55.9845 64.5055 55.7557 64.4331C55.5268 64.3607 55.2858 64.335 55.0468 64.3575C54.8079 64.3801 54.5759 64.4504 54.3647 64.5644C54.1535 64.6783 53.9673 64.8336 53.8172 65.0209L44.045 76.5666C43.8832 76.746 43.7593 76.9564 43.6809 77.1849C43.6025 77.4135 43.5712 77.6555 43.5887 77.8965C43.6063 78.1375 43.6725 78.3725 43.7832 78.5872C43.8939 78.802 44.047 78.9922 44.2331 79.1462L88.3737 116.479C88.5563 116.637 88.7689 116.756 88.9986 116.829C89.2283 116.902 89.4704 116.928 89.7105 116.906C89.9505 116.883 90.1835 116.812 90.3955 116.697C90.6075 116.583 90.7942 116.426 90.9444 116.238Z" fill="#F5F5F5"/>
<path d="M90.9453 116.238C90.8611 116.347 90.7649 116.446 90.6587 116.534C90.3536 116.785 89.978 116.935 89.5838 116.964C89.2724 116.974 88.9637 116.903 88.6881 116.758C88.3701 116.571 88.0702 116.355 87.7924 116.113L85.7681 114.411C82.7048 111.849 78.2979 108.141 72.8609 103.564L53.7554 87.4054L48.2379 82.7387C47.2884 81.9505 46.339 81.1444 45.3805 80.3293C44.8969 79.9172 44.4221 79.541 43.9295 79.0842C43.6964 78.8267 43.5355 78.5121 43.4631 78.1723C43.3908 77.8325 43.4095 77.4797 43.5175 77.1495C43.6271 76.8164 43.8074 76.5108 44.0459 76.2538L44.6729 75.5193L45.9269 74.0324L48.4708 71.0318L53.6659 64.8872C53.9049 64.605 54.2163 64.3933 54.5667 64.2749C54.9171 64.1566 55.2931 64.136 55.6543 64.2155C55.9906 64.3134 56.298 64.4917 56.55 64.735L57.3114 65.3888C58.3415 66.2845 59.3536 67.1086 60.3658 67.9685L66.3312 73.0113L77.5992 82.5596L96.7495 98.7719L100.619 102.059C100.926 102.335 101.136 102.703 101.219 103.108C101.301 103.513 101.251 103.933 101.076 104.307C100.887 104.633 100.659 104.934 100.395 105.203L99.6964 106.018L94.9581 111.59L91.9754 115.065L91.1871 115.961L90.9184 116.256L91.1692 115.934L91.9216 115.038L94.8595 111.518L99.5262 105.964L100.216 105.131C100.472 104.863 100.692 104.562 100.87 104.236C101.026 103.899 101.07 103.521 100.994 103.158C100.918 102.795 100.727 102.466 100.449 102.22L96.5704 98.9511L77.4559 82.8283L66.17 73.2979C64.2173 71.6439 62.2288 69.9629 60.2045 68.2551L57.1591 65.6755L56.4426 65.0126C56.2194 64.7931 55.9407 64.6383 55.6364 64.5648C55.3323 64.4964 55.0153 64.5129 54.7199 64.6124C54.4246 64.7119 54.1622 64.8907 53.9614 65.1291L48.7395 71.2826L46.1956 74.2922L44.9417 75.7791L44.3147 76.5135C44.1048 76.7313 43.9431 76.9907 43.8399 77.2749C43.7498 77.5534 43.7347 77.8506 43.796 78.1368C43.8573 78.423 43.993 78.688 44.1893 78.9051C44.6192 79.3082 45.1387 79.7202 45.6045 80.1233L48.4528 82.5327L53.9704 87.2083L73.0401 103.385L85.8845 114.277L87.8909 115.996C88.1444 116.237 88.4204 116.453 88.715 116.641C88.9673 116.781 89.2507 116.855 89.539 116.856C89.9352 116.85 90.3198 116.721 90.6407 116.489C90.8468 116.346 90.9363 116.229 90.9453 116.238Z" fill="#263238"/>
<path d="M45.6075 78.2416L53.7207 85.0156L63.5948 73.1896L55.4816 66.4156L45.6075 78.2416Z" fill="#FF2145"/>
<path d="M72.0294 100.296L80.1426 107.07L90.0166 95.2443L81.9034 88.4703L72.0294 100.296Z" fill="#FF2145"/>
<path d="M63.211 92.9388L71.3242 99.7129L81.1983 87.8869L73.0851 81.1128L63.211 92.9388Z" fill="#FF2145"/>
<path d="M54.3849 85.5775L62.498 92.3516L72.3721 80.5256L64.2589 73.7515L54.3849 85.5775Z" fill="#FF2145"/>
<g opacity="0.8">
<path opacity="0.8" d="M55.4912 66.4181L45.6172 78.2441L53.7304 85.0182L63.6044 73.1922L55.4912 66.4181Z" fill="black"/>
</g>
<g opacity="0.5">
<path opacity="0.5" d="M72.0294 100.296L80.1426 107.07L90.0166 95.2443L81.9034 88.4703L72.0294 100.296Z" fill="black"/>
</g>
<g opacity="0.6">
<path opacity="0.6" d="M63.211 92.9388L71.3242 99.7129L81.1983 87.8869L73.0851 81.1128L63.211 92.9388Z" fill="black"/>
</g>
<g opacity="0.7">
<path opacity="0.7" d="M54.3849 85.5775L62.498 92.3516L72.3721 80.5256L64.2589 73.7515L54.3849 85.5775Z" fill="black"/>
</g>
<path d="M89.0099 115.736L101.424 107.11C101.624 106.98 101.795 106.811 101.929 106.614C102.062 106.417 102.155 106.195 102.202 105.961C102.248 105.728 102.248 105.487 102.201 105.254C102.153 105.021 102.06 104.799 101.926 104.602L69.3401 57.846C69.2022 57.6518 69.0269 57.4871 68.8246 57.3614C68.6223 57.2358 68.3969 57.1517 68.1617 57.1142C67.9265 57.0766 67.6862 57.0864 67.4548 57.1428C67.2235 57.1993 67.0057 57.3013 66.8142 57.443L54.3996 66.0865C54.2009 66.2174 54.0303 66.3866 53.8977 66.5842C53.7651 66.7817 53.6732 67.0038 53.6273 67.2372C53.5815 67.4707 53.5826 67.711 53.6306 67.944C53.6786 68.1771 53.7726 68.3982 53.907 68.5945L86.4839 115.36C86.6239 115.552 86.8007 115.714 87.0039 115.837C87.2072 115.96 87.433 116.042 87.6681 116.077C87.9032 116.112 88.1429 116.1 88.3732 116.041C88.6036 115.983 88.82 115.879 89.0099 115.736Z" fill="#F5F5F5"/>
<path d="M89.0102 115.727C88.9083 115.816 88.7935 115.888 88.6698 115.942C88.2995 116.1 87.8892 116.137 87.4964 116.05C87.2074 115.987 86.9392 115.851 86.7172 115.655C86.475 115.397 86.259 115.115 86.0723 114.813L84.5675 112.682C82.2924 109.448 79.023 104.781 74.9924 99.0221C70.9617 93.2627 66.1517 86.3836 60.8222 78.7522L56.7378 72.8942L54.6508 69.8667L54.1134 69.0964C53.9178 68.8383 53.7468 68.5624 53.6028 68.2724C53.4797 67.95 53.4431 67.601 53.4965 67.26C53.5499 66.9191 53.6916 66.598 53.9073 66.3287C54.1304 66.0824 54.3867 65.8684 54.6687 65.6927L55.448 65.1464L57.0244 64.0536L60.2221 61.8233L66.7518 57.2731C67.0509 57.0634 67.4011 56.9385 67.7654 56.9117C68.1296 56.8849 68.4944 56.9571 68.8209 57.1208C69.1362 57.2918 69.4017 57.5418 69.5912 57.8463L70.1645 58.6704L72.4217 61.9128L76.8375 68.2545L85.1497 80.2391L99.2571 100.554C100.26 102.005 101.219 103.366 102.114 104.701C102.301 105.064 102.366 105.478 102.3 105.881C102.234 106.284 102.04 106.655 101.747 106.94C101.138 107.433 100.538 107.836 99.9558 108.212L94.062 112.288L90.3269 114.858L89.3506 115.512C89.1266 115.664 89.0102 115.727 89.0102 115.727L89.3327 115.485L90.2911 114.804L93.9903 112.189L99.8662 108.06C100.422 107.657 101.057 107.263 101.658 106.806C101.92 106.548 102.092 106.214 102.15 105.851C102.208 105.488 102.149 105.117 101.98 104.79C101.084 103.501 100.117 102.103 99.1228 100.688L84.9526 80.4092C82.2655 76.5935 79.4978 72.5807 76.5957 68.4336L72.1798 62.092L69.8778 58.8495L69.3046 58.0344C69.1471 57.7672 68.9173 57.5499 68.6418 57.4074C68.3672 57.2701 68.0604 57.2101 67.7543 57.2338C67.4482 57.2575 67.1543 57.3639 66.9041 57.5418L60.3744 62.083L57.1767 64.3044L55.6002 65.4061L54.821 65.9525C54.5624 66.1099 54.3272 66.3029 54.1223 66.5257C53.9427 66.7523 53.8245 67.0213 53.779 67.3068C53.7335 67.5923 53.7623 67.8848 53.8626 68.1559C53.9945 68.4272 54.1568 68.6826 54.3462 68.9173L54.8747 69.6876L56.9886 72.7151L61.0641 78.582L75.1715 98.8967L84.666 112.61C85.2213 113.416 85.714 114.142 86.1529 114.76C86.3267 115.06 86.534 115.339 86.7709 115.593C86.9812 115.785 87.2371 115.921 87.5144 115.987C87.8922 116.085 88.2916 116.056 88.6519 115.906C88.776 115.856 88.8958 115.796 89.0102 115.727Z" fill="#263238"/>
<path d="M56.3508 68.6289L62.4434 77.2656L75.0325 68.385L68.9399 59.7483L56.3508 68.6289Z" fill="#FF2145"/>
<path d="M75.858 95.837L81.9883 104.504L94.6214 95.5683L88.4911 86.9014L75.858 95.837Z" fill="#FF2145"/>
<path d="M69.5676 87.3574L75.6602 95.9941L88.2493 87.1135L82.1567 78.4768L69.5676 87.3574Z" fill="#FF2145"/>
<path d="M62.9426 77.9746L69.0352 86.6113L81.6243 77.7307L75.5317 69.094L62.9426 77.9746Z" fill="#FF2145"/>
<g opacity="0.5">
<path opacity="0.5" d="M56.3489 68.6289L62.4414 77.2656L75.0305 68.385L68.938 59.7483L56.3489 68.6289Z" fill="black"/>
</g>
<g opacity="0.3">
<path opacity="0.3" d="M69.5676 87.3594L75.6602 95.9961L88.2493 87.1155L82.1567 78.4788L69.5676 87.3594Z" fill="black"/>
</g>
<g opacity="0.4">
<path opacity="0.4" d="M62.9426 77.9746L69.0352 86.6113L81.6243 77.7307L75.5317 69.094L62.9426 77.9746Z" fill="black"/>
</g>
<path d="M89.0816 117.573L103.413 112.834C103.878 112.677 104.262 112.342 104.481 111.902C104.699 111.462 104.734 110.953 104.577 110.488L85.866 53.619C85.7052 53.1591 85.3697 52.7809 84.9322 52.5664C84.4947 52.3518 83.9904 52.3181 83.5282 52.4725L69.1968 57.2108C68.9657 57.2876 68.7521 57.4094 68.5683 57.5692C68.3845 57.729 68.2341 57.9235 68.1259 58.1417C68.0176 58.3599 67.9536 58.5973 67.9376 58.8403C67.9216 59.0833 67.9538 59.3271 68.0324 59.5576L86.7796 116.426C86.9406 116.878 87.2703 117.25 87.6995 117.463C88.1288 117.677 88.6241 117.716 89.0816 117.573Z" fill="#F5F5F5"/>
<path d="M89.0816 117.572C88.9529 117.625 88.817 117.658 88.6785 117.671C88.2615 117.715 87.8417 117.617 87.4872 117.393C87.2307 117.222 87.0163 116.996 86.8602 116.73C86.7084 116.399 86.5797 116.058 86.475 115.709L85.5793 113.129C84.2806 109.242 82.4085 103.626 80.1065 96.6932C77.8046 89.7604 75.0637 81.4661 72.0452 72.303C71.2868 70.01 70.5105 67.6603 69.7163 65.2538C69.3133 64.0535 68.9191 62.8443 68.5071 61.6172C68.3101 60.9992 68.104 60.3901 67.898 59.7631C67.7708 59.4385 67.7157 59.09 67.7368 58.742C67.7689 58.3881 67.8923 58.0486 68.0951 57.7567C68.3044 57.4628 68.589 57.2307 68.9191 57.0849C69.2505 56.9506 69.5551 56.87 69.8686 56.7625L71.7675 56.1355L75.6101 54.8636L83.4565 52.275C83.8175 52.1586 84.204 52.1464 84.5716 52.2399C84.9392 52.3334 85.273 52.5287 85.5345 52.8034C85.7867 53.0781 85.9681 53.4102 86.063 53.7708L86.3855 54.7561L87.6753 58.6524L90.1833 66.2749L94.9574 80.6869C97.967 89.8768 100.69 98.1442 102.965 105.104C103.538 106.833 104.076 108.49 104.595 110.057C104.658 110.254 104.721 110.442 104.774 110.657C104.81 110.865 104.81 111.077 104.774 111.284C104.736 111.7 104.559 112.091 104.273 112.395C103.995 112.685 103.641 112.89 103.252 112.986L102.204 113.335L95.1186 115.637L90.6401 117.089L89.4757 117.456L89.0726 117.572L89.4667 117.429L90.6222 117.026L95.1007 115.521L102.177 113.165L103.225 112.816C103.583 112.724 103.908 112.535 104.165 112.27C104.416 111.99 104.573 111.639 104.613 111.266C104.637 110.872 104.563 110.478 104.398 110.12C103.879 108.561 103.332 106.904 102.75 105.167C100.457 98.2249 97.7162 89.9395 94.6887 80.7764L89.9325 66.3734L87.3887 58.742C86.9677 57.4522 86.493 56.1534 86.1078 54.8457L85.7764 53.8604C85.6986 53.5471 85.5448 53.2579 85.3285 53.0184C85.1041 52.7802 84.816 52.6114 84.4984 52.532C84.1809 52.4527 83.8473 52.466 83.5371 52.5705L75.7265 55.1591L71.8839 56.4221L69.985 57.0491C69.6805 57.1566 69.3401 57.2551 69.0893 57.3626C68.8115 57.483 68.5727 57.6784 68.3996 57.9269C68.2268 58.1788 68.1213 58.4706 68.0931 58.7748C68.0649 59.0789 68.1149 59.3852 68.2384 59.6646L68.8475 61.5097C69.2506 62.7368 69.6536 63.9461 70.0477 65.1553L72.3676 72.2045L80.3842 96.6126L85.7585 113.085L86.5915 115.664C86.6915 116.012 86.8142 116.353 86.9587 116.685C87.1052 116.942 87.3072 117.162 87.5499 117.33C87.89 117.558 88.2978 117.662 88.7054 117.626C88.8318 117.616 88.9575 117.598 89.0816 117.572Z" fill="#263238"/>
<path d="M89.1529 117.688C89.2156 117.688 89.2424 118.414 89.6097 119.668C90.1441 121.429 91.1182 123.026 92.4401 124.307C94.4093 126.187 97.0357 127.222 99.7581 127.192C102.095 127.153 104.349 126.318 106.145 124.823C107.942 123.328 109.173 121.263 109.635 118.972C110.098 116.681 109.763 114.301 108.686 112.227C107.61 110.152 105.856 108.508 103.717 107.567C102.036 106.8 100.182 106.491 98.3428 106.671L97.4471 106.787C97.1963 106.787 96.9903 106.886 96.8201 106.913C96.6486 106.964 96.4707 106.991 96.2917 106.993C96.4458 106.903 96.6115 106.833 96.7843 106.787C96.9898 106.713 97.1991 106.651 97.4113 106.599L98.307 106.42C99.903 106.191 101.53 106.329 103.064 106.826C104.598 107.323 105.998 108.165 107.157 109.286C108.248 110.343 109.103 111.619 109.665 113.03C110.316 114.654 110.559 116.414 110.371 118.154C110.184 119.893 109.572 121.561 108.59 123.009C108.078 123.765 107.476 124.457 106.798 125.069C104.846 126.773 102.35 127.726 99.7581 127.756C98.24 127.765 96.7365 127.46 95.3422 126.86C94.1385 126.322 93.0428 125.569 92.1087 124.639C90.7719 123.285 89.825 121.595 89.3678 119.748C89.2418 119.249 89.1638 118.739 89.1349 118.226C89.1063 118.047 89.1124 117.864 89.1529 117.688Z" fill="#263238"/>
<path d="M93.8645 105.552C94.2969 105.41 94.7615 105.4 95.1997 105.522C95.6379 105.645 96.0301 105.894 96.3267 106.239C96.6232 106.584 96.8109 107.009 96.8659 107.461C96.921 107.913 96.841 108.37 96.636 108.777C96.4311 109.183 96.1103 109.519 95.7143 109.743C95.3183 109.967 94.8648 110.069 94.4111 110.035C93.9573 110.002 93.5237 109.834 93.165 109.555C92.8063 109.275 92.5385 108.895 92.3955 108.463C92.2057 107.882 92.2538 107.25 92.5291 106.704C92.8043 106.159 93.2845 105.744 93.8645 105.552Z" fill="#263238"/>
<path d="M69.9225 58.8861L73.2324 68.9238L87.8637 64.0992L84.5537 54.0614L69.9225 58.8861Z" fill="#FF2145"/>
<path d="M73.4947 69.7455L76.8047 79.7832L91.4359 74.9585L88.126 64.9208L73.4947 69.7455Z" fill="#FF2145"/>
<path d="M77.0944 80.6595L80.4043 90.6973L95.0356 85.8726L91.7256 75.8349L77.0944 80.6595Z" fill="#FF2145"/>
<path d="M80.6959 91.5677L84.0059 101.605L98.6371 96.7808L95.3272 86.7431L80.6959 91.5677Z" fill="#FF2145"/>
<g opacity="0.8">
<path opacity="0.8" d="M80.6959 91.5697L84.0059 101.607L98.6371 96.7828L95.3272 86.745L80.6959 91.5697Z" fill="white"/>
</g>
<g opacity="0.6">
<path opacity="0.6" d="M77.0944 80.6615L80.4043 90.6992L95.0356 85.8746L91.7256 75.8368L77.0944 80.6615Z" fill="white"/>
</g>
<g opacity="0.4">
<path opacity="0.4" d="M73.4947 69.7474L76.8047 79.7852L91.4359 74.9605L88.126 64.9228L73.4947 69.7474Z" fill="white"/>
</g>
<path d="M177.787 60.1482L186.323 99.7565L222.151 77.2563L216.652 47.2858C216.609 47.0499 216.516 46.8259 216.379 46.6292C216.242 46.4326 216.064 46.2678 215.857 46.1462C215.65 46.0246 215.42 45.949 215.181 45.9246C214.943 45.9003 214.702 45.9277 214.475 46.005L178.879 58.2135C178.491 58.345 178.165 58.6151 177.963 58.9721C177.762 59.329 177.699 59.7478 177.787 60.1482Z" fill="#455A64"/>
<path d="M222.76 112.207L186.305 99.7568L222.178 77.1133L247.598 81.4485L222.76 112.207Z" fill="#455A64"/>
<path d="M188.238 97.2497L220.896 76.7558L215.145 48.0215L180.688 60.4808L188.238 97.2497Z" fill="#263238"/>
<path d="M190.854 99.5681L222.902 78.4473L237.234 81.3135H237.413L237.278 81.4389L235.899 82.7377L211.563 105.56H211.518L190.791 99.577L211.563 105.426H211.491L235.8 82.5675L237.18 81.2777V81.4389L222.848 78.5637H222.911L190.854 99.5681Z" fill="#263238"/>
<path d="M231.314 88.2109L231.888 88.3095L233.527 88.6409L239.456 89.8501H239.582L239.501 89.9486L232.774 97.9115V97.9563H232.712L232.237 97.8219L223.746 95.3945H223.611L223.71 95.296L229.236 90.1636L230.795 88.7305C231.153 88.399 231.35 88.2378 231.35 88.2378L230.804 88.7842L229.272 90.2532L223.826 95.4124V95.2691L232.327 97.6786L232.801 97.8129H232.703L239.456 89.877L239.501 90.0024L233.607 88.7215L231.968 88.3542C231.511 88.3005 231.314 88.2109 231.314 88.2109Z" fill="#263238"/>
<path d="M234.493 88.7213C234.493 88.7213 233.007 90.5127 231.081 92.5638C229.155 94.615 227.561 96.3258 227.498 96.29C227.435 96.2542 228.985 94.4986 230.911 92.4385C232.836 90.3783 234.458 88.6854 234.493 88.7213Z" fill="#263238"/>
<path d="M200.205 85.5238C200.205 85.5238 200.205 85.4073 200.277 85.2013C200.348 84.9953 200.438 84.6549 200.528 84.3056L201.486 81.0183C202.328 78.1521 203.448 74.3632 204.684 70.1713C206.995 62.4055 208.58 57.1118 209.252 54.8457C209.24 54.9541 209.222 55.0617 209.198 55.1682C209.153 55.3742 209.064 55.6787 208.965 56.0639C208.723 56.9596 208.41 58.0344 208.069 59.3601C207.227 62.2263 206.117 66.0152 204.89 70.2161L201.638 81.0452C201.226 82.3619 200.895 83.4636 200.626 84.3235C200.519 84.6549 200.42 84.9505 200.339 85.2192C200.259 85.4879 200.205 85.5238 200.205 85.5238Z" fill="white"/>
<path d="M198.978 79.9618C198.933 79.9618 199.99 76.0296 201.361 71.2196C202.731 66.4097 203.869 62.5223 203.913 62.5313C203.958 62.5402 202.901 66.4545 201.549 71.2823C200.196 76.1102 199.032 79.9707 198.978 79.9618Z" fill="white"/>
<path d="M282.878 125.355L241.183 131.393L238.407 142.419L232.979 145.742L243.736 162.635L249.164 159.061L260.674 160.575L282.878 125.355Z" fill="#FAFAFA"/>
<path d="M282.88 125.355L260.782 160.646L260.738 160.709H260.666L249.156 159.213H249.255L243.818 162.796L243.701 162.877L243.63 162.76L238.139 154.135L232.899 145.813L232.818 145.688L232.899 145.625L238.327 142.311L238.264 142.392C239.232 138.576 240.16 134.901 241.05 131.366V131.285H241.14L282.853 125.382L241.175 131.554L241.283 131.455L238.515 142.481V142.535L233.087 145.849L233.132 145.652L238.399 153.92L243.889 162.545H243.692L249.129 158.962H249.174H249.219L260.666 160.44L260.541 160.503C273.69 139.83 282.253 126.332 282.88 125.355Z" fill="#263238"/>
<path d="M260.513 148.036C259.847 148.475 259.1 148.778 258.316 148.926C257.532 149.074 256.726 149.064 255.946 148.898C255.165 148.731 254.426 148.41 253.771 147.955C253.116 147.499 252.558 146.918 252.13 146.244C251.254 144.873 250.95 143.212 251.285 141.619C251.62 140.027 252.567 138.629 253.921 137.726C254.586 137.285 255.332 136.982 256.116 136.833C256.899 136.685 257.705 136.694 258.485 136.861C259.265 137.028 260.004 137.349 260.658 137.805C261.313 138.261 261.869 138.843 262.296 139.518C263.173 140.888 263.477 142.548 263.144 144.141C262.811 145.733 261.866 147.132 260.513 148.036Z" fill="#263238"/>
<path d="M282.879 125.356C282.924 125.419 277.209 129.396 270.124 134.224C263.039 139.052 257.262 142.93 257.217 142.859C257.172 142.787 262.878 138.819 269.972 133.991C277.066 129.163 282.834 125.285 282.879 125.356Z" fill="#263238"/>
<path d="M132.802 224.286C131.412 222.106 130.928 219.47 131.453 216.938C131.978 214.406 133.472 212.18 135.615 210.734L227.407 149.646L237.905 166.145L146.202 227.134C145.14 227.843 143.948 228.332 142.694 228.573C141.44 228.814 140.151 228.801 138.902 228.535C137.653 228.27 136.47 227.757 135.423 227.027C134.375 226.298 133.484 225.365 132.802 224.286Z" fill="#FF2145"/>
<path d="M238.908 167.724L226.574 148.332L233.202 143.979L245.545 163.371L238.908 167.724Z" fill="#FF2145"/>
<path d="M281.947 128.438L279.547 124.927L283.004 122.49L285.405 126.001L281.947 128.438Z" fill="#FF2145"/>
<path d="M302.504 153.793C302.325 153.919 293.099 140.698 281.902 124.235C270.706 107.772 261.767 94.39 261.946 94.2646C262.125 94.1392 271.342 107.351 282.547 123.778C293.753 140.205 302.674 153.686 302.504 153.793Z" fill="#FF2145"/>
<path d="M302.96 154.457C302.825 154.552 302.674 154.619 302.513 154.655C302.353 154.691 302.187 154.694 302.025 154.665C301.863 154.636 301.709 154.575 301.571 154.485C301.433 154.395 301.314 154.279 301.222 154.143C301.124 154.005 301.055 153.849 301.018 153.684C300.98 153.519 300.976 153.349 301.006 153.182C301.035 153.016 301.096 152.857 301.187 152.714C301.278 152.572 301.397 152.448 301.535 152.352C301.67 152.256 301.822 152.188 301.983 152.152C302.144 152.116 302.311 152.114 302.473 152.144C302.635 152.174 302.789 152.236 302.927 152.327C303.064 152.419 303.182 152.537 303.273 152.674C303.371 152.812 303.44 152.967 303.477 153.131C303.514 153.295 303.518 153.465 303.489 153.631C303.46 153.797 303.398 153.955 303.307 154.097C303.216 154.239 303.098 154.361 302.96 154.457Z" fill="#FF2145"/>
<path d="M262.653 95.3493C262.519 95.4444 262.367 95.5119 262.207 95.5476C262.046 95.5834 261.88 95.5868 261.718 95.5576C261.556 95.5284 261.402 95.4672 261.264 95.3776C261.126 95.288 261.008 95.1718 260.915 95.0358C260.818 94.8978 260.748 94.7419 260.711 94.5769C260.674 94.412 260.67 94.2413 260.699 94.0748C260.728 93.9082 260.79 93.7491 260.881 93.6066C260.972 93.4641 261.09 93.341 261.229 93.2444C261.363 93.1484 261.515 93.0806 261.676 93.0448C261.837 93.009 262.004 93.0061 262.166 93.0362C262.328 93.0663 262.483 93.1288 262.62 93.22C262.758 93.3112 262.876 93.4291 262.966 93.5668C263.064 93.7041 263.133 93.8593 263.17 94.0236C263.207 94.1878 263.211 94.3577 263.182 94.5236C263.153 94.6894 263.091 94.8477 263 94.9895C262.909 95.1312 262.791 95.2535 262.653 95.3493Z" fill="#FF2145"/>
<path opacity="0.3" d="M227.407 149.646L237.905 166.145L235.451 167.776L226.529 150.238L227.407 149.646Z" fill="black"/>
<path opacity="0.5" d="M236.578 149.289L233.855 159.393L235.307 162.071L238.11 151.69L236.578 149.289Z" fill="white"/>
<path d="M0.166016 121.424L16.0828 150.973L84.2373 204.85L99.9391 183.076L33.0296 130.56L0.166016 121.424Z" fill="#FF2145"/>
<g opacity="0.7">
<path opacity="0.7" d="M33.0296 130.56C33.0392 130.864 32.9786 131.166 32.8526 131.443C32.7265 131.72 32.5384 131.964 32.3027 132.156C32.0671 132.348 31.7903 132.484 31.4938 132.552C31.1973 132.62 30.8892 132.619 30.5933 132.548C31.3674 133.536 31.8107 134.743 31.8601 135.998C31.9095 137.252 31.5626 138.49 30.8686 139.536C30.1746 140.582 29.1687 141.383 27.9938 141.825C26.8189 142.267 25.5346 142.327 24.3233 141.998C24.6756 143.179 24.7087 144.433 24.4192 145.631C24.1297 146.829 23.528 147.929 22.6752 148.819C21.8224 149.709 20.749 150.358 19.5643 150.698C18.3796 151.039 17.1258 151.059 15.9305 150.758L0.166016 121.441L33.0296 130.56Z" fill="white"/>
</g>
<path d="M6.56185 133.31C6.56185 133.31 12.9303 134.206 13.629 125.168L0.193359 121.424L6.56185 133.31Z" fill="#FF2145"/>
<path opacity="0.3" d="M24.3596 142.043L91.4393 194.245L84.2736 204.895L16.0832 151L15.9668 150.785C16.9691 151.042 18.0169 151.066 19.0301 150.857C20.3793 150.59 21.6231 149.94 22.613 148.985C23.803 147.824 24.5318 146.271 24.6641 144.614C24.7224 143.745 24.6191 142.874 24.3596 142.043Z" fill="black"/>
<path opacity="0.3" d="M30.5938 132.549L97.9242 185.871L99.9396 183.076L33.0301 130.561C33.0227 131.086 32.8192 131.589 32.4595 131.972C32.0999 132.355 31.6101 132.589 31.0864 132.63C30.9199 132.619 30.7549 132.592 30.5938 132.549Z" fill="black"/>
<path d="M17.0784 140.708C17.1535 140.808 17.2614 140.878 17.383 140.905C17.5593 140.94 17.7421 140.907 17.896 140.815C18.0498 140.722 18.1639 140.576 18.216 140.404C18.3525 139.84 18.3087 139.248 18.0906 138.711C17.9712 138.378 17.7562 138.088 17.4726 137.878C17.3158 137.763 17.1332 137.689 16.9409 137.663C16.7486 137.636 16.5527 137.658 16.3708 137.726C16.179 137.826 16.0105 137.965 15.8762 138.135C15.7419 138.305 15.645 138.501 15.5916 138.711C15.4573 139.171 15.388 139.647 15.3856 140.126C15.3474 141.191 15.5304 142.252 15.923 143.243C16.0193 143.506 16.1706 143.745 16.3668 143.944C16.563 144.143 16.7995 144.298 17.0605 144.399C17.3409 144.47 17.6346 144.469 17.9147 144.397C18.1948 144.325 18.4524 144.184 18.6638 143.987C19.0792 143.519 19.3957 142.973 19.5943 142.38C19.7929 141.788 19.8694 141.161 19.8193 140.538C19.8159 139.324 19.4802 138.133 18.8487 137.096C18.2171 136.059 17.3138 135.214 16.2365 134.653C15.9915 134.549 15.7258 134.503 15.4602 134.519C15.1945 134.534 14.936 134.611 14.7048 134.743C14.2696 135.009 13.9067 135.378 13.6479 135.818C13.1578 136.607 12.7951 137.468 12.573 138.37C12.2348 139.68 12.1618 141.045 12.3581 142.383C12.4387 142.858 12.5193 143.225 12.582 143.467C12.6205 143.59 12.6505 143.716 12.6716 143.843C12.4981 143.376 12.3691 142.893 12.2864 142.401C12.0633 141.052 12.1151 139.672 12.4387 138.344C12.6514 137.443 12.9923 136.577 13.4508 135.773C13.7277 135.315 14.1081 134.928 14.5615 134.644C14.8145 134.501 15.0966 134.417 15.3867 134.398C15.6767 134.38 15.9673 134.427 16.2365 134.537C17.3589 135.1 18.3035 135.963 18.9659 137.03C19.6283 138.097 19.9825 139.327 19.9895 140.583C20.0011 141.24 19.9166 141.894 19.7387 142.527C19.5759 143.157 19.2373 143.729 18.7624 144.175C18.5257 144.394 18.237 144.549 17.9235 144.626C17.6101 144.703 17.2823 144.699 16.971 144.614C16.6875 144.505 16.4306 144.336 16.2174 144.12C16.0042 143.904 15.8397 143.645 15.7349 143.36C15.336 142.346 15.153 141.26 15.1975 140.171C15.1976 139.676 15.2731 139.183 15.4214 138.711C15.4866 138.481 15.6003 138.268 15.7548 138.085C15.9093 137.903 16.101 137.756 16.3171 137.654C16.5175 137.574 16.7351 137.548 16.9487 137.578C17.1622 137.608 17.3643 137.693 17.5353 137.824C17.8395 138.049 18.0677 138.361 18.1891 138.72C18.4003 139.278 18.4347 139.888 18.2877 140.466C18.2279 140.648 18.1037 140.801 17.9386 140.896C17.7735 140.992 17.579 141.024 17.3919 140.986C17.3189 140.974 17.2507 140.941 17.1953 140.892C17.1398 140.843 17.0993 140.779 17.0784 140.708Z" fill="white"/>
<path d="M19.3713 127.059C19.3713 127.059 19.2369 127.417 19.1294 128.089C18.9963 129.043 19.0573 130.015 19.3086 130.946C19.6912 132.326 20.2322 133.658 20.9209 134.914C21.7873 136.455 22.3926 138.129 22.7123 139.867C22.9465 141.641 22.6537 143.445 21.8703 145.053C21.335 146.141 20.5817 147.107 19.6571 147.892C18.7326 148.676 17.6566 149.262 16.4961 149.613C16.1581 149.722 15.81 149.797 15.457 149.836L15.7257 149.765C15.8959 149.72 16.1557 149.648 16.4781 149.541C17.3917 149.236 18.2528 148.792 19.0309 148.224C20.1761 147.373 21.0981 146.258 21.718 144.973C22.4747 143.391 22.7577 141.624 22.5331 139.885C22.2064 138.168 21.6013 136.516 20.7417 134.995C20.0556 133.724 19.5205 132.377 19.1474 130.982C18.9108 130.033 18.8712 129.045 19.0309 128.08C19.099 127.726 19.2135 127.383 19.3713 127.059Z" fill="white"/>
<path d="M26.9577 128.752C26.3853 129.112 25.9647 129.67 25.7754 130.319C25.4315 131.914 25.3408 133.552 25.5067 135.174C25.6103 136.803 25.8622 138.419 26.2591 140.002C26.4113 140.611 26.5546 141.104 26.6532 141.444C26.7161 141.613 26.7641 141.787 26.7965 141.964C26.7098 141.804 26.6407 141.636 26.5905 141.462C26.4651 141.131 26.3038 140.647 26.1337 140.038C25.6935 138.452 25.4204 136.825 25.3186 135.183C25.2662 134.288 25.2662 133.391 25.3186 132.496C25.3292 131.752 25.4468 131.012 25.6679 130.302C25.8241 129.817 26.1126 129.386 26.5009 129.056C26.6361 128.931 26.7903 128.829 26.9577 128.752Z" fill="white"/>
<path d="M30.1729 140.332C29.9682 140.023 29.7971 139.692 29.6624 139.347C29.2751 138.529 29.0761 137.636 29.0801 136.731C29.0783 136.274 29.1787 135.822 29.374 135.408C29.5692 134.994 29.8544 134.629 30.2087 134.34C30.4275 134.169 30.6767 134.041 30.9432 133.964C31.0406 133.942 31.1415 133.942 31.2388 133.964C30.8966 134.085 30.576 134.26 30.2894 134.483C29.9693 134.775 29.7132 135.131 29.5375 135.527C29.3617 135.923 29.2701 136.352 29.2682 136.785C29.2706 137.662 29.4472 138.53 29.7878 139.338C29.9347 139.662 30.0633 139.994 30.1729 140.332Z" fill="white"/>
<path d="M14.9821 125.482L15.0537 125.617C15.0537 125.715 15.1612 125.859 15.2329 126.038C15.3319 126.267 15.3866 126.513 15.3941 126.763C15.3825 127.092 15.2968 127.413 15.1433 127.704C14.8477 128.358 14.3461 129.056 13.8714 129.853C13.3596 130.729 12.9222 131.646 12.5636 132.594C11.9374 134.345 11.4492 136.142 11.1036 137.969C10.9782 138.569 10.8708 139.115 10.7722 139.617C10.7369 139.82 10.6891 140.02 10.6289 140.217C10.6303 140.009 10.6543 139.802 10.7006 139.599C10.7543 139.205 10.8439 138.64 10.9782 137.942C11.288 136.112 11.7617 134.313 12.3935 132.567C12.7534 131.609 13.2001 130.686 13.7281 129.809C14.2207 129.003 14.7223 128.322 15.0268 127.686C15.1699 127.452 15.2572 127.188 15.2821 126.914C15.3069 126.641 15.2686 126.366 15.1702 126.109C15.0863 125.907 15.0233 125.697 14.9821 125.482Z" fill="white"/>
<path d="M162.228 48.2169C162.271 44.0104 161.184 39.8696 159.08 36.2268C156.976 32.5839 153.933 29.5728 150.268 27.5078C146.603 25.4429 142.45 24.3998 138.245 24.4875C134.039 24.5753 129.934 25.7906 126.358 28.0067C122.782 30.2227 119.867 33.3582 117.917 37.0856C115.967 40.813 115.054 44.9956 115.272 49.1966C115.49 53.3976 116.833 57.463 119.159 60.9681C121.485 64.4732 124.709 67.2894 128.496 69.1228C128.496 71.9084 128.433 75.0524 128.433 75.0524L149.034 75.2673C149.034 75.2673 149.195 71.9353 149.276 68.9974C153.137 67.0591 156.388 64.094 158.673 60.4279C160.958 56.7618 162.188 52.5366 162.228 48.2169Z" fill="#FF2145"/>
<path d="M141.582 75.0886V74.802C141.582 74.596 141.645 74.3183 141.689 73.9063C141.788 73.1628 141.931 72.1149 142.155 70.6638C142.379 69.2128 142.675 67.5378 143.14 65.5672C143.652 63.3245 144.39 61.1397 145.344 59.0465C145.892 57.8259 146.549 56.6568 147.305 55.5532C147.719 54.9507 148.276 54.4611 148.927 54.129C149.279 53.9635 149.665 53.8861 150.054 53.9032C150.443 53.9204 150.821 54.0317 151.157 54.2275C151.505 54.4235 151.768 54.7432 151.891 55.1232C152.014 55.525 151.975 55.9585 151.784 56.3325C151.382 57.0543 150.729 57.6028 149.948 57.8731C149.15 58.1306 148.308 58.2283 147.472 58.1607C146.636 58.0931 145.822 57.8614 145.075 57.479C144.288 57.0765 143.592 56.5178 143.028 55.8371C142.465 55.1564 142.046 54.368 141.797 53.5199C141.506 52.653 141.466 51.7216 141.68 50.8328C141.796 50.3549 142.076 49.9325 142.47 49.6382C142.864 49.3439 143.348 49.1962 143.839 49.2205C144.091 49.2506 144.331 49.3434 144.538 49.4906C144.744 49.6377 144.911 49.8343 145.021 50.0625C145.25 50.5102 145.313 51.0238 145.201 51.5135C144.899 52.4431 144.309 53.2524 143.517 53.8245C142.761 54.4524 141.881 54.9134 140.935 55.1774C139.989 55.4414 138.997 55.5023 138.026 55.3561C137.058 55.1871 136.146 54.787 135.366 54.1897C134.586 53.5924 133.963 52.8157 133.547 51.9256C133.328 51.486 133.204 51.0053 133.183 50.5147C133.161 50.0241 133.242 49.5344 133.422 49.0772C133.513 48.8421 133.652 48.6288 133.832 48.4513C134.011 48.2738 134.225 48.1361 134.461 48.0471C134.699 47.9706 134.95 47.9446 135.198 47.9708C135.446 47.9971 135.687 48.0749 135.903 48.1994C136.332 48.4347 136.676 48.7979 136.888 49.2384C137.085 49.6672 137.201 50.1289 137.229 50.5999C137.283 51.5124 137.152 52.4265 136.844 53.287C136.269 54.9894 135.064 56.4065 133.476 57.2461C131.975 58.0197 130.249 58.2386 128.603 57.8641C127.796 57.7269 127.058 57.3232 126.507 56.7176C126.23 56.4103 126.068 56.0168 126.049 55.6037C126.029 55.1907 126.153 54.7836 126.4 54.4515C126.672 54.151 127.052 53.9706 127.457 53.9499C127.844 53.9263 128.23 54.0067 128.576 54.1828C129.212 54.5574 129.711 55.1255 130 55.804C130.574 57.0849 131.039 58.3299 131.505 59.5212C133.297 64.2684 134.622 68.1917 135.491 70.8967C135.921 72.2582 136.234 73.3151 136.449 74.0317C136.557 74.39 136.629 74.6587 136.691 74.8557L136.763 75.1334C136.723 75.0465 136.69 74.9567 136.664 74.8647L136.396 74.0496L135.384 70.9325C134.488 68.2454 133.162 64.3311 131.308 59.5928C130.842 58.4105 130.412 57.1565 129.794 55.9025C129.529 55.2674 129.063 54.736 128.469 54.3888C128.18 54.1512 127.809 54.038 127.437 54.0742C127.065 54.1103 126.722 54.2927 126.485 54.5813C126.247 54.87 126.134 55.2412 126.17 55.6132C126.206 55.9853 126.389 56.3278 126.677 56.5653C127.2 57.1234 127.893 57.4921 128.648 57.6133C130.231 57.9747 131.891 57.7621 133.332 57.0132C134.842 56.2112 135.991 54.8669 136.548 53.2512C136.84 52.4273 136.965 51.5533 136.915 50.6805C136.919 50.2484 136.813 49.8224 136.606 49.443C136.399 49.0636 136.098 48.7435 135.733 48.5129C135.551 48.4058 135.348 48.3384 135.138 48.3152C134.928 48.2921 134.716 48.3137 134.515 48.3786C134.31 48.4548 134.124 48.5743 133.969 48.7288C133.815 48.8834 133.695 49.0694 133.619 49.2743C133.457 49.6951 133.385 50.1449 133.407 50.5952C133.428 51.0454 133.543 51.4863 133.744 51.8897C134.146 52.7401 134.746 53.4813 135.494 54.0504C136.243 54.6195 137.117 54.9998 138.044 55.1591C138.98 55.2955 139.935 55.2328 140.846 54.9751C141.756 54.7173 142.602 54.2703 143.328 53.6632C144.072 53.1336 144.628 52.3805 144.914 51.5135C145.013 51.0877 144.959 50.6407 144.762 50.2506C144.671 50.0636 144.535 49.9024 144.366 49.7819C144.197 49.6614 144 49.5853 143.794 49.5609C143.371 49.5283 142.95 49.6598 142.621 49.9281C142.292 50.1997 142.055 50.5655 141.94 50.9761C141.738 51.8205 141.775 52.7044 142.048 53.5289C142.288 54.3391 142.689 55.0924 143.228 55.7435C143.767 56.3946 144.432 56.9301 145.183 57.3177C146.625 58.0601 148.301 58.2049 149.849 57.7208C150.571 57.4731 151.176 56.9696 151.551 56.3056C151.702 55.9947 151.731 55.639 151.633 55.3077C151.535 54.9765 151.318 54.6935 151.023 54.5142C150.719 54.3413 150.379 54.2431 150.03 54.2275C149.681 54.2119 149.334 54.2795 149.016 54.4246C148.398 54.7394 147.868 55.2045 147.476 55.7771C146.722 56.8672 146.066 58.0211 145.514 59.2256C144.582 61.2916 143.85 63.4422 143.328 65.6478C142.854 67.6094 142.54 69.3202 142.298 70.7265C142.057 72.1328 141.904 73.2076 141.779 73.96C141.725 74.3183 141.68 74.6049 141.645 74.802C141.629 74.8986 141.608 74.9943 141.582 75.0886Z" fill="#263238"/>
<path d="M147.403 79.0562L129.722 78.8771C129.548 78.8747 129.376 78.8381 129.216 78.7694C129.056 78.7006 128.911 78.6009 128.79 78.4762C128.668 78.3514 128.573 78.2039 128.508 78.0422C128.444 77.8805 128.412 77.7076 128.414 77.5335C128.415 77.3594 128.451 77.1873 128.519 77.0269C128.586 76.8665 128.685 76.721 128.809 76.5988C128.933 76.4765 129.08 76.3798 129.241 76.3143C129.402 76.2488 129.575 76.2156 129.749 76.2168L147.43 76.4049C147.782 76.4096 148.119 76.5536 148.365 76.8053C148.612 77.057 148.749 77.3961 148.747 77.7485C148.744 77.9226 148.708 78.0945 148.639 78.2545C148.57 78.4144 148.471 78.5592 148.346 78.6807C148.221 78.8021 148.074 78.8978 147.912 78.9622C147.75 79.0266 147.577 79.0586 147.403 79.0562Z" fill="#263238"/>
<path d="M147.394 80.2389L129.713 80.0508C129.356 80.0508 129.015 80.1923 128.763 80.4443C128.511 80.6963 128.369 81.038 128.369 81.3943C128.369 81.7507 128.511 82.0924 128.763 82.3444C129.015 82.5964 129.356 82.7379 129.713 82.7379H131.647L134.173 87.6643C134.319 87.9346 134.535 88.1606 134.798 88.3183C135.061 88.476 135.362 88.5595 135.669 88.56L141.993 88.6317C142.304 88.6341 142.61 88.552 142.878 88.3943C143.146 88.2366 143.367 88.009 143.516 87.736L146.068 82.8723H147.394C147.75 82.8723 148.092 82.7307 148.344 82.4787C148.596 82.2268 148.738 81.885 148.738 81.5287C148.738 81.1724 148.596 80.8306 148.344 80.5787C148.092 80.3267 147.75 80.1851 147.394 80.1851V80.2389Z" fill="#263238"/>
<g opacity="0.2">
<path opacity="0.2" d="M123.793 32.8469C125.191 31.5657 126.792 30.5246 128.531 29.7657C129.684 29.2441 130.911 28.9028 132.167 28.7536C133.063 28.664 133.556 28.7536 133.601 28.9506C133.699 29.3716 131.908 29.9896 129.489 31.5661C126.336 33.5188 123.811 36.337 122.215 39.6847C120.619 43.0325 120.019 46.7685 120.487 50.4476C120.783 53.3139 121.428 55.0874 121.034 55.2845C120.864 55.374 120.478 55.0337 119.986 54.2902C119.31 53.2218 118.802 52.0557 118.481 50.8328C117.977 49.006 117.78 47.1081 117.899 45.2167C118.027 42.8675 118.608 40.5652 119.61 38.4362" fill="white"/>
</g>
<g opacity="0.2">
<path opacity="0.2" d="M139.236 30.0168C137.749 30.0168 136.441 29.5689 136.298 28.7807C136.235 28.3866 136.513 27.9746 137.059 27.6521C137.742 27.2901 138.508 27.1111 139.28 27.1326C140.058 27.1282 140.822 27.3324 141.493 27.7238C142.03 28.0552 142.29 28.4851 142.218 28.8703" fill="white"/>
</g>
<path d="M143.157 88.1301C142.748 88.0234 142.344 87.8948 141.948 87.7449C139.993 87.1615 137.906 87.199 135.974 87.8524C135.582 88.0174 135.181 88.1609 134.773 88.2824C135.115 88.0189 135.496 87.8104 135.902 87.6643C137.856 86.8807 140.029 86.8392 142.011 87.5479C142.426 87.6691 142.815 87.8666 143.157 88.1301Z" fill="#455A64"/>
<path d="M146.077 82.9263C146.077 83.0069 142.88 83.0427 138.912 82.9979C134.944 82.9531 131.746 82.8546 131.746 82.7829C131.746 82.7113 134.944 82.6665 138.912 82.7113C142.88 82.7561 146.077 82.8367 146.077 82.9263Z" fill="#455A64"/>
<path d="M144.949 85.0033C144.375 85.1036 143.794 85.1575 143.212 85.1646C142.128 85.2183 140.641 85.2631 138.993 85.272C137.345 85.281 135.849 85.272 134.774 85.1914C134.189 85.1942 133.604 85.1463 133.027 85.0481C133.607 84.9801 134.191 84.9592 134.774 84.9854H138.993H143.203C143.784 84.9397 144.369 84.9457 144.949 85.0033Z" fill="#455A64"/>
<path d="M111.629 30.6894C109.597 30.0007 107.619 29.1655 105.708 28.1904C103.746 27.3605 101.848 26.3875 100.029 25.2793C102.047 25.9632 104.011 26.7955 105.905 27.7694C107.882 28.6016 109.795 29.5775 111.629 30.6894Z" fill="#263238"/>
<path d="M124.169 19.7608C123.48 18.9807 122.857 18.1449 122.306 17.2617C121.204 15.6763 119.735 13.455 118.177 10.9918C116.618 8.52857 115.275 6.19972 114.334 4.52474C113.783 3.64045 113.307 2.71165 112.91 1.74805C113.553 2.5673 114.139 3.42915 114.666 4.32769L118.616 10.7141L122.62 17.0826C123.201 17.9364 123.719 18.8315 124.169 19.7608Z" fill="#263238"/>
<path d="M137.955 3.79883C138.259 6.01912 138.408 8.25777 138.403 10.4987C138.563 12.7322 138.563 14.9742 138.403 17.2076C138.105 14.9868 137.958 12.7484 137.964 10.5077C137.809 8.27418 137.806 6.03274 137.955 3.79883Z" fill="#263238"/>
<path d="M161.709 0.727086C161.825 0.780828 159.971 4.97275 157.562 10.0783C155.152 15.1838 153.083 19.2862 152.993 19.2324C152.904 19.1787 154.731 14.9957 157.141 9.88124C159.55 4.76674 161.592 0.673343 161.709 0.727086Z" fill="#263238"/>
<path d="M171.767 19.7617C170.287 21.2322 168.701 22.5914 167.02 23.8282C165.435 25.1858 163.753 26.4252 161.986 27.5365C163.465 26.0617 165.052 24.6995 166.734 23.461C168.318 22.1055 170.001 20.8691 171.767 19.7617Z" fill="#263238"/>
<path d="M223.037 203.176L226.011 218.976L228.456 214.569L233.714 222.443L236.338 220.669L231.09 212.796L235.908 212.052L223.037 203.176Z" fill="#FAFAFA"/>
</svg>
