<svg width="65" height="65" viewBox="0 0 65 65" fill="none" xmlns="http://www.w3.org/2000/svg">
<path d="M52.0001 37.2754L42.6088 19.2754H56.8262C57.9308 19.2754 58.8262 20.1708 58.8262 21.2754V35.2754C58.8262 36.38 57.9308 37.2754 56.8262 37.2754H52.0001Z" fill="white"/>
<path d="M22.7238 27.555L33.8262 6.27539L57.8262 52.2754H31.0067C33.3819 49.6216 34.8261 46.1172 34.8261 42.2754C34.8261 34.9824 29.6214 28.905 22.7238 27.555Z" fill="white"/>
<path d="M32.8262 42.2754C32.8262 49.4551 27.0059 55.2754 19.8262 55.2754C12.6465 55.2754 6.82617 49.4551 6.82617 42.2754C6.82617 35.0957 12.6465 29.2754 19.8262 29.2754C27.0059 29.2754 32.8262 35.0957 32.8262 42.2754Z" fill="#FF2145"/>
</svg>
