<svg width="77" height="116" viewBox="0 0 77 116" fill="none" xmlns="http://www.w3.org/2000/svg">
<path d="M45.2202 7.66187H48.8195C49.8026 7.66187 50.5982 8.45829 50.5982 9.44058C50.5982 10.4229 49.8026 11.2193 48.8195 11.2193H45.2202C44.2371 11.2193 43.4415 10.4229 43.4415 9.44058C43.4415 8.45829 44.2371 7.66187 45.2202 7.66187ZM28.3936 7.66187H39.2865C40.2696 7.66187 41.0652 8.45829 41.0652 9.44058C41.0652 10.4229 40.2696 11.2193 39.2865 11.2193H28.3936C27.4105 11.2193 26.6149 10.4229 26.6149 9.44058C26.6149 8.45829 27.4105 7.66187 28.3936 7.66187ZM67.5764 0.541016H9.62598C4.71629 0.541016 0.732422 4.54312 0.732422 9.43458V106.374C0.732422 111.284 4.71629 115.268 9.62598 115.268H67.5764C72.4861 115.268 76.47 111.284 76.47 106.374V9.43458C76.47 4.54312 72.4852 0.541016 67.5764 0.541016ZM38.6012 110.714C36.6983 110.714 35.1505 109.167 35.1505 107.264C35.1505 105.361 36.6982 103.813 38.6012 103.813C40.5042 103.813 42.0519 105.361 42.0519 107.264C42.0519 109.167 40.5042 110.714 38.6012 110.714ZM67.5764 99.2595H9.62598V16.5494H67.5764V99.2595Z" fill="#FF2145"/>
<path d="M59.1988 62.4047C59.8745 62.9736 60.3192 63.81 60.3192 64.7524C60.3192 66.3713 59.0563 67.6871 57.4556 67.794C57.9715 68.3455 58.2911 69.0751 58.2911 69.8932C58.2911 71.4583 57.0995 72.7567 55.5702 72.9348C56.1217 73.5037 56.4413 74.2688 56.4413 75.1043C56.4413 76.8474 55.036 78.2709 53.293 78.2709H42.1587H42.1404H42.1048H42.0692C40.6283 78.2709 39.1875 77.7194 37.889 76.7058C37.0526 76.0475 36.1285 75.6384 35.1325 75.496V57.5663C35.1325 57.2997 35.1142 57.0504 35.0786 56.8012C35.3279 56.7126 35.5771 56.6231 35.8255 56.5163C39.8632 54.7376 41.6063 51.34 42.4784 48.21C43.3495 45.079 43.3495 42.2155 43.8298 41.4513C47.2091 36.862 53.6309 47.9972 49.1303 56.5348H57.9354C59.6247 56.5348 60.9943 57.9227 60.9943 59.6119C60.9952 60.8574 60.2665 61.9247 59.1991 62.405L59.1988 62.4047Z" fill="#FF2145"/>
<path d="M31.5751 57.5732V76.4643C31.5751 77.4413 30.783 78.2334 29.806 78.2334H28.0533C28.0533 79.3538 27.1283 80.2614 26.0253 80.2614H18.1096L18.1105 53.7764H26.0262C27.1292 53.7764 28.0542 54.6657 28.0542 55.8043H29.8068C30.783 55.8043 31.5751 56.5964 31.5751 57.5735V57.5732Z" fill="#FF2145"/>
</svg>
