<svg width="77" height="107" viewBox="0 0 77 107" fill="none" xmlns="http://www.w3.org/2000/svg">
<path d="M61.6235 0.0861816H16.0828C7.71092 0.0861816 0.902588 6.89451 0.902588 15.2664V91.1675C0.902588 99.5394 7.71092 106.348 16.0828 106.348H61.6235C69.9954 106.348 76.8037 99.5394 76.8037 91.1675V15.2664C76.8037 6.89451 69.9954 0.0861816 61.6235 0.0861816ZM8.4927 24.9926H69.2136V77.8848H8.4927V24.9926ZM16.0828 7.67586H61.6235C65.8091 7.67586 69.2136 11.0803 69.2136 15.266V17.4024H8.4927V15.266C8.4927 11.0803 11.8972 7.67586 16.0828 7.67586ZM61.6235 98.7572H16.0828C11.8972 98.7572 8.4927 95.3527 8.4927 91.1671V85.4745H69.2136V91.1671C69.2136 95.3527 65.8091 98.7572 61.6235 98.7572ZM43.4564 91.9753C43.4564 94.5184 41.3997 96.5827 38.8531 96.5827C36.3066 96.5827 34.2499 94.5183 34.2499 91.9753C34.2499 89.4331 36.3066 87.372 38.8531 87.372C41.3997 87.372 43.4564 89.4331 43.4564 91.9753ZM56.1699 48.4016L31.3459 31.8703C30.1845 31.1003 28.6859 31.0241 27.4526 31.6806C26.2192 32.3413 25.4492 33.6272 25.4492 35.0276V68.1096C25.4492 69.5099 26.2192 70.7967 27.4526 71.4567C28.0108 71.7565 28.6292 71.9048 29.2442 71.9048C29.9804 71.9048 30.7131 71.6888 31.3501 71.2669L56.1741 54.7202C57.2288 54.0146 57.8633 52.8303 57.8633 51.563C57.8624 50.2923 57.2254 49.1081 56.1699 48.4025L56.1699 48.4016ZM33.0396 61.0203V42.117L47.2253 51.5632L33.0396 61.0203Z" fill="#FF2145"/>
</svg>
