<svg width="310" height="62" viewBox="0 0 310 62" fill="none" xmlns="http://www.w3.org/2000/svg">
<path d="M22.7472 56.3397C35.594 56.3397 44.7087 48.0144 44.7087 35.67V4.80907H30.5701V35.383C30.5701 40.3351 27.4122 43.4929 22.7472 43.4929C18.1539 43.4929 14.996 40.3351 14.996 35.383V4.80907H0.857422V35.67C0.857422 48.0144 9.97217 56.3397 22.7472 56.3397Z" fill="black"/>
<path d="M75.9756 15.2157C70.9517 15.2157 66.6455 17.0817 63.7748 20.3113L61.9805 16.2922H52.5787V55.0479H65.9279V34.3782C65.9279 29.4261 68.2963 26.5553 72.4589 26.5553C75.8321 26.5553 77.5546 28.7801 77.5546 33.3016V55.0479H90.9037V31.4356C90.9037 21.6032 84.9468 15.2157 75.9756 15.2157Z" fill="black"/>
<path d="M98.9083 11.4837H112.114V0.144043H98.9083V11.4837ZM98.8365 55.0479H112.186V16.2922H98.8365V55.0479Z" fill="black"/>
<path d="M175.903 61.9378L165.497 49.3063C170.664 44.5695 173.678 37.8949 173.678 29.9285C173.678 14.5698 162.195 3.58899 146.047 3.58899C129.899 3.58899 118.416 14.6415 118.416 29.9285C118.416 45.2872 129.899 56.3397 146.047 56.3397C149.42 56.3397 152.65 55.8373 155.592 54.9761L161.19 61.9378H175.903ZM132.77 29.9285C132.77 22.1773 138.439 16.4358 146.047 16.4358C153.726 16.4358 159.253 22.1056 159.253 29.9285C159.253 37.8231 153.726 43.4929 146.047 43.4929C138.439 43.4929 132.77 37.7514 132.77 29.9285Z" fill="black"/>
<path d="M198.726 56.3397C210.21 56.3397 217.817 49.3063 217.817 38.4691V16.2922H204.468V37.8949C204.468 41.914 202.315 44.3542 198.726 44.3542C195.21 44.3542 192.985 41.9858 192.985 37.8949V16.2922H179.636V38.4691C179.636 49.3063 187.315 56.3397 198.726 56.3397Z" fill="black"/>
<path d="M256.987 16.2922L255.623 19.3066C252.465 16.6511 248.374 15.1439 243.781 15.1439C231.939 15.1439 223.47 23.6845 223.47 35.67C223.47 47.7273 231.939 56.3397 243.781 56.3397C248.302 56.3397 252.322 54.9043 255.479 52.3206L256.628 55.0479H266.963V16.2922H256.987ZM245.575 44.5695C240.551 44.5695 236.891 40.7657 236.891 35.67C236.891 30.6462 240.551 26.9141 245.575 26.9141C250.599 26.9141 254.259 30.6462 254.259 35.67C254.259 40.7657 250.599 44.5695 245.575 44.5695Z" fill="black"/>
<path d="M275.387 55.0479H288.736V2.29714H275.387V55.0479Z" fill="black"/>
<path d="M296.612 55.0479H309.602V42.7035H296.612V55.0479Z" fill="#FB2249"/>
</svg>
