<svg width="320" height="214" viewBox="0 0 320 214" fill="none" xmlns="http://www.w3.org/2000/svg">
<path d="M298.85 52.3273C291.212 41.5796 281.105 32.8357 269.384 26.8356C253.658 18.832 228.791 7.92657 210.312 8.26041C181.167 8.78257 115.592 44.6918 81.3055 51.5227C47.0186 58.3535 -3.35793 83.8581 7.12527 135.774C17.6085 187.691 45.4229 203.172 98.641 196.341C151.859 189.51 170.803 182.679 213.943 191.316C257.084 199.953 306.667 194.064 311.893 132.132C315.733 86.7856 310.076 68.052 298.85 52.3273Z" fill="#FF2145"/>
<path d="M298.85 52.3273C291.212 41.5795 281.105 32.8357 269.384 26.8356C253.658 18.832 228.791 7.92657 210.312 8.26041C181.167 8.78257 115.592 44.6918 81.3055 51.5226C47.0186 58.3535 -3.35792 83.8581 7.12527 135.774C17.6085 187.691 45.4229 203.172 98.641 196.341C151.859 189.51 170.803 182.679 213.943 191.316C257.084 199.953 306.667 194.064 311.893 132.132C315.733 86.7856 310.076 68.052 298.85 52.3273Z" fill="#101010"/>
<path d="M38.8652 54.2876L40.0172 68.356C40.0172 68.356 30.0204 66.7124 27.3708 72.0325C24.7212 77.3525 24.7169 91.2582 30.9078 98.6498C35.3665 103.978 40.1324 101.783 42.4492 100.139L43.6524 115.509C43.6524 121.248 54.6433 131.82 68.2028 131.82C81.7623 131.82 92.7532 121.248 92.7532 115.509L97.5361 54.3047L38.8652 54.2876ZM34.4449 92.4481C30.6049 89.1953 32.6742 74.9985 34.4449 73.2266C35.7548 71.9084 38.8524 72.8714 40.3628 73.4577L41.9457 93.7021C39.9702 94.1943 36.8556 94.4896 34.4449 92.4481Z" fill="#263238"/>
<path d="M68.2027 132.034C55.0102 132.034 43.4561 121.736 43.4561 115.509L42.2827 100.529C39.7227 102.241 35.1105 103.991 30.7627 98.7953C24.7041 91.5536 24.4225 77.5152 27.2001 71.9426C29.679 66.9735 38.1441 67.8766 39.8038 68.0906L38.6561 54.0608H97.7665V54.2919L92.9835 115.496C92.9665 121.736 81.391 132.034 68.2027 132.034ZM42.6326 99.7455L43.8614 115.492C43.8614 120.876 54.3873 131.606 68.2027 131.606C82.0182 131.606 92.5227 120.876 92.5227 115.509L97.2886 54.5016H39.0998L40.2518 68.6256L39.9787 68.5828C39.8806 68.5828 30.1142 67.0249 27.5585 72.1481C24.8321 77.6179 25.1094 91.4081 31.0699 98.53C35.3835 103.666 39.9745 101.65 42.3254 99.9809L42.6326 99.7455ZM39.151 94.2757C37.3882 94.3232 35.6679 93.7287 34.3083 92.6022C32.6529 91.2026 32.175 88.0183 32.0897 85.5958C31.8721 80.3571 33.1393 74.2239 34.2955 73.064C35.6651 71.6858 38.7329 72.5889 40.4395 73.248L40.5675 73.2951L42.1718 93.8391L41.9969 93.8819C41.0681 94.1303 40.1122 94.2626 39.151 94.2757ZM34.5814 92.2769C36.8129 94.1687 39.663 94.0189 41.7195 93.5267L40.1622 73.6161C38.7969 73.1025 35.8059 72.1738 34.6155 73.385C33.5105 74.4721 32.3073 80.5754 32.5163 85.6001C32.6529 88.9513 33.3697 91.2668 34.5814 92.2983V92.2769Z" fill="#263238"/>
<path d="M68.2027 66.7083C84.4031 66.7083 97.5361 61.1474 97.5361 54.2877C97.5361 47.4281 84.4031 41.8672 68.2027 41.8672C52.0024 41.8672 38.8694 47.4281 38.8694 54.2877C38.8694 61.1474 52.0024 66.7083 68.2027 66.7083Z" fill="white"/>
<path d="M68.2028 66.9265C51.9084 66.9265 38.6519 61.2555 38.6519 54.2876C38.6519 47.3198 51.9084 41.6531 68.2028 41.6531C84.4972 41.6531 97.7495 47.3241 97.7495 54.2876C97.7495 61.2512 84.4801 66.9265 68.2028 66.9265ZM68.2028 42.0811C52.1431 42.0811 39.0785 47.5595 39.0785 54.2876C39.0785 61.0158 52.1431 66.4985 68.2028 66.4985C84.2625 66.4985 97.3228 61.0201 97.3228 54.2876C97.3228 47.5552 84.2583 42.0811 68.2028 42.0811Z" fill="#263238"/>
<path d="M68.2027 65.3385C82.6169 65.3385 94.3019 60.3908 94.3019 54.2875C94.3019 48.1843 82.6169 43.2366 68.2027 43.2366C53.7885 43.2366 42.1035 48.1843 42.1035 54.2875C42.1035 60.3908 53.7885 65.3385 68.2027 65.3385Z" fill="white"/>
<path d="M68.2028 65.5569C53.6961 65.5569 41.886 60.5022 41.886 54.2877C41.886 48.0731 53.6919 43.0227 68.2028 43.0227C82.7137 43.0227 94.5153 48.0774 94.5153 54.2877C94.5153 60.4979 82.7094 65.5569 68.2028 65.5569ZM68.2028 43.4507C53.9265 43.4507 42.3127 48.3128 42.3127 54.2877C42.3127 60.2625 53.9265 65.1289 68.2028 65.1289C82.479 65.1289 94.0886 60.2668 94.0886 54.2877C94.0886 48.3085 82.4748 43.4507 68.2028 43.4507Z" fill="#263238"/>
<path d="M68.2026 65.3386C78.3305 65.3386 86.5408 63.911 86.5408 62.15C86.5408 60.389 78.3305 58.9614 68.2026 58.9614C58.0748 58.9614 49.8645 60.389 49.8645 62.15C49.8645 63.911 58.0748 65.3386 68.2026 65.3386Z" fill="#FF2145"/>
<path d="M68.2026 65.5568C61.265 65.5568 54.7242 64.4183 49.7791 62.3468L49.3098 62.1499L49.7791 61.953C54.7242 59.8858 61.265 58.7473 68.2026 58.7473C75.1402 58.7473 81.681 59.8858 86.6218 61.953L87.0954 62.1499L86.6218 62.3468C81.681 64.4183 75.136 65.5568 68.2026 65.5568ZM50.4277 62.1328C55.2618 64.0545 61.5466 65.1288 68.2026 65.1288C74.8586 65.1288 81.1434 64.0716 85.9733 62.1328C81.1434 60.2111 74.8586 59.1368 68.2026 59.1368C61.5466 59.1368 55.2618 60.2282 50.4277 62.1499V62.1328Z" fill="#263238"/>
<path d="M171.947 86.991C171.947 86.991 185.899 120.229 189.257 121.989C192.615 123.748 291.055 115.175 291.055 115.175L288.26 112.055L288.128 90.5434L291.81 90.3807L254.204 40.6985L169.229 46.9259C169.229 46.9259 164.693 50.076 164.062 52.8323C163.43 55.5886 163.593 59.7102 163.593 59.7102L171.947 86.991Z" fill="#263238"/>
<path d="M192.546 122.408C190.673 122.408 189.491 122.331 189.163 122.16C185.775 120.388 172.322 88.4161 171.755 87.0636V87.0422L163.379 59.7487V59.7187C163.379 59.6759 163.247 55.52 163.853 52.7851C164.459 50.0502 168.918 46.8787 169.11 46.746L169.156 46.7161H169.212L254.294 40.4758L254.362 40.57L292.224 90.5732L288.341 90.7487L288.474 111.973L291.499 115.35L291.072 115.384C287.441 115.701 210.018 122.408 192.546 122.408ZM172.152 86.8839C176.969 98.3586 186.756 120.401 189.359 121.762C191.962 123.123 256.474 117.931 290.611 114.961L288.051 112.102V112.02L287.919 90.3036L291.396 90.1495L254.106 40.921L169.306 47.1312C168.824 47.4779 164.822 50.4012 164.271 52.8793C163.699 55.4473 163.793 59.2993 163.802 59.6759L172.152 86.8839Z" fill="#263238"/>
<path d="M288.128 90.5432L191.573 98.3414C190.114 99.307 188.886 100.584 187.975 102.08C187.064 103.577 186.493 105.257 186.304 107C185.596 113.047 188.032 119.189 189.845 120.071C191.166 120.638 192.579 120.961 194.014 121.025L288.26 112.037L288.128 90.5432Z" fill="#E0E0E0"/>
<path d="M194.035 121.244C192.566 121.182 191.12 120.851 189.769 120.268C187.819 119.318 185.404 112.992 186.108 107C186.306 105.226 186.888 103.517 187.813 101.992C188.739 100.468 189.986 99.1646 191.467 98.1745L191.556 98.1445L288.341 90.3079L288.478 112.243L288.282 112.264L194.035 121.244ZM191.62 98.5597C190.207 99.518 189.017 100.772 188.133 102.236C187.25 103.699 186.692 105.338 186.5 107.038C185.788 113.15 188.326 119.112 189.914 119.878C191.208 120.432 192.591 120.748 193.997 120.811L288.021 111.858L287.889 90.7701L191.62 98.5597Z" fill="#263238"/>
<path d="M189.867 15.4678L150.916 69.4172C150.916 69.4172 148.783 71.5144 148.894 76.6547C149.005 81.795 149.257 90.1795 150.78 90.7787C152.303 91.3779 265.011 99.9379 265.011 99.9379L291.038 39.6455L289.007 38.7895L289.707 23.9251L291.414 19.1144L192.73 14.4749L189.867 15.4678Z" fill="#FF2145"/>
<path d="M265.148 100.152H264.994C260.391 99.8052 152.243 91.562 150.707 90.9713C149.474 90.4962 148.868 86.2162 148.681 76.6633C148.578 71.4888 150.677 69.3573 150.767 69.2674L189.734 15.2881L192.696 14.2566H192.738L291.695 18.9132L289.92 23.9679L289.22 38.6312L291.311 39.53L291.226 39.7312L265.148 100.152ZM189.999 15.6476L151.087 69.5414C151.044 69.5884 149.009 71.6814 149.107 76.6504C149.171 79.9503 149.372 89.9955 150.857 90.569C152.32 91.0441 225.98 96.7493 264.875 99.7239L290.752 39.7568L288.781 38.9008L289.506 23.8481L291.102 19.3027L192.76 14.6889L189.999 15.6476Z" fill="#263238"/>
<path d="M154.419 70.9537C154.419 70.9537 150.895 69.858 149.892 73.2563C148.89 76.6546 151.356 88.9682 151.356 88.9682C151.356 88.9682 153.459 89.8499 154.428 89.8798C155.396 89.9098 263.855 97.0916 263.855 97.0916L288.999 38.7724L289.707 23.925L265.651 76.1838L154.419 70.9537Z" fill="white"/>
<path d="M263.992 97.3142H263.842C262.759 97.2414 155.371 90.1281 154.419 90.1024C153.468 90.0767 151.36 89.2121 151.271 89.1779L151.168 89.1308L151.147 89.0195C151.044 88.5145 148.685 76.6075 149.692 73.2049C149.803 72.7431 150.008 72.3092 150.294 71.9301C150.579 71.5509 150.939 71.2346 151.352 71.0007C152.324 70.5464 153.426 70.4568 154.458 70.7482L265.519 75.9741L289.971 22.8379L289.195 38.8536L263.992 97.3142ZM151.539 88.8141C151.966 88.9896 153.634 89.6401 154.432 89.6701C155.384 89.6958 257.506 96.4624 263.719 96.8733L288.789 38.721L289.442 25.025L265.788 76.4064H265.643L154.385 71.1634H154.355C153.426 70.8986 152.432 70.9729 151.552 71.3731C151.191 71.5822 150.876 71.8626 150.626 72.1973C150.376 72.532 150.196 72.9141 150.097 73.3205C149.176 76.4534 151.3 87.5729 151.539 88.8141Z" fill="#263238"/>
<path d="M263.164 76.0684L154.419 70.9538C154.419 70.9538 150.895 69.8581 149.892 73.2564C148.89 76.6548 151.356 88.9683 151.356 88.9683C151.356 88.9683 153.459 89.85 154.428 89.88C155.396 89.9099 263.855 97.0918 263.855 97.0918L263.706 76.5478L263.164 76.0684Z" fill="#E0E0E0"/>
<path d="M264.073 97.3185H263.842C262.759 97.2458 155.371 90.1324 154.419 90.1067C153.468 90.081 151.36 89.2165 151.271 89.1822L151.168 89.1352L151.147 89.0239C151.044 88.5188 148.685 76.6119 149.692 73.2093C149.803 72.7475 150.008 72.3136 150.294 71.9344C150.579 71.5553 150.939 71.239 151.352 71.0051C152.324 70.5507 153.426 70.4611 154.458 70.7526L263.258 75.8886L263.928 76.4621V76.5605L264.073 97.3185ZM151.539 88.8142C151.966 88.9896 153.634 89.6402 154.432 89.6702C155.379 89.6958 256.691 96.4069 263.659 96.8648L263.509 76.6376L263.083 76.2823L154.385 71.1634H154.355C153.426 70.8987 152.432 70.973 151.552 71.3732C151.191 71.5823 150.876 71.8627 150.626 72.1974C150.376 72.5321 150.196 72.9142 150.097 73.3206C149.176 76.4535 151.3 87.573 151.539 88.8142Z" fill="#263238"/>
<path d="M169.028 181.472C169.028 181.472 173.013 187.237 177.177 187.147C204.936 186.539 252.808 199.876 258.364 199.876C263.919 199.876 268.049 199.384 268.049 198.198C268.049 197.013 248.512 119.446 248.512 119.446L244.638 118.265L257.941 193.961C257.941 193.961 241.433 191.598 208.085 186.022C174.737 180.445 176.085 175.75 172.057 176.58C168.03 177.41 169.028 181.472 169.028 181.472Z" fill="#FF2145"/>
<path d="M258.364 200.081C256.683 200.081 251.221 198.887 243.665 197.235C226.069 193.383 196.608 186.929 177.182 187.391H177.067C172.877 187.391 169.007 181.861 168.845 181.626L168.811 181.553C168.811 181.476 168.35 179.636 169.297 178.129C169.606 177.672 170.007 177.283 170.473 176.989C170.939 176.694 171.461 176.499 172.006 176.417C173.457 176.118 174.251 176.494 175.983 177.325C179.289 178.904 186.167 182.187 208.111 185.859C238.711 190.995 255.317 193.413 257.672 193.756L244.356 118L248.678 119.322L248.708 119.438C249.506 122.605 268.254 197.034 268.254 198.228C268.254 199.422 264.934 200.081 258.364 200.081ZM179.089 186.925C198.553 186.925 226.709 193.084 243.755 196.816C251.285 198.464 256.725 199.653 258.364 199.653C265.348 199.653 267.836 198.9 267.836 198.19C267.776 197.038 255.07 146.376 248.32 119.622L244.907 118.577L258.206 194.222L257.911 194.179C257.749 194.154 241.02 191.748 208.051 186.236C186.044 182.559 179.132 179.255 175.808 177.676C174.101 176.867 173.41 176.529 172.104 176.82C171.614 176.892 171.144 177.066 170.723 177.331C170.303 177.595 169.943 177.944 169.664 178.356C169.161 179.294 169.01 180.381 169.237 181.421C169.57 181.887 173.355 187.053 177.186 186.985C177.8 186.929 178.44 186.925 179.089 186.925Z" fill="#263238"/>
<path d="M262.323 197.851C256.597 197.513 245.457 194.607 217.95 188.945C190.443 183.282 169.847 179.854 169.847 179.854L169.267 181.844C170.219 183.098 173.623 187.237 177.156 187.16C204.936 186.539 252.808 199.876 258.364 199.876C263.919 199.876 268.049 199.384 268.049 198.198C268.049 198.095 265.178 198.023 262.323 197.851Z" fill="#263238"/>
<path d="M258.364 200.081C256.683 200.081 251.221 198.887 243.665 197.235C226.069 193.383 196.617 186.933 177.182 187.391C173.538 187.485 170.095 183.278 169.118 181.99L169.054 181.904L169.715 179.632L169.903 179.662C170.108 179.696 190.844 183.158 218.014 188.752C227.861 190.781 235.571 192.446 241.762 193.786C252.668 196.144 258.675 197.441 262.336 197.638C263.424 197.702 264.521 197.753 265.455 197.796C268.262 197.929 268.262 197.929 268.262 198.19C268.262 199.448 264.934 200.081 258.364 200.081ZM179.089 186.925C198.554 186.925 226.709 193.084 243.755 196.816C251.285 198.464 256.725 199.653 258.364 199.653C264.811 199.653 267.426 199.011 267.789 198.369C267.396 198.327 266.436 198.284 265.434 198.237C264.499 198.194 263.403 198.143 262.31 198.078C258.62 197.86 252.6 196.559 241.673 194.201C235.482 192.861 227.772 191.205 217.929 189.167C192.137 183.856 172.152 180.47 170.018 180.111L169.523 181.823C170.539 183.145 173.76 186.959 177.08 186.959H177.173C177.801 186.929 178.441 186.925 179.089 186.925Z" fill="#263238"/>
<path d="M79.0783 116.416C79.0783 116.416 77.056 117.092 76.7232 118.612C76.3904 120.131 57.0154 198.027 58.8672 198.22C60.7189 198.412 162.795 199.076 163.972 197.882C165.15 196.687 169.028 181.472 169.028 181.472L160.427 193.144L71.8293 190.948L82.4405 118.291L79.0783 116.416Z" fill="#FF2145"/>
<path d="M122.841 198.797C93.5764 198.797 59.4004 198.476 58.8415 198.425C58.7996 198.421 58.7591 198.408 58.7229 198.387C58.6868 198.365 58.6558 198.336 58.6324 198.301C58.3252 197.873 57.3866 196.546 75.618 122.232C76.1471 120.092 76.4714 118.766 76.5098 118.582C76.8682 116.964 78.9204 116.258 79.0058 116.232L79.0954 116.202L82.6751 118.175L72.081 190.738L160.333 192.929L169.502 180.479L169.233 181.54C168.836 183.103 165.312 196.837 164.113 198.027C163.533 198.622 144.533 198.797 122.841 198.797ZM58.9695 198.006C62.353 198.1 161.617 198.832 163.848 197.706C164.702 196.85 167.309 187.271 168.542 182.499L160.537 193.362H160.427L71.586 191.162L71.6202 190.922L82.21 118.41L79.057 116.673C78.6815 116.818 77.1924 117.469 76.9236 118.68C76.8852 118.868 76.5652 120.174 76.0319 122.339C60.6079 185.225 58.6751 196.88 58.9695 198.006Z" fill="#263238"/>
<path d="M163.972 197.877C165.154 196.692 169.028 181.485 169.028 181.485L168.456 182.255L163.132 196.024L59.8784 197.359L58.8501 198.215C60.7189 198.382 162.795 199.059 163.972 197.877Z" fill="#263238"/>
<path d="M122.842 198.797C93.5765 198.797 59.4005 198.476 58.8416 198.425L58.3296 198.378L59.8144 197.137H59.8912L162.987 195.806L168.286 182.131L169.502 180.479L169.233 181.54C168.836 183.103 165.312 196.837 164.113 198.027C163.533 198.622 144.538 198.797 122.842 198.797ZM59.4389 198.014C67.5456 198.138 161.365 198.802 163.836 197.71C164.689 196.782 167.181 187.734 168.448 182.876L163.277 196.229H163.136L59.9765 197.565L59.4389 198.014Z" fill="#263238"/>
<path d="M81.4377 115.419L79.0783 116.433L62.7412 195.677L163.132 196.015L169.869 178.613L75.5412 183.175L84.3007 115.252L81.4377 115.419Z" fill="white"/>
<path d="M163.277 196.229H163.132L62.4768 195.891L78.8949 116.283L81.4251 115.209L84.544 115.025L84.5141 115.282L75.7845 182.949L170.189 178.386L163.277 196.229ZM63.0101 195.468L162.995 195.801L169.562 178.844L75.2981 183.402L75.3323 183.15L84.0533 115.479L81.4933 115.633L79.2704 116.587L63.0101 195.468Z" fill="#263238"/>
<path d="M69.4783 185.709L64.9001 193.349L62.7412 195.677L163.132 196.015L169.869 178.613L75.5412 183.175L69.4783 185.709Z" fill="#E0E0E0"/>
<path d="M163.277 196.229H163.132L62.2507 195.891L64.7297 193.216L69.3334 185.538L75.5329 182.97L170.189 178.395L163.277 196.229ZM63.2278 195.467L162.987 195.801L169.553 178.844L75.5883 183.389L69.615 185.88L65.0497 193.494L63.2278 195.467Z" fill="#263238"/>
<path d="M169.869 178.613V163.068L88.8491 172.022L82.7861 182.67L169.869 178.613Z" fill="#B8B8B8"/>
<path d="M82.4065 182.902L88.7169 171.825H88.8278L170.082 162.837V178.818H169.877L82.4065 182.902ZM88.9814 172.223L83.1617 182.435L169.656 178.408V163.308L88.9814 172.223Z" fill="#263238"/>
<path d="M85.1412 106.803L82.786 107.141L69.4783 185.709C69.4783 185.709 80.4265 184.853 95.2489 181.318C110.071 177.783 140.224 172.36 150.332 173.883C160.439 175.407 169.028 181.472 169.028 181.472C169.028 181.472 181.64 183.984 195.789 186.856C209.937 189.728 230.993 194.132 244.975 196.49C258.957 198.849 262.323 197.839 262.323 197.839L244.975 116.904L243.29 116.416L252.552 189.745C252.552 189.745 194.133 173.545 186.376 173.545C178.62 173.545 174.43 165.264 158.92 162.225C143.411 159.186 126.067 165.264 111.42 167.789C102.236 169.415 93.1748 171.675 84.3007 174.551L88.1748 106.794L85.1412 106.803Z" fill="#E0E0E0"/>
<path d="M259.456 198.288C256.939 198.288 252.48 197.988 244.949 196.713C233.173 194.74 216.414 191.316 202.948 188.547L195.746 187.079C181.76 184.241 169.114 181.72 168.986 181.695L168.905 181.66C168.819 181.6 160.235 175.591 150.298 174.093C140.032 172.548 108.911 178.266 95.3003 181.523C86.8124 183.596 78.1895 185.067 69.4955 185.923L69.2224 185.945L69.2693 185.675L82.6027 106.949L85.1627 106.589H88.4224L84.5525 174.256C93.345 171.432 102.317 169.205 111.407 167.588C115.102 166.95 118.912 166.098 122.948 165.195C134.95 162.507 147.358 159.734 158.985 162.015C167.377 163.663 172.493 166.852 176.606 169.411C180.117 171.602 182.891 173.331 186.398 173.331C193.877 173.331 247.249 188.046 252.322 189.45L243.034 116.112L245.167 116.75L245.193 116.874L262.571 198.001L262.383 198.057C262.319 198.078 261.568 198.288 259.456 198.288ZM169.114 181.284C169.941 181.451 182.255 183.903 195.831 186.659L203.034 188.127C216.495 190.879 233.25 194.299 245.009 196.289C256.986 198.318 261.175 197.847 262.076 197.689L244.791 117.088L243.541 116.711L252.804 190.032L252.497 189.946C251.913 189.784 194.01 173.755 186.364 173.755C182.733 173.755 179.913 171.996 176.346 169.77C172.267 167.228 167.185 164.061 158.852 162.43C147.332 160.166 134.959 162.931 123.012 165.606C118.972 166.509 115.157 167.365 111.45 168.007C102.277 169.636 93.2265 171.891 84.3605 174.757L84.0619 174.859L87.9488 107H85.1584L82.9696 107.312L69.7429 185.457C78.3214 184.585 86.8305 183.126 95.2107 181.091C109.291 177.723 139.913 172.103 150.37 173.652C160.064 175.129 168.478 180.843 169.114 181.284Z" fill="#263238"/>
<path d="M75.5412 183.175L69.4783 185.709L82.786 107.141L88.1748 106.803L75.5412 183.175Z" fill="white"/>
<path d="M69.2012 186.056L82.6028 106.936L88.431 106.572L75.7334 183.33L69.2012 186.056ZM82.9654 107.342L69.7388 185.363L75.3366 183.021L87.9062 107.034L82.9654 107.342Z" fill="#263238"/>
<path d="M167.846 96.3255C167.846 96.3255 169.365 93.6206 183.177 97.1815C196.988 100.742 211.452 109.662 223.245 111.348C235.038 113.035 242.773 114.704 242.773 114.704L258.778 196.148C258.778 196.148 232.678 192.6 208.085 186.026C183.492 179.452 173.069 175.052 169.869 178.613L167.846 96.3255Z" fill="white"/>
<path d="M259.051 196.418L258.756 196.375C258.496 196.341 232.354 192.75 208.03 186.231C202.176 184.665 197.184 183.235 192.785 181.981C179.2 178.099 172.373 176.152 170.027 178.759L169.668 179.152L167.633 96.2744L167.663 96.223C167.727 96.1032 169.417 93.4154 183.228 96.9635C189.534 98.5856 195.985 101.329 202.223 103.978C209.762 107.184 216.879 110.214 223.275 111.13C234.935 112.799 242.752 114.494 242.829 114.511L242.965 114.541L259.051 196.418ZM173.653 177.128C177.365 177.128 183.411 178.84 192.917 181.571C197.316 182.825 202.304 184.25 208.158 185.821C231.04 191.954 255.573 195.493 258.517 195.909L242.603 114.901C241.51 114.67 234.018 113.103 223.215 111.554C216.764 110.63 209.621 107.591 202.057 104.376C195.836 101.727 189.397 98.9922 183.121 97.3786C170.748 94.1943 168.35 96.0946 168.064 96.3985L170.069 178.147C170.893 177.44 172.053 177.128 173.653 177.128Z" fill="#263238"/>
<path d="M238.438 124.976C211.251 118.984 209.617 118.804 209.557 118.8V118.372C209.592 118.372 210.748 118.44 238.515 124.561L238.438 124.976Z" fill="#263238"/>
<path d="M239.036 128.49C235.571 127.724 232.38 127.013 229.517 126.371C225.894 125.562 222.767 124.865 220.275 124.33C210.863 122.305 209.877 122.22 209.839 122.215L209.86 121.787C209.894 121.787 210.778 121.852 220.365 123.927C222.856 124.462 225.984 125.164 229.606 125.973L239.13 128.088L239.036 128.49Z" fill="#263238"/>
<path d="M239.633 132.008C236.023 131.212 232.461 130.399 229.312 129.68C225.954 128.914 223.057 128.255 220.676 127.741C211.435 125.755 210.167 125.644 210.116 125.639L210.146 125.211C210.193 125.211 211.426 125.314 220.766 127.321C223.147 127.835 226.048 128.498 229.41 129.265C232.555 129.979 236.117 130.793 239.727 131.589L239.633 132.008Z" fill="#263238"/>
<path d="M240.213 135.526C236.8 134.777 233.323 133.964 229.948 133.176C226.645 132.41 223.522 131.683 221.065 131.152C212.032 129.209 210.398 129.068 210.398 129.063L210.428 128.635C210.492 128.635 212.07 128.772 221.176 130.732C223.637 131.263 226.761 131.986 230.067 132.757C233.442 133.54 236.932 134.353 240.307 135.102L240.213 135.526Z" fill="#263238"/>
<path d="M240.832 139.044C237.726 138.359 234.227 137.529 230.848 136.729C227.371 135.907 224.085 135.124 221.483 134.589C212.676 132.693 210.692 132.513 210.671 132.513L210.705 132.085C210.782 132.085 212.71 132.26 221.572 134.169C224.179 134.73 227.464 135.509 230.959 136.335C234.338 137.135 237.832 137.961 240.934 138.646L240.832 139.044Z" fill="#263238"/>
<path d="M241.429 142.562C238.639 141.946 235.187 141.116 231.846 140.311C228.314 139.455 224.657 138.573 221.888 137.979C213.308 136.13 210.974 135.916 210.948 135.916L210.987 135.488C211.081 135.488 213.355 135.702 221.978 137.559C224.751 138.158 228.407 139.04 231.949 139.892C235.285 140.696 238.733 141.531 241.519 142.143L241.429 142.562Z" fill="#263238"/>
<path d="M242.027 146.081C239.556 145.537 236.327 144.745 232.905 143.906C229.141 142.982 225.225 142.027 222.289 141.39C213.948 139.592 211.256 139.344 211.23 139.34L211.264 138.912C211.29 138.912 213.999 139.16 222.379 140.966C225.34 141.608 229.24 142.562 233.007 143.487C236.42 144.322 239.65 145.113 242.116 145.657L242.027 146.081Z" fill="#263238"/>
<path d="M242.624 149.599C240.491 149.124 237.338 148.345 234.023 147.519C230.008 146.517 225.856 145.486 222.695 144.801C214.588 143.055 211.537 142.768 211.507 142.768L211.546 142.34C211.576 142.34 214.643 142.631 222.784 144.381C225.95 145.066 230.106 146.093 234.125 147.103C237.44 147.93 240.568 148.708 242.714 149.179L242.624 149.599Z" fill="#263238"/>
<path d="M243.221 153.117C241.378 152.71 238.379 151.953 235.208 151.152C231.121 150.117 226.487 148.944 223.095 148.212C215.228 146.5 211.819 146.196 211.784 146.192L211.823 145.764C211.857 145.764 215.287 146.093 223.185 147.797C226.598 148.529 231.219 149.702 235.311 150.737C238.481 151.538 241.476 152.295 243.315 152.702L243.221 153.117Z" fill="#263238"/>
<path d="M243.819 156.648C242.274 156.31 239.552 155.616 236.437 154.812C232.077 153.69 227.136 152.424 223.501 151.636C215.872 149.992 212.1 149.633 212.066 149.629L212.105 149.201C212.143 149.201 215.945 149.564 223.59 151.217C227.234 152.004 232.179 153.271 236.544 154.392C239.671 155.193 242.372 155.89 243.913 156.228L243.819 156.648Z" fill="#263238"/>
<path d="M244.416 160.157C243.162 159.879 240.649 159.224 237.739 158.467C233.314 157.316 227.81 155.899 223.902 155.043C216.516 153.446 212.382 153.048 212.344 153.048L212.382 152.62C216.287 153.081 220.165 153.748 224 154.619C227.917 155.475 233.425 156.9 237.854 158.043C240.759 158.801 243.268 159.456 244.518 159.729L244.416 160.157Z" fill="#263238"/>
<path d="M245.018 163.676C244.032 163.458 241.852 162.88 239.091 162.152C234.628 160.975 228.514 159.362 224.307 158.45C220.449 157.583 216.548 156.921 212.621 156.468L212.664 156.04C216.607 156.497 220.523 157.161 224.397 158.03C228.612 158.942 234.731 160.56 239.202 161.741C241.954 162.465 244.13 163.025 245.107 163.256L245.018 163.676Z" fill="#263238"/>
<path d="M245.615 167.194C244.885 167.031 242.965 166.518 240.538 165.867C235.776 164.583 229.256 162.845 224.708 161.861C220.81 160.997 216.869 160.34 212.902 159.892L212.941 159.464C216.925 159.912 220.883 160.57 224.798 161.437C229.355 162.426 235.891 164.172 240.649 165.452C243.072 166.098 244.983 166.612 245.705 166.77L245.615 167.194Z" fill="#263238"/>
<path d="M246.212 170.712C245.717 170.601 244.194 170.19 242.086 169.616C237.589 168.392 230.054 166.346 225.114 165.272C221.168 164.414 217.18 163.761 213.167 163.316L213.21 162.888C217.235 163.331 221.234 163.987 225.19 164.853C230.144 165.923 237.683 167.973 242.185 169.197C244.288 169.77 245.807 170.181 246.289 170.288L246.212 170.712Z" fill="#263238"/>
<path d="M246.81 174.23C246.524 174.166 245.423 173.862 243.759 173.404C239.279 172.163 230.959 169.86 225.515 168.696C221.532 167.84 217.507 167.193 213.457 166.757L213.5 166.329C217.566 166.768 221.606 167.42 225.604 168.281C231.04 169.458 239.386 171.765 243.87 172.989C245.47 173.417 246.626 173.751 246.899 173.811L246.81 174.23Z" fill="#263238"/>
<path d="M247.407 177.748C247.296 177.723 246.711 177.56 245.658 177.265C241.57 176.113 232.004 173.413 225.92 172.099C221.902 171.246 217.844 170.602 213.76 170.168L213.798 169.74C217.906 170.178 221.989 170.826 226.031 171.679C232.128 173.002 241.707 175.698 245.794 176.85C246.737 177.115 247.42 177.308 247.522 177.329L247.407 177.748Z" fill="#263238"/>
<path d="M247.991 181.262C247.855 181.224 234.091 177.196 226.321 175.51C220.373 174.226 214.08 173.601 214.016 173.593L214.059 173.165C218.205 173.597 222.328 174.238 226.411 175.086C234.193 176.798 247.974 180.809 248.111 180.847L247.991 181.262Z" fill="#263238"/>
<path d="M205.227 117.597C199.932 115.153 196.207 113.022 193.216 111.31C190.106 109.525 187.644 108.121 184.93 107.24C181.085 106.077 177.114 105.384 173.103 105.177V104.749C177.155 104.956 181.166 105.656 185.05 106.833C187.81 107.728 190.285 109.144 193.421 110.938C196.408 112.65 200.12 114.79 205.397 117.208L205.227 117.597Z" fill="#263238"/>
<path d="M205.513 121.073C200.764 118.881 197.265 116.904 194.453 115.316C191.172 113.463 188.578 111.999 185.536 111.01C179.64 109.089 173.658 108.772 173.197 108.845L173.086 108.417C173.368 108.331 179.486 108.579 185.668 110.591C188.753 111.592 191.36 113.065 194.662 114.931C197.611 116.596 200.956 118.487 205.692 120.675L205.513 121.073Z" fill="#263238"/>
<path d="M205.781 124.548C201.549 122.592 198.421 120.85 195.661 119.309C192.226 117.392 189.512 115.885 186.129 114.772C179.507 112.607 173.598 112.401 173.235 112.508L173.107 112.08C173.619 111.918 179.738 112.213 186.261 114.349C189.675 115.47 192.414 116.99 195.87 118.92C198.622 120.452 201.741 122.194 205.96 124.141L205.781 124.548Z" fill="#263238"/>
<path d="M206.054 128.027C202.308 126.315 199.415 124.706 196.864 123.319C193.451 121.428 190.464 119.797 186.722 118.564C179.742 116.27 173.884 115.996 173.256 116.198L173.128 115.791C173.982 115.517 180.019 115.911 186.854 118.158C190.639 119.399 193.617 121.043 197.069 122.943C199.629 124.347 202.5 125.939 206.229 127.651L206.054 128.027Z" fill="#263238"/>
<path d="M206.323 131.507C203.042 129.992 200.393 128.55 198.054 127.279C194.505 125.344 191.441 123.679 187.311 122.314C179.836 119.849 174.084 119.596 173.278 119.853L173.15 119.446C174.187 119.112 180.305 119.553 187.447 121.907C191.612 123.281 194.701 124.959 198.259 126.902C200.589 128.186 203.234 129.607 206.498 131.118L206.323 131.507Z" fill="#263238"/>
<path d="M206.592 134.983C203.75 133.673 201.451 132.436 199.232 131.238C195.584 129.277 192.431 127.583 187.904 126.102C179.998 123.482 174.332 123.213 173.299 123.534L173.171 123.127C174.472 122.699 180.557 123.208 188.036 125.695C192.602 127.206 195.921 128.991 199.432 130.878C201.647 132.072 203.942 133.305 206.771 134.61L206.592 134.983Z" fill="#263238"/>
<path d="M206.861 138.458C204.433 137.341 202.377 136.245 200.393 135.188C196.821 133.292 193.451 131.499 188.497 129.851C180.361 127.15 174.596 126.786 173.321 127.197L173.193 126.769C174.72 126.281 180.685 126.769 188.629 129.427C193.617 131.088 197.005 132.885 200.576 134.794C202.56 135.847 204.612 136.934 207.027 138.051L206.861 138.458Z" fill="#263238"/>
<path d="M207.13 141.938C205.09 140.996 203.29 140.041 201.527 139.121C197.909 137.217 194.487 135.419 189.086 133.621C180.403 130.724 174.822 130.394 173.342 130.865L173.214 130.459C175.13 129.847 181.393 130.604 189.222 133.215C194.658 135.025 198.251 136.917 201.728 138.745C203.473 139.661 205.278 140.611 207.309 141.548L207.13 141.938Z" fill="#263238"/>
<path d="M207.398 145.413C205.717 144.638 204.224 143.859 202.641 143.038C198.493 140.779 194.156 138.888 189.679 137.388C181.205 134.555 175.279 133.926 173.363 134.538L173.235 134.131C175.283 133.476 181.201 134.105 189.815 136.981C194.312 138.49 198.669 140.389 202.837 142.657C204.416 143.478 205.905 144.253 207.578 145.024L207.398 145.413Z" fill="#263238"/>
<path d="M207.667 148.888C206.319 148.268 205.06 147.604 203.725 146.932C199.419 144.63 194.925 142.698 190.293 141.159C180.885 138.004 175.317 137.602 173.406 138.21L173.278 137.803C175.343 137.144 180.932 137.572 190.43 140.752C195.09 142.298 199.61 144.238 203.942 146.551C205.269 147.236 206.528 147.883 207.868 148.503L207.667 148.888Z" fill="#263238"/>
<path d="M207.936 152.368C206.891 151.884 205.862 151.358 204.77 150.806C200.303 148.467 195.653 146.5 190.865 144.925C178.991 140.94 174.699 141.467 173.406 141.882L173.278 141.454C176.094 140.559 182.554 141.668 190.997 144.501C195.807 146.08 200.478 148.056 204.962 150.408C206.05 150.96 207.074 151.482 208.115 151.961L207.936 152.368Z" fill="#263238"/>
<path d="M208.213 155.843C207.437 155.484 206.63 155.077 205.777 154.649C201.171 152.284 196.384 150.292 191.462 148.691C180.249 144.921 175.471 144.903 173.436 145.554L173.308 145.126C176.294 144.167 182.639 145.254 191.599 148.272C196.54 149.884 201.345 151.887 205.969 154.264C206.822 154.692 207.624 155.094 208.392 155.449L208.213 155.843Z" fill="#263238"/>
<path d="M208.474 159.323C207.936 159.071 207.369 158.788 206.712 158.467C204.1 157.183 200.154 155.201 192.047 152.475C182.771 149.346 176.516 148.259 173.449 149.235L173.321 148.828C176.516 147.81 182.686 148.867 192.183 152.068C200.316 154.812 204.28 156.776 206.899 158.09C207.556 158.416 208.119 158.698 208.653 158.946L208.474 159.323Z" fill="#263238"/>
<path d="M208.742 162.798C208.405 162.64 208.026 162.456 207.582 162.238C205.274 161.099 201.408 159.195 192.648 156.246C182.835 152.933 176.738 151.871 173.478 152.911L173.35 152.483C176.7 151.413 182.874 152.484 192.785 155.822C201.579 158.792 205.461 160.705 207.778 161.848C208.205 162.066 208.597 162.25 208.93 162.405L208.742 162.798Z" fill="#263238"/>
<path d="M209.011 166.274L208.363 165.961C206.656 165.14 202.726 163.209 193.233 159.999C182.857 156.49 176.952 155.462 173.496 156.575L173.363 156.169C176.917 155.034 182.899 156.062 193.37 159.593C202.889 162.815 206.857 164.75 208.55 165.585C208.806 165.713 209.016 165.816 209.19 165.893L209.011 166.274Z" fill="#263238"/>
<path d="M209.28 169.753L209.033 169.634C205.781 168.059 200.666 166.085 193.822 163.766C183.014 160.106 177.131 159.083 173.517 160.239L173.385 159.811C177.148 158.613 182.916 159.601 193.958 163.346C200.819 165.67 205.952 167.648 209.216 169.231L209.459 169.347L209.28 169.753Z" fill="#263238"/>
<path d="M209.544 173.224C209.51 173.224 205.969 171.457 194.415 167.536C183.023 163.684 177.348 162.687 173.538 163.907L173.406 163.5C177.331 162.246 183.061 163.231 194.551 167.13C206.144 171.063 209.702 172.826 209.736 172.843L209.544 173.224Z" fill="#263238"/>
<path d="M167.846 96.3256L169.869 178.613C169.869 178.613 163.806 166.111 147.635 166.629C131.464 167.147 95.7567 179.64 90.0351 180.821C84.3135 182.003 75.5413 183.184 75.5413 183.184L85.1413 104.616C85.1413 104.616 127.573 96.8349 136.533 94.1299C145.493 91.425 153.212 88.5659 158.938 89.9056C164.663 91.2452 167.846 92.2724 167.846 96.3256Z" fill="white"/>
<path d="M75.2981 183.424L75.3322 183.15L84.9493 104.432L85.1029 104.402C85.5296 104.325 127.642 96.6038 136.457 93.9331C137.611 93.5822 138.749 93.2326 139.87 92.8845C147.418 90.5391 153.95 88.5146 158.976 89.7045C164.612 91.0356 168.068 92.067 168.068 96.3299L170.116 179.597L169.69 178.716C169.63 178.592 163.49 166.338 147.652 166.839C135.774 167.211 113.361 174.063 99.968 178.155C95.1125 179.64 91.601 180.723 90.0821 181.027C84.416 182.2 75.6693 183.385 75.5754 183.398L75.2981 183.424ZM85.3333 104.787L75.7888 182.927C77.3162 182.713 84.8981 181.643 89.984 180.599C91.4858 180.291 95.168 179.165 99.8314 177.74C113.246 173.64 135.671 166.779 147.618 166.402C161.412 165.974 167.979 175.052 169.626 177.765L167.625 96.3256C167.625 92.3752 164.459 91.4336 158.865 90.1154C153.933 88.9512 147.469 90.9714 139.981 93.2868C138.863 93.6292 137.728 93.9845 136.567 94.3354C128 96.9291 88.1578 104.269 85.3333 104.787Z" fill="#263238"/>
<path d="M126.559 106.976L94.9692 114.09L95.0631 114.509L126.653 107.396L126.559 106.976Z" fill="#263238"/>
<path d="M94.0843 117.807L93.9905 117.379C100.898 115.817 114.044 112.833 114.415 112.718C114.842 112.581 125.278 110.253 125.722 110.15L125.811 110.578C122.061 111.434 114.876 113.03 114.543 113.146C114.074 113.287 94.8993 117.623 94.0843 117.807Z" fill="#263238"/>
<path d="M93.7386 121.325L93.6448 120.897C93.841 120.85 113.327 116.395 114.236 116.108C115.145 115.821 125.21 113.583 125.641 113.484L125.734 113.912C125.628 113.912 115.204 116.258 114.364 116.523C113.438 116.844 94.545 121.124 93.7386 121.325Z" fill="#263238"/>
<path d="M93.3972 124.843L93.2991 124.415C93.4911 124.373 112.687 119.93 114.061 119.498C115.341 119.095 125.154 116.908 125.559 116.818L125.653 117.246C125.551 117.272 115.447 119.519 114.189 119.917C112.802 120.354 94.1865 124.664 93.3972 124.843Z" fill="#263238"/>
<path d="M93.0517 128.366L92.9536 127.938C93.1456 127.895 112.051 123.465 113.882 122.887C115.588 122.352 125.077 120.242 125.483 120.152L125.572 120.58C125.474 120.58 115.691 122.776 114.01 123.307C112.162 123.889 93.8283 128.182 93.0517 128.366Z" fill="#263238"/>
<path d="M92.706 131.88L92.6079 131.452C92.7956 131.409 111.415 126.996 113.707 126.273C115.84 125.605 125.013 123.568 125.402 123.482L125.495 123.91C125.397 123.932 115.938 126.05 113.835 126.692C111.526 127.42 93.474 131.7 92.706 131.88Z" fill="#263238"/>
<path d="M92.3606 135.402L92.2625 134.974C92.4459 134.931 110.776 130.536 113.528 129.667C116.088 128.862 125.231 126.838 125.321 126.816L125.414 127.244C125.321 127.266 116.181 129.286 113.656 130.082C110.891 130.968 92.544 135.355 92.3606 135.402Z" fill="#263238"/>
<path d="M92.0149 138.92L91.9167 138.492C92.0959 138.449 110.14 134.067 113.348 133.057C116.335 132.119 125.154 130.168 125.244 130.15L125.333 130.578C125.244 130.6 116.429 132.547 113.476 133.476C110.255 134.49 92.1984 138.873 92.0149 138.92Z" fill="#263238"/>
<path d="M91.6694 142.438L91.5713 142.01C91.7462 141.963 109.491 137.598 113.173 136.446C116.561 135.376 125.077 133.502 125.163 133.48L125.257 133.908C125.167 133.908 116.672 135.8 113.31 136.861C109.615 138.021 91.8486 142.395 91.6694 142.438Z" fill="#263238"/>
<path d="M91.3281 145.948L91.2214 145.52C91.4006 145.477 108.864 141.124 112.981 139.819C116.796 138.616 124.988 136.823 125.069 136.802L125.163 137.23C125.082 137.23 116.907 139.04 113.109 140.226C108.979 141.557 91.503 145.914 91.3281 145.948Z" fill="#263238"/>
<path d="M90.9824 149.475L90.8757 149.047C91.0507 149.004 108.224 144.664 112.819 143.217C117.052 141.882 124.924 140.157 125.005 140.14L125.094 140.568C125.018 140.568 117.163 142.306 112.943 143.632C108.343 145.092 91.1531 149.432 90.9824 149.475Z" fill="#263238"/>
<path d="M90.6367 152.993L90.53 152.565C90.7007 152.522 107.597 148.199 112.64 146.607C117.299 145.139 124.847 143.491 124.924 143.474L125.013 143.902C124.941 143.902 117.406 145.558 112.768 147.022C107.703 148.623 90.8074 152.95 90.6367 152.993Z" fill="#263238"/>
<path d="M90.2912 156.511L90.1846 156.083C90.351 156.04 106.953 151.735 112.461 149.997C117.542 148.392 124.774 146.821 124.834 146.804L124.924 147.232C124.851 147.232 117.641 148.816 112.576 150.412C107.068 152.158 90.4534 156.468 90.2912 156.511Z" fill="#263238"/>
<path d="M89.9455 160.029L89.8389 159.601C90.001 159.558 106.312 155.266 112.286 153.387C117.79 151.649 124.698 150.151 124.766 150.138L124.855 150.566C124.787 150.566 117.896 152.073 112.414 153.802C106.432 155.689 90.1119 159.986 89.9455 160.029Z" fill="#263238"/>
<path d="M89.5999 163.547L89.489 163.119C89.6511 163.072 105.672 158.796 112.102 156.768C118.029 154.902 124.616 153.481 124.68 153.464L124.77 153.892C124.706 153.892 118.14 155.321 112.23 157.187C105.813 159.216 89.7621 163.496 89.5999 163.547Z" fill="#263238"/>
<path d="M89.2586 167.066L89.1477 166.638C89.3056 166.595 105.037 162.332 111.927 160.158C118.28 158.155 124.544 156.811 124.608 156.798L124.693 157.226C124.634 157.226 118.387 158.578 112.055 160.573C105.156 162.76 89.4165 167.023 89.2586 167.066Z" fill="#263238"/>
<path d="M88.9132 170.584L88.8022 170.156C88.9558 170.113 104.401 165.876 111.753 163.547C118.524 161.407 124.467 160.123 124.527 160.123L124.617 160.551C124.557 160.551 118.643 161.835 111.881 163.975C104.533 166.291 89.0668 170.541 88.9132 170.584Z" fill="#263238"/>
<path d="M130.376 105.968L130.244 105.54C131.447 105.155 159.761 96.1672 164.057 100.905L163.742 101.196C159.629 96.6766 130.667 105.874 130.376 105.968Z" fill="#263238"/>
<path d="M130.283 109.38L130.15 108.973C130.253 108.939 140.224 105.729 149.094 104.055C152.858 103.353 161.852 101.984 164.07 104.432L163.755 104.723C162.317 103.131 156.864 103.041 149.171 104.475C140.331 106.144 130.381 109.345 130.283 109.38Z" fill="#263238"/>
<path d="M130.189 112.791L130.061 112.384C130.159 112.35 140.301 109.05 149.06 107.424C156.651 106.046 162.551 106.247 164.083 107.937L163.767 108.228C162.355 106.666 156.471 106.516 149.137 107.847C140.416 109.465 130.291 112.757 130.189 112.791Z" fill="#263238"/>
<path d="M130.099 116.202L129.963 115.795C130.069 115.761 140.39 112.35 149.022 110.796C156.237 109.512 162.577 109.769 164.096 111.443L163.78 111.734C162.376 110.184 156.066 109.962 149.099 111.216C140.497 112.765 130.202 116.168 130.099 116.202Z" fill="#263238"/>
<path d="M130.005 119.613L129.873 119.185C129.975 119.151 140.476 115.645 148.988 114.143C155.955 112.915 162.598 113.257 164.109 114.926L163.793 115.217C162.573 113.869 156.595 113.236 149.06 114.563C140.582 116.082 130.133 119.579 130.005 119.613Z" fill="#263238"/>
<path d="M129.916 123.029L129.779 122.622C129.886 122.584 140.561 118.984 148.954 117.533C156.369 116.249 162.782 116.977 164.126 118.453L163.806 118.744C162.739 117.563 156.86 116.604 149.026 117.957C140.668 119.412 130.022 122.99 129.916 123.029Z" fill="#263238"/>
<path d="M129.822 126.44L129.685 126.033C129.792 125.995 140.646 122.301 148.919 120.897C156.881 119.557 162.987 120.696 164.139 121.98L163.823 122.271C162.854 121.201 157.069 119.981 148.988 121.347C140.753 122.716 129.928 126.401 129.822 126.44Z" fill="#263238"/>
<path d="M129.728 129.851L129.592 129.444C129.702 129.406 140.736 125.622 148.881 124.274C157.026 122.926 163.128 124.338 164.152 125.464L163.836 125.755C162.893 124.715 156.787 123.401 148.954 124.694C140.838 126.038 129.839 129.812 129.728 129.851Z" fill="#263238"/>
<path d="M129.638 133.262L129.498 132.86C129.608 132.817 140.821 128.943 148.847 127.642C156.808 126.358 163.14 127.844 164.164 128.969L163.84 129.256C162.987 128.314 156.877 126.769 148.907 128.062C140.936 129.354 129.749 133.223 129.638 133.262Z" fill="#263238"/>
<path d="M129.545 136.673L129.404 136.271C129.519 136.228 140.924 132.265 148.813 131.011C156.92 129.727 163.251 131.439 164.173 132.474L163.857 132.766C163.174 132.012 157.167 130.12 148.873 131.434C141.013 132.68 129.66 136.635 129.545 136.673Z" fill="#263238"/>
<path d="M129.451 140.084L129.31 139.682C129.425 139.639 140.992 135.586 148.779 134.383C157.205 133.078 163.452 135.167 164.19 135.98L163.874 136.271C163.362 135.706 157.585 133.45 148.843 134.803C141.099 136.005 129.566 140.046 129.451 140.084Z" fill="#263238"/>
<path d="M129.357 143.5L129.216 143.093C129.336 143.05 141.082 138.912 148.74 137.752C157.628 136.404 163.652 138.877 164.203 139.464L163.887 139.755C163.43 139.246 157.487 136.84 148.804 138.154C141.184 139.327 129.476 143.457 129.357 143.5Z" fill="#263238"/>
<path d="M129.28 146.911L129.135 146.504C129.254 146.466 141.18 142.224 148.719 141.12C157.542 139.836 163.738 142.447 164.228 142.99L163.913 143.282C163.644 142.982 157.871 140.2 148.783 141.544C141.269 142.652 129.387 146.868 129.28 146.911Z" fill="#263238"/>
<path d="M129.173 150.322L129.028 149.92C129.152 149.873 141.252 145.563 148.655 144.488C157.453 143.204 163.708 145.939 164.211 146.496L163.895 146.787C163.55 146.44 157.649 143.624 148.715 144.912C141.359 145.978 129.28 150.279 129.173 150.322Z" fill="#263238"/>
<path d="M129.08 153.733L128.939 153.331C129.058 153.288 141.342 148.901 148.634 147.861C157.858 146.577 163.951 149.68 164.241 150.001L163.93 150.292C163.448 149.864 157.466 147.065 148.693 148.285C141.444 149.321 129.203 153.691 129.08 153.733Z" fill="#263238"/>
<path d="M128.99 157.144L128.845 156.742C128.968 156.699 141.427 152.222 148.599 151.23C157.798 149.975 163.959 153.177 164.258 153.506L163.942 153.798C163.912 153.798 158.063 150.374 148.659 151.658C141.53 152.638 129.114 157.102 128.99 157.144Z" fill="#263238"/>
<path d="M128.896 160.556L128.751 160.153C128.879 160.106 141.517 155.544 148.565 154.589C158.093 153.305 164.164 156.93 164.224 156.965L164.002 157.333C163.942 157.294 157.995 153.763 148.621 155.017C141.619 155.959 129.02 160.5 128.896 160.556Z" fill="#263238"/>
<path d="M202.581 186.578C202.581 186.578 201.259 186.248 199.202 185.816L199.292 185.388C201.357 185.816 202.675 186.15 202.705 186.154L202.581 186.578Z" fill="#263238"/>
<path d="M197.67 185.504C195.87 185.149 194.372 183.856 192.789 182.508C190.793 180.796 188.728 178.994 185.826 178.908C180.129 178.802 174.46 179.749 169.105 181.703L168.939 181.767L168.845 181.613C168.191 180.614 167.472 179.66 166.69 178.759L167.01 178.48C167.769 179.355 168.471 180.277 169.114 181.241C174.478 179.319 180.144 178.384 185.839 178.48C188.89 178.57 191.014 180.406 193.071 182.183C194.607 183.509 196.058 184.751 197.764 185.102L197.67 185.504Z" fill="#263238"/>
<path d="M165.576 177.517C164.52 176.41 163.378 175.387 162.163 174.457L162.419 174.119C163.651 175.06 164.807 176.097 165.875 177.222L165.576 177.517Z" fill="#263238"/>
<path d="M162.172 174.457C160.454 173.132 158.556 172.061 156.535 171.277C147.763 167.939 138.001 170.447 136.909 170.742L136.798 170.314C137.894 170.014 147.78 167.476 156.681 170.866C158.738 171.665 160.671 172.756 162.419 174.106L162.172 174.457Z" fill="#263238"/>
<path d="M112.06 176.837L111.966 176.409C112.205 176.353 135.953 171.033 146.099 171.273C150.055 171.33 153.975 172.028 157.709 173.34L157.564 173.742C153.869 172.444 149.988 171.757 146.074 171.709C135.983 171.474 112.299 176.785 112.06 176.837Z" fill="#263238"/>
<path d="M161.408 175.587C160.783 175.178 160.125 174.821 159.441 174.521L159.616 174.132C160.321 174.447 161.001 174.814 161.651 175.232L161.408 175.587Z" fill="#263238"/>
<path d="M160.003 182.147L95.5305 185.242L95.5509 185.669L160.023 182.574L160.003 182.147Z" fill="#263238"/>
<path d="M166.069 181.846L162.548 182.015L162.569 182.443L166.089 182.274L166.069 181.846Z" fill="#263238"/>
<path d="M115.657 188.191L111.9 188.286L111.91 188.714L115.668 188.619L115.657 188.191Z" fill="#263238"/>
<path d="M109.745 188.345L79.9392 189.102L79.95 189.53L109.756 188.773L109.745 188.345Z" fill="#263238"/>
<path d="M156.754 190.606L153.443 190.706L153.456 191.134L156.767 191.034L156.754 190.606Z" fill="#263238"/>
<path d="M150.78 190.781L108.796 192.044L108.809 192.472L150.793 191.209L150.78 190.781Z" fill="#263238"/>
<path d="M139.393 186.967L130.6 187.269L130.615 187.697L139.407 187.395L139.393 186.967Z" fill="#263238"/>
<path d="M163.61 186.137L141.803 186.886L141.817 187.313L163.624 186.565L163.61 186.137Z" fill="#263238"/>
<path d="M101.667 191.805L98.626 191.889L98.6377 192.317L101.679 192.233L101.667 191.805Z" fill="#263238"/>
<path d="M96.7283 191.941L68.4338 192.719L68.4455 193.147L96.74 192.369L96.7283 191.941Z" fill="#263238"/>
<path d="M119.091 98.5643C119.091 98.5643 125.363 90.2911 129.331 86.8457C133.299 83.4003 140.07 77.969 142.822 77.969C145.574 77.969 146.257 79.681 146.432 80.293C146.607 80.9051 148.907 89.602 148.907 90.0343C148.907 90.4666 146.504 91.1557 146.347 90.6378C146.189 90.1199 145.143 82.707 144.717 81.3288C144.29 79.9506 144.371 79.1888 141.107 80.5541C137.843 81.9194 128.222 92.2728 126.242 94.6781C124.262 97.0835 122.376 99.5915 122.376 99.5915C122.376 99.5915 120.038 98.5643 119.091 98.5643Z" fill="#263238"/>
<path d="M122.423 99.8654L122.27 99.7969C122.249 99.7969 119.979 98.7782 119.091 98.7782H118.665L118.925 98.4358C118.989 98.3545 125.257 90.107 129.165 86.683C132.241 83.9994 139.729 77.7549 142.793 77.7549C145.596 77.7549 146.394 79.4883 146.607 80.2373C146.726 80.6653 149.103 89.542 149.103 90.0342C149.103 90.5264 147.665 90.9287 147.281 90.9929C146.603 91.0999 146.21 90.9929 146.112 90.7062C146.044 90.4922 145.877 89.4521 145.587 87.6288C145.229 85.3433 144.734 82.2104 144.478 81.3929L144.384 81.0762C144.243 80.5882 144.137 80.2202 143.868 80.1089C143.484 79.9248 142.643 80.1089 141.154 80.7509C137.988 82.0862 128.474 92.2598 126.374 94.8235C124.425 97.2075 122.534 99.7027 122.513 99.7284L122.423 99.8654ZM119.492 98.393C120.452 98.6168 121.388 98.9335 122.287 99.3389C122.714 98.7868 124.361 96.6254 126.059 94.5539C127.94 92.2512 137.617 81.7866 140.992 80.3571C142.665 79.6509 143.526 79.4712 144.051 79.7237C144.478 79.9334 144.631 80.4085 144.794 80.9563C144.823 81.0548 144.853 81.1575 144.887 81.2645C145.152 82.1205 145.626 85.1165 146.01 87.5604C146.24 89.0113 146.436 90.3809 146.517 90.5564C146.741 90.6184 146.977 90.6184 147.2 90.5564C147.735 90.4969 148.246 90.301 148.685 89.9871C148.655 89.5591 146.419 81.119 146.193 80.3357C145.967 79.5525 145.216 78.1658 142.78 78.1658C139.793 78.1658 131.802 84.9196 129.429 86.9911C125.99 90.0256 120.666 96.8694 119.492 98.393Z" fill="#263238"/>
<path d="M225.254 107C225.054 106.709 224.785 106.371 224.597 106.324C224.294 106.247 222.28 109.679 221.785 110.527C222.057 110.183 222.366 109.872 222.707 109.598C222.707 109.855 221.675 114.939 220.732 117.353C219.789 119.767 220.04 120.889 220.988 120.803C221.935 120.717 223.219 116.407 223.974 113.994C224.647 111.714 225.076 109.37 225.254 107Z" fill="white"/>
<path d="M220.889 121.021C220.75 121.028 220.611 121.001 220.484 120.941C220.358 120.881 220.248 120.791 220.164 120.679C219.737 120.123 219.878 118.967 220.531 117.276C221.29 115.338 222.11 111.64 222.391 110.185L221.943 110.672L220.586 112.136L221.593 110.403C224.153 105.977 224.452 106.05 224.64 106.097C224.828 106.144 224.998 106.247 225.421 106.859L225.463 106.923V107C225.29 109.388 224.861 111.75 224.183 114.045L223.991 114.657C222.865 118.201 221.93 120.914 221.005 121L220.889 121.021ZM222.72 109.371L222.784 109.393L222.92 109.444V109.598C222.92 109.898 221.875 115.008 220.928 117.431C220.104 119.536 220.356 120.221 220.501 120.427C220.556 120.493 220.627 120.544 220.709 120.574C220.79 120.603 220.877 120.61 220.962 120.593C221.692 120.525 222.976 116.485 223.59 114.546L223.786 113.93C224.441 111.697 224.859 109.402 225.032 107.082C224.918 106.892 224.774 106.723 224.606 106.581C223.902 107.457 223.271 108.391 222.72 109.371Z" fill="#263238"/>
<path d="M225.199 105.203C224.853 103.649 222.639 105.631 221.675 107.013C220.71 108.395 216.435 113.044 214.029 115.372C211.622 117.7 202.603 125.456 201.655 126.145C200.708 126.834 199.595 128.041 198.908 128.126C198.221 128.212 196.416 128.126 195.558 127.608C194.701 127.09 194.278 126.145 190.144 123.906C186.009 121.668 168.149 116.493 166.861 116.416C165.572 116.339 164.54 117.623 162.735 118.398C160.93 119.172 157.926 119.344 156.638 118.222C155.349 117.101 153.8 114.259 152.943 112.192C152.085 110.125 150.707 109.624 149.504 108.918C148.301 108.211 133.871 101.864 131.204 100.978C128.537 100.092 125.879 99.5144 124.676 99.4288C123.898 99.3839 123.118 99.4415 122.355 99.6C122.355 99.6 122.184 99.8568 121.502 99.3432C120.819 98.8296 118.579 97.8752 117.892 99.2534C117.205 100.632 116.185 103.824 116.774 105.031L117.376 106.238C117.376 106.238 116.774 113.994 117.035 116.664C117.295 119.335 119.356 122.785 121.071 124.852C122.786 126.919 129.664 130.797 134.724 132.004C139.784 133.211 142.886 132.522 144.26 131.576C145.634 130.63 149.845 125.888 150.878 124.766C151.91 123.645 151.821 122.956 155.17 123.992C158.519 125.028 159.727 127.437 160.328 129.248C160.93 131.058 163.161 138.296 164.966 140.624C167.225 143.683 170.248 146.091 173.73 147.605C178.112 149.501 181.03 150.964 185.156 150.451C189.282 149.937 191.513 148.037 192.802 145.794C194.091 143.551 194.935 139.074 195.362 137.692C195.716 136.775 196.347 135.992 197.167 135.454C197.167 135.454 198.873 134.679 199.403 133.472C199.932 132.265 203.955 128.559 203.955 128.559C203.955 128.559 210.483 123.388 212.975 120.542C215.467 117.696 222.72 109.337 222.72 109.598C222.72 109.859 221.687 114.94 220.744 117.353C219.801 119.767 220.053 120.889 221 120.803C221.948 120.718 223.232 116.408 223.987 113.994C224.742 111.58 225.54 106.752 225.199 105.203ZM152.171 119.412C152.018 119.934 151.786 120.429 151.484 120.88C150.967 121.655 147.528 127.172 145.382 128.892C143.236 130.613 140.744 132.081 138.163 131.824C135.582 131.567 128.973 129.068 124.083 125.19C119.193 121.312 118.498 116.224 119.014 111.314C119.531 106.405 121.25 103.037 123.827 102.523C126.404 102.01 134.92 104.158 140.753 107.261C146.585 110.364 151.577 114.156 151.919 115.449C152.26 116.741 152.171 119.412 152.171 119.412ZM193.323 137.089C192.806 141.57 191.778 144.159 190.229 146.226C188.68 148.294 186.88 149.244 182.067 148.794C177.254 148.345 173.649 146.552 170.295 144.142C166.942 141.732 165.828 138.539 164.54 135.522C163.251 132.505 161.02 126.474 162.308 122.682C163.597 118.89 167.377 119.84 167.377 119.84C167.377 119.84 170.556 120.529 170.79 120.615C171.025 120.7 190.037 126.303 190.895 127.596C191.752 128.888 193.839 132.607 193.323 137.089Z" fill="#263238"/>
<path d="M183.514 150.767C180.454 150.767 177.928 149.667 174.626 148.225L173.649 147.797C170.134 146.271 167.083 143.84 164.804 140.752C163.157 138.612 161.199 132.594 160.358 130.018C160.269 129.735 160.188 129.496 160.128 129.312C159.56 127.6 158.421 125.211 155.115 124.176C152.35 123.32 152.077 123.658 151.411 124.458C151.3 124.595 151.181 124.741 151.036 124.886L150.396 125.588C148.834 127.3 145.579 130.904 144.384 131.726C143.684 132.209 140.911 133.673 134.677 132.188C129.69 130.998 122.688 127.112 120.904 124.963C119.053 122.738 117.064 119.305 116.817 116.66C116.57 114.092 117.099 107.03 117.154 106.251L116.582 105.1C115.934 103.816 117.009 100.52 117.7 99.1334C117.795 98.9357 117.934 98.7626 118.107 98.6276C118.279 98.4925 118.48 98.399 118.694 98.3544C119.761 98.1019 121.156 98.7824 121.626 99.1462C121.992 99.4201 122.159 99.4287 122.202 99.4244L122.227 99.3859L122.308 99.3645C123.092 99.2 123.894 99.141 124.693 99.189C125.999 99.2832 128.764 99.938 131.272 100.751C133.935 101.607 148.45 108.027 149.619 108.695L150.08 108.952C151.151 109.538 152.367 110.197 153.148 112.076C154.048 114.246 155.588 116.99 156.783 118.03C157.978 119.07 160.853 118.941 162.662 118.167C163.297 117.874 163.905 117.528 164.48 117.131C165.333 116.583 166.037 116.116 166.882 116.168C168.256 116.258 186.231 121.505 190.255 123.692C193.19 125.284 194.253 126.217 194.948 126.834C195.17 127.043 195.409 127.232 195.665 127.399C196.459 127.878 198.225 127.972 198.882 127.891C199.279 127.839 199.923 127.283 200.55 126.748C200.875 126.47 201.212 126.179 201.532 125.948C202.445 125.28 211.452 117.542 213.879 115.192C216.222 112.924 220.557 108.237 221.5 106.863C222.152 105.913 223.791 104.222 224.772 104.411C224.939 104.449 225.09 104.539 225.203 104.668C225.317 104.797 225.387 104.959 225.404 105.13C225.775 106.803 224.939 111.717 224.196 114.032L224.004 114.644C222.878 118.188 221.943 120.901 221.018 120.987C220.858 121.015 220.695 120.999 220.544 120.94C220.394 120.881 220.262 120.782 220.164 120.653C219.738 120.097 219.878 118.941 220.531 117.251C221.291 115.312 222.11 111.61 222.391 110.159C221.158 111.473 217.544 115.62 215.253 118.252L213.158 120.696C210.684 123.525 204.173 128.687 204.109 128.738C202.735 130.001 200.013 132.646 199.62 133.566C199.078 134.85 197.35 135.629 197.278 135.659C196.507 136.17 195.911 136.907 195.571 137.769C195.464 138.116 195.324 138.685 195.144 139.344C194.662 141.287 193.937 144.223 192.96 145.914C191.386 148.657 188.834 150.194 185.156 150.673C184.611 150.738 184.062 150.77 183.514 150.767ZM152.747 123.264C153.597 123.322 154.436 123.498 155.238 123.786C158.737 124.865 159.932 127.381 160.533 129.179C160.593 129.363 160.674 129.607 160.764 129.889C161.596 132.457 163.541 138.449 165.137 140.491C167.374 143.523 170.369 145.909 173.82 147.408L174.797 147.836C178.637 149.505 181.38 150.712 185.135 150.241C188.668 149.813 191.108 148.311 192.623 145.691C193.566 144.052 194.287 141.15 194.756 139.228C194.923 138.565 195.063 137.996 195.183 137.632C195.548 136.664 196.212 135.838 197.077 135.274C197.116 135.252 198.75 134.503 199.211 133.391C199.735 132.154 203.648 128.558 203.814 128.404C203.891 128.344 210.368 123.204 212.821 120.405L214.916 118.004C222.498 109.294 222.541 109.311 222.763 109.397L222.899 109.448V109.602C222.899 109.902 221.854 115.012 220.907 117.435C220.083 119.54 220.335 120.225 220.48 120.431C220.535 120.498 220.606 120.548 220.687 120.578C220.769 120.607 220.856 120.614 220.941 120.598C221.67 120.529 222.955 116.489 223.569 114.55L223.765 113.934C224.555 111.473 225.288 106.735 224.964 105.258C224.896 104.946 224.759 104.886 224.666 104.864C224.034 104.749 222.6 106.011 221.824 107.141C220.847 108.567 216.538 113.227 214.144 115.534C211.75 117.841 202.667 125.657 201.749 126.324C201.442 126.547 201.114 126.834 200.794 127.107C200.09 127.711 199.424 128.28 198.899 128.349C198.272 128.426 196.373 128.383 195.413 127.801C195.135 127.623 194.874 127.419 194.632 127.193C193.946 126.585 192.9 125.674 190.007 124.099C186.014 121.929 168.171 116.72 166.814 116.63C166.11 116.579 165.474 116.998 164.68 117.525C164.085 117.937 163.454 118.295 162.795 118.595C160.87 119.421 157.798 119.54 156.471 118.385C155.144 117.229 153.613 114.422 152.721 112.273C152 110.535 150.903 109.94 149.841 109.363L149.376 109.102C148.22 108.438 133.768 102.048 131.115 101.192C129.009 100.47 126.838 99.954 124.634 99.6513C123.896 99.6092 123.156 99.661 122.432 99.8054C122.379 99.843 122.317 99.8679 122.253 99.8781C121.915 99.8847 121.588 99.757 121.344 99.5229C120.892 99.1805 119.637 98.6027 118.784 98.8038C118.631 98.8355 118.488 98.9021 118.365 98.9987C118.242 99.0952 118.143 99.2189 118.076 99.3602C117.393 100.726 116.412 103.846 116.958 104.924L117.585 106.208V106.264C117.585 106.345 116.988 114.032 117.244 116.656C117.487 119.224 119.424 122.549 121.233 124.728C122.974 126.829 129.86 130.638 134.775 131.811C140.843 133.254 143.479 131.871 144.162 131.409C145.314 130.617 148.544 127.052 150.097 125.34C150.37 125.04 150.588 124.796 150.741 124.634C150.895 124.471 150.993 124.343 151.1 124.206C151.56 123.624 151.893 123.264 152.747 123.264ZM184.145 149.128C183.518 149.128 182.822 149.094 182.05 149.025C177.818 148.644 174.152 147.198 170.172 144.317C167.066 142.079 165.854 139.181 164.68 136.404C164.57 136.138 164.459 135.873 164.343 135.612C162.637 131.653 160.892 126.196 162.103 122.613C163.443 118.684 167.39 119.617 167.428 119.617C167.748 119.686 170.62 120.307 170.88 120.396L171.332 120.533C179.968 123.123 190.408 126.431 191.095 127.463C191.782 128.494 194.082 132.376 193.536 137.084C193.054 141.266 192.115 144.031 190.4 146.325C189.086 148.109 187.601 149.128 184.145 149.128ZM166.327 119.956C165.171 119.956 163.341 120.384 162.509 122.768C161.28 126.388 163.362 132.269 164.736 135.453C164.851 135.719 164.962 135.984 165.073 136.25C166.221 138.984 167.411 141.814 170.423 143.984C174.336 146.804 177.933 148.225 182.088 148.597C186.893 149.025 188.599 148.054 190.059 146.098C191.727 143.868 192.64 141.167 193.109 137.067C193.634 132.5 191.428 128.764 190.741 127.728C190.566 127.467 188.642 126.204 171.208 120.97L170.743 120.833C170.564 120.773 168.61 120.341 167.33 120.063C167.001 119.989 166.665 119.953 166.327 119.956ZM138.778 132.077C138.565 132.077 138.353 132.067 138.142 132.047C135.445 131.773 128.836 129.239 123.942 125.366C118.46 121.021 118.396 115.256 118.792 111.297C119.339 106.118 121.152 102.848 123.776 102.309C126.4 101.77 134.925 103.927 140.843 107.069C146.462 110.065 151.731 113.942 152.119 115.389C152.465 116.699 152.384 119.305 152.384 119.416V119.463C152.225 120.007 151.983 120.522 151.667 120.991C151.612 121.077 151.526 121.214 151.407 121.394C150.434 122.9 147.469 127.497 145.523 129.055C142.972 131.109 140.8 132.077 138.778 132.077ZM124.779 102.664C124.47 102.66 124.161 102.686 123.857 102.741C121.468 103.221 119.731 106.435 119.219 111.344C118.575 117.473 120.158 121.822 124.207 125.04C128.853 128.721 135.479 131.362 138.184 131.631C140.288 131.845 142.532 130.93 145.25 128.747C147.14 127.232 150.076 122.682 151.044 121.184L151.304 120.782C151.589 120.357 151.809 119.893 151.957 119.403C151.957 119.134 152.021 116.707 151.706 115.526C151.39 114.345 146.492 110.578 140.642 107.471C135.377 104.663 128.034 102.664 124.779 102.664Z" fill="#263238"/>
<path d="M158.562 121.043C158.188 121.045 157.814 121.005 157.448 120.923C154.385 120.242 153.203 116.921 152.422 114.721L152.311 114.409C151.582 112.376 150.852 111.841 150.848 111.841L151.083 111.49C151.117 111.511 151.936 112.068 152.712 114.263L152.823 114.576C153.574 116.686 154.709 119.874 157.542 120.508C160.495 121.163 163.516 118.595 163.541 118.569L163.823 118.894C163.708 118.984 161.28 121.043 158.562 121.043Z" fill="white"/>
<path d="M197.03 130.87C196.021 130.83 195.033 130.571 194.133 130.112C194.035 130.027 193.955 129.922 193.898 129.804C193.502 129.128 192.286 127.082 187.204 124.784C181.192 122.066 167.445 118.625 167.309 118.59L167.411 118.162C167.548 118.197 181.333 121.646 187.379 124.381C192.58 126.735 193.852 128.867 194.265 129.569C194.312 129.646 194.364 129.731 194.381 129.753C194.556 129.864 197.06 130.968 198.246 130.091L198.502 130.437C198.069 130.733 197.554 130.884 197.03 130.87Z" fill="white"/>
<path d="M150.144 111.053C150.144 111.053 148.437 109.645 141.342 106.431C136.684 104.373 131.857 102.724 126.916 101.5C126.413 101.368 126.016 101.265 125.734 101.184C124.212 100.807 122.615 100.867 121.126 101.359C119.825 101.727 118.242 100.336 118.178 100.276L118.46 99.9553C118.46 99.9553 119.936 101.239 121.02 100.944C122.584 100.432 124.261 100.372 125.858 100.773C126.14 100.854 126.536 100.957 127.031 101.085C132.001 102.313 136.854 103.972 141.538 106.041C148.702 109.29 150.37 110.668 150.438 110.728L150.144 111.053Z" fill="white"/>
<path d="M121.702 124.411C117.802 121.017 118.101 115.243 118.105 115.188L118.532 115.213C118.532 115.269 118.242 120.837 121.98 124.086L121.702 124.411Z" fill="white"/>
</svg>
